<?xml version="1.0" encoding="UTF-8"?>
<svg xmlns="http://www.w3.org/2000/svg" version="1.1" width="300" height="300" viewBox="0 0 300 300"><rect x="0" y="0" width="300" height="300" fill="#ffffff"/><g transform="scale(14.286)"><g transform="translate(0,0)"><path fill-rule="evenodd" d="M10 0L10 1L8 1L8 2L10 2L10 3L8 3L8 4L9 4L9 5L8 5L8 7L9 7L9 8L6 8L6 9L7 9L7 10L5 10L5 8L0 8L0 10L2 10L2 11L1 11L1 12L0 12L0 13L2 13L2 11L3 11L3 10L4 10L4 12L3 12L3 13L5 13L5 12L6 12L6 13L8 13L8 15L9 15L9 16L8 16L8 21L9 21L9 19L10 19L10 17L9 17L9 16L10 16L10 15L11 15L11 17L12 17L12 18L11 18L11 21L12 21L12 19L13 19L13 21L14 21L14 19L15 19L15 21L16 21L16 18L17 18L17 17L18 17L18 20L17 20L17 21L18 21L18 20L19 20L19 21L20 21L20 20L19 20L19 17L21 17L21 15L19 15L19 14L21 14L21 13L18 13L18 12L20 12L20 11L18 11L18 12L17 12L17 13L16 13L16 14L15 14L15 15L16 15L16 16L17 16L17 17L16 17L16 18L13 18L13 17L15 17L15 16L13 16L13 15L14 15L14 13L15 13L15 12L16 12L16 10L21 10L21 9L20 9L20 8L19 8L19 9L18 9L18 8L17 8L17 9L16 9L16 8L15 8L15 9L16 9L16 10L14 10L14 8L13 8L13 5L12 5L12 4L13 4L13 3L12 3L12 2L13 2L13 0L12 0L12 2L11 2L11 0ZM10 3L10 5L9 5L9 7L10 7L10 8L9 8L9 9L8 9L8 10L7 10L7 11L6 11L6 12L8 12L8 11L9 11L9 15L10 15L10 14L13 14L13 13L11 13L11 10L13 10L13 9L11 9L11 8L12 8L12 5L11 5L11 3ZM10 6L10 7L11 7L11 6ZM2 9L2 10L3 10L3 9ZM9 10L9 11L10 11L10 10ZM13 11L13 12L15 12L15 11ZM16 14L16 15L17 15L17 16L18 16L18 17L19 17L19 16L18 16L18 14ZM12 16L12 17L13 17L13 16ZM0 0L0 7L7 7L7 0ZM1 1L1 6L6 6L6 1ZM2 2L2 5L5 5L5 2ZM14 0L14 7L21 7L21 0ZM15 1L15 6L20 6L20 1ZM16 2L16 5L19 5L19 2ZM0 14L0 21L7 21L7 14ZM1 15L1 20L6 20L6 15ZM2 16L2 19L5 19L5 16Z" fill="#3980a8"/></g></g></svg>
