<svg id="Misc--Brands--_4" data-name="Misc--Brands--#4" xmlns="http://www.w3.org/2000/svg" width="141.351" height="27.634" viewBox="0 0 141.351 27.634">
  <path id="Amazon" d="M10.554,16.111a.588.588,0,0,0,.671-.066l.007.006c.566-.5,1.6-1.4,2.176-1.885a.535.535,0,0,0,.009-.754,3.876,3.876,0,0,1-1.071-2.63V6.361q0-.228,0-.453c.01-1.7.019-3.245-1.25-4.431A6.439,6.439,0,0,0,6.823.063c-2.7,0-5.715,1.008-6.346,4.346A.5.5,0,0,0,.9,5l2.751.3a.6.6,0,0,0,.493-.522,2.161,2.161,0,0,1,2.281-1.7,1.9,1.9,0,0,1,1.593.737,3.2,3.2,0,0,1,.346,1.843c0,.073,0,.145,0,.215v.369a19.622,19.622,0,0,0-5.336.983A4.821,4.821,0,0,0,0,11.86c0,2.949,1.858,4.423,4.248,4.423A5.624,5.624,0,0,0,8.927,14.22,6.93,6.93,0,0,0,10.554,16.111Zm37.875-.066a.588.588,0,0,1-.671.066,6.928,6.928,0,0,1-1.627-1.891,5.626,5.626,0,0,1-4.679,2.063c-2.389,0-4.248-1.474-4.248-4.423a4.821,4.821,0,0,1,3.027-4.639,19.62,19.62,0,0,1,5.337-.983V5.869c0-.07,0-.142,0-.214a3.2,3.2,0,0,0-.346-1.844,1.9,1.9,0,0,0-1.593-.737,2.162,2.162,0,0,0-2.281,1.7.6.6,0,0,1-.493.522L38.1,5a.5.5,0,0,1-.423-.593C38.313,1.072,41.327.063,44.028.063A6.437,6.437,0,0,1,48.3,1.477c1.268,1.185,1.259,2.733,1.25,4.43q0,.225,0,.454v4.422a3.877,3.877,0,0,0,1.071,2.63.535.535,0,0,1-.009.754c-.58.486-1.61,1.381-2.177,1.885Zm57.131-5.092c-.394,1.878-1.343,3.327-3.151,3.383-2.719-.09-3.365-3.708-3.365-6.19,0-2.571.774-5.919,3.494-6.006,1.708.056,2.732,1.475,3.035,3.26a.584.584,0,0,0,.471.514l1.254.015a.525.525,0,0,0,.484-.478c-.431-3.2-2.412-5.336-5.187-5.336h-.215c-4,0-5.749,4.138-5.749,8.184,0,4.077,1.722,8.092,5.723,8.092h.215c2.748,0,4.676-2.17,5.228-5.365a.513.513,0,0,0-.52-.494l-1.2.005A.549.549,0,0,0,105.56,10.953Zm9.433,5.439c-4.026,0-5.828-4.107-5.828-8.215,0-4.322,2.12-8.061,6.172-8.061h.215c3.947,0,5.908,3.984,5.908,8.092,0,4.353-2.172,8.184-6.253,8.184h-.214Zm8.023-.831a.534.534,0,0,0,.53.524h1.241a.534.534,0,0,0,.51-.523v-8.4a6.19,6.19,0,0,1,.821-3.556,3.314,3.314,0,0,1,2.334-1.53,2.651,2.651,0,0,1,2.141,1.5,5.925,5.925,0,0,1,.451,2.636l.006,9.346a.534.534,0,0,0,.53.524h1.241a.538.538,0,0,0,.5-.447v-8.1a6.4,6.4,0,0,1,.741-3.717,3.288,3.288,0,0,1,2.489-1.744A2.561,2.561,0,0,1,138.7,3.7a6.727,6.727,0,0,1,.372,2.784c0,.1,0,.209,0,.312v8.835a.539.539,0,0,0,.525.452h1.246a.533.533,0,0,0,.51-.523V6.639a9.646,9.646,0,0,0-.635-4.285A3.937,3.937,0,0,0,137.324.116l-.114,0-.1,0c-1.948,0-3.426,1.39-4.21,3.349-.5-1.983-1.857-3.349-3.708-3.349l-.105,0-.109,0a4.465,4.465,0,0,0-3.866,3V.994a.537.537,0,0,0-.545-.48h-1.042a.533.533,0,0,0-.507.479Zm-106.878.52h2.838a.535.535,0,0,0,.548-.524V7.837q0-.09,0-.183c0-1.666-.006-3.832,1.961-3.832,1.809,0,1.779,1.931,1.754,3.5,0,.177-.006.35-.006.515l0,7.722a.533.533,0,0,0,.51.523H26.58a.536.536,0,0,0,.548-.524V7.837c0-.062,0-.127,0-.193a8.043,8.043,0,0,1,.265-2.6,1.882,1.882,0,0,1,1.7-1.2,1.479,1.479,0,0,1,1.669,1.257,13.8,13.8,0,0,1,.084,2.286c0,.172,0,.324,0,.442v7.722a.533.533,0,0,0,.51.523h2.835a.536.536,0,0,0,.547-.524l0-9.192c0-.226,0-.456.008-.688.023-1.377.047-2.83-.723-3.879a4.192,4.192,0,0,0-7.206,1.1C26.015,1.063,24.9.2,23.127.2a3.744,3.744,0,0,0-3.735,2.7h-.053V1a.535.535,0,0,0-.516-.489H16.179a.535.535,0,0,0-.548.524l0,14.566A.535.535,0,0,0,16.138,16.082ZM71.429.2c4.212,0,6.49,3.617,6.49,8.215,0,4.444-2.516,7.97-6.49,7.97-4.133,0-6.385-3.617-6.385-8.123C65.045,3.729,67.323.2,71.429.2Zm9.126,15.877h2.828a.544.544,0,0,0,.553-.524V7.714a6.479,6.479,0,0,1,.451-2.759,1.856,1.856,0,0,1,1.642-1.165c1.808,0,1.791,1.982,1.778,3.54,0,.131,0,.259,0,.383v7.909a.536.536,0,0,0,.506.459h2.845a.539.539,0,0,0,.544-.459V6.457c0-1.41,0-3.372-.742-4.536A3.721,3.721,0,0,0,87.644.2c-1.961,0-3.073.95-3.868,2.942h-.054V.919a.539.539,0,0,0-.5-.408H80.586a.537.537,0,0,0-.545.475l0,14.572A.533.533,0,0,0,80.555,16.082ZM53,3.082V1a.514.514,0,0,1,.528-.527h9.329A.521.521,0,0,1,63.4,1V2.783a2.913,2.913,0,0,1-.7,1.31l-4.832,6.9a10.349,10.349,0,0,1,5.321,1.143.952.952,0,0,1,.495.813v2.221c0,.306-.335.66-.687.476a10.744,10.744,0,0,0-9.857.018c-.324.173-.664-.176-.664-.482V13.069a2.512,2.512,0,0,1,.347-1.431l5.6-8.032H53.543A.519.519,0,0,1,53,3.082ZM115.29,14.4a3.4,3.4,0,0,0,2.988-2.236,9.67,9.67,0,0,0,.662-3.984,8.9,8.9,0,0,0-.848-4.261,3.062,3.062,0,0,0-5.746.368,10.171,10.171,0,0,0-.661,3.893,10.411,10.411,0,0,0,.769,4.26A3.354,3.354,0,0,0,115.29,14.4ZM71.456,3.177c-2.093,0-2.226,2.851-2.226,4.628v.062c0,1.8,0,5.517,2.2,5.517s2.3-3.065,2.3-4.935a13.477,13.477,0,0,0-.424-3.862A1.777,1.777,0,0,0,71.456,3.177ZM8.363,9.271q0-.072,0-.145V8.511c-2.053,0-4.221.44-4.221,2.857,0,1.228.637,2.058,1.726,2.058a2.3,2.3,0,0,0,1.964-1.29A5.308,5.308,0,0,0,8.363,9.271Zm37.2-.145q0,.072,0,.143a5.311,5.311,0,0,1-.531,2.867,2.3,2.3,0,0,1-1.965,1.29c-1.088,0-1.726-.83-1.726-2.058,0-2.417,2.168-2.857,4.221-2.857Zm47.909,5.8a1.4,1.4,0,1,1,1.4,1.327A1.364,1.364,0,0,1,93.476,14.926ZM52.893,18.934c1.722-.206,5.532-.662,6.213.209s-.756,4.463-1.4,6.071v0c-.195.486.223.682.663.314,2.858-2.391,3.6-7.4,3.011-8.125s-5.578-1.335-8.627.807c-.469.329-.388.784.132.721ZM37.185,27.7c6.651,0,14.375-2.091,19.7-6.023.882-.651.127-1.627-.774-1.244a47.915,47.915,0,0,1-18.369,3.759A48.442,48.442,0,0,1,13.662,17.8c-.6-.349-1.044.267-.546.717A35.656,35.656,0,0,0,37.185,27.7Z" transform="translate(0 -0.063)" fill="#969696" fill-rule="evenodd"/>
</svg>
