<svg id="_-Icon" data-name="🔶-Icon" xmlns="http://www.w3.org/2000/svg" width="15" height="15" viewBox="0 0 15 15">
  <path id="_-Icon-Color" data-name="🔹-Icon-Color" d="M6,13.5A1.5,1.5,0,1,0,7.5,15,1.5,1.5,0,0,0,6,13.5ZM1.5,1.5V3H3L5.7,8.693,4.688,10.53a1.45,1.45,0,0,0-.187.72A1.5,1.5,0,0,0,6,12.75h9v-1.5H6.315a.186.186,0,0,1-.187-.187l.022-.09L6.825,9.75h5.588a1.493,1.493,0,0,0,1.313-.773L16.41,4.11a.733.733,0,0,0,.09-.36A.752.752,0,0,0,15.75,3H4.657l-.7-1.5Zm12,12A1.5,1.5,0,1,0,15,15a1.5,1.5,0,0,0-1.5-1.5Z" transform="translate(-1.5 -1.5)" fill="#9e9e9e" fill-rule="evenodd"/>
</svg>
