<svg id="Misc--Brands--_3" data-name="Misc--Brands--#3" xmlns="http://www.w3.org/2000/svg" width="124.851" height="24.513" viewBox="0 0 124.851 24.513">
  <path id="Facebook" d="M11.714,3.795V0H8.463A5.819,5.819,0,0,0,4.537,1.425,3.859,3.859,0,0,0,3.25,4.878V8.331H0v4.063H3.115V23.972h4.6V12.446H11.24l.474-4.115H7.719V5.352c0-1.828,1.9-1.557,1.9-1.557ZM119.787,16.2l5.064,7.84h-4.8l-5.1-7.976V24.04H110.3V.631l4.652-.488V15.377l4.728-7.019h4.952ZM63.479,24.073V22.007a5.866,5.866,0,0,0,4.635,2.506c3.571,0,6.466-3.149,6.466-8.277,0-5.095-2.895-8.277-6.466-8.277a5.881,5.881,0,0,0-4.669,2.55L63.476.224,58.864.743V24ZM22.815,10.465V8.4h4.438V23.972H22.818l.03-2.009a5.881,5.881,0,0,1-4.668,2.55c-3.571,0-6.466-3.182-6.466-8.277,0-5.129,2.895-8.277,6.466-8.277A5.866,5.866,0,0,1,22.815,10.465Zm34.128,7.413s1.862-9.75-7.042-9.8S42.284,16.9,42.284,16.9c.2,5.383,2.674,6.94,6.906,7.448a14.225,14.225,0,0,0,7.448-1.117l-.982-3.148a19.452,19.452,0,0,1-6.127.812,2.752,2.752,0,0,1-2.505-3.013ZM33.718,16.335c0,4.6,3.555,4.4,3.555,4.4,2.4.034,3.25-.812,3.25-.812l1.117,3.352c-1.93,1.422-7.753,1.659-10.359-.745-2.256-2.08-2.255-5.45-2.214-6.321-.041-.871-.042-4.241,2.214-6.321,2.607-2.4,8.43-2.167,10.359-.745L40.523,12.5s-.846-.846-3.25-.812c0,0-3.555-.2-3.555,4.4Zm42.29.007c0-4.674,1.951-8.171,7.746-8.171,5.534,0,7.747,3.658,7.747,8.171,0,5.3-3.469,8.171-7.747,8.171C78.522,24.513,76.008,21.3,76.008,16.342Zm24.853-8.171c-5.8,0-7.747,3.5-7.747,8.171,0,4.959,2.513,8.171,7.747,8.171,4.279,0,7.747-2.875,7.747-8.171C108.608,11.83,106.394,8.171,100.861,8.171ZM46.955,14.729s-.237-3.453,2.878-3.453,2.877,3.453,2.877,3.453ZM63.727,14.7a2.982,2.982,0,1,1,5.963,0v2.979a2.982,2.982,0,1,1-5.963,0Zm19.988,6.045a3.128,3.128,0,0,0,3.06-3.047V14.715a3.06,3.06,0,0,0-6.119,0v2.979A3.128,3.128,0,0,0,83.715,20.741Zm20.166-3.047a3.059,3.059,0,0,1-6.119,0V14.715a3.059,3.059,0,0,1,6.119,0Zm-84.3,3.129a3.089,3.089,0,0,0,2.982-3.047V14.8a3.089,3.089,0,0,0-2.982-3.047A3.089,3.089,0,0,0,16.6,14.8v2.979A3.089,3.089,0,0,0,19.585,20.823Z" transform="translate(0 0)" fill="#969696" fill-rule="evenodd"/>
</svg>
