<svg id="Misc--Brands--_2" data-name="Misc--Brands--#2" xmlns="http://www.w3.org/2000/svg" width="104.749" height="34.551" viewBox="0 0 104.749 34.551">
  <path id="Google" d="M19.971,6.427a9.6,9.6,0,0,0-6.582-2.6,9.506,9.506,0,0,0-6.766,2.8,9.7,9.7,0,0,0,0,13.625,9.5,9.5,0,0,0,6.765,2.8c.133,0,.176,0,.176,0s-.065,0-.112,0h.083a8.908,8.908,0,0,0,6.284-2.3,8.044,8.044,0,0,0,2.246-4.7H13.494V12.239H25.978l.021,1.9c0,.1,0,.155,0,.181h0a12.42,12.42,0,0,1-3.5,9.167,12.661,12.661,0,0,1-8.93,3.386l-.177,0c-.03,0-.022,0,0,0l.079,0h-.079A13.414,13.414,0,0,1,0,13.436,13.4,13.4,0,0,1,22.587,3.647ZM26,14.319c0,.022,0,.029,0,0Zm0,0h0c0-.086,0-.116,0-.116s0,.018,0,.04S26,14.3,26,14.319ZM87.189,26.311H83.523V1.106h3.667Zm-42.418-8.1a8.516,8.516,0,0,0-2.544-6.066,8.738,8.738,0,0,0-12.284,0,8.5,8.5,0,0,0,0,12.132,8.738,8.738,0,0,0,12.284,0A8.516,8.516,0,0,0,44.771,18.214Zm18.682,0a8.517,8.517,0,0,0-2.544-6.066,8.738,8.738,0,0,0-12.284,0,8.5,8.5,0,0,0,0,12.132,8.738,8.738,0,0,0,12.284,0A8.517,8.517,0,0,0,63.453,18.214Zm14.222-8.1v1.5a6.585,6.585,0,0,0-5.031-1.979c-3.916,0-7.859,3.815-7.859,8.589a8.98,8.98,0,0,0,2.3,6.066,8.321,8.321,0,0,0,5.92,2.523,6.473,6.473,0,0,0,4.668-1.984V26.7a4.392,4.392,0,0,1-4.111,4.477,4.74,4.74,0,0,1-4.872-3.091l-3.257,1.468a8.311,8.311,0,0,0,3.234,3.753,9.218,9.218,0,0,0,4.9,1.245A7.917,7.917,0,0,0,78.7,32.522a8.627,8.627,0,0,0,2.524-6.049V10.11Zm26.838,12.923-2.9-1.946c-1.928,3.213-7.014,3.175-8.457-.264,3.874-1.56,7.73-3.153,11.6-4.721-1.28-3.3-3.031-5.2-5.188-5.98a7.957,7.957,0,0,0-8.63,2.13,9.064,9.064,0,0,0,.344,12.159,8.25,8.25,0,0,0,6.046,2.465A8.5,8.5,0,0,0,104.513,23.032ZM32.57,14.567a4.867,4.867,0,0,1,7.029,0,5.3,5.3,0,0,1,0,7.3,4.867,4.867,0,0,1-7.029,0,5.3,5.3,0,0,1,0-7.3Zm18.682,0a4.867,4.867,0,0,1,7.029,0,5.3,5.3,0,0,1,0,7.3,4.867,4.867,0,0,1-7.029,0,5.3,5.3,0,0,1,0-7.3Zm18.7,0a4.485,4.485,0,0,1,6.7,0,5.492,5.492,0,0,1,0,7.3A4.636,4.636,0,0,1,73.3,23.456c-2.786,0-4.734-2.352-4.734-5.242A5.363,5.363,0,0,1,69.953,14.567Z" transform="translate(0 0)" fill="#969696" fill-rule="evenodd"/>
</svg>
