<svg xmlns="http://www.w3.org/2000/svg" xmlns:xlink="http://www.w3.org/1999/xlink" width="645.384" height="224.846" viewBox="0 0 645.384 224.846">
  <defs>
    <linearGradient id="linear-gradient" y1="0.5" x2="1.001" y2="0.5" gradientUnits="objectBoundingBox">
      <stop offset="0" stop-color="#8cc63f"/>
      <stop offset="0.54" stop-color="#8cc63f"/>
      <stop offset="1" stop-color="#80ad3a"/>
    </linearGradient>
  </defs>
  <g id="MUKYFY_Logo_Eng-01" data-name="MUKYFY Logo Eng-01" transform="translate(-427.466 -314)">
    <g id="Group_2" data-name="Group 2" transform="translate(333 -242.159)">
      <path id="Path_1" data-name="Path 1" d="M358.45,725.94a8.469,8.469,0,0,1-4.95-1.36,7.391,7.391,0,0,1-2.83-4,12.685,12.685,0,0,1-.44-2.1,25.661,25.661,0,0,1-.15-3.12,26.14,26.14,0,0,1,.15-3.12,12.7,12.7,0,0,1,.44-2.15,7.47,7.47,0,0,1,2.81-3.91,8.07,8.07,0,0,1,4.71-1.35,8.209,8.209,0,0,1,4.74,1.35,7.48,7.48,0,0,1,2.82,3.91,9.82,9.82,0,0,1,.47,2.12q.12,1.15.12,3.27c0,.29-.15.43-.46.43H352.67c-.17,0-.26.1-.26.3a16.116,16.116,0,0,0,.11,2.06,10.213,10.213,0,0,0,.32,1.5,5.69,5.69,0,0,0,2.19,3,6.39,6.39,0,0,0,3.54,1A7,7,0,0,0,362,723a7.31,7.31,0,0,0,2.27-1.85.38.38,0,0,1,.6-.08l1,.89a.39.39,0,0,1,0,.59,8.35,8.35,0,0,1-3,2.45A9.651,9.651,0,0,1,358.45,725.94Zm5.3-12a.23.23,0,0,0,.26-.26,12.868,12.868,0,0,0-.09-1.63,5.75,5.75,0,0,0-.29-1.3,5.27,5.27,0,0,0-2-2.87,6.63,6.63,0,0,0-6.84,0,5.21,5.21,0,0,0-2,2.87,5.75,5.75,0,0,0-.3,1.3,12.872,12.872,0,0,0-.09,1.63.23.23,0,0,0,.26.26Z" fill="#fff"/>
      <path id="Path_2" data-name="Path 2" d="M382.27,725.52a.69.69,0,0,1-.6-.34l-5.6-8.24h0l-5.65,8.24a.68.68,0,0,1-.6.34h-1.7a.28.28,0,0,1-.27-.13.32.32,0,0,1,0-.3l6.92-10.19-6.24-9.22a.3.3,0,0,1,0-.29c0-.09.13-.13.27-.13h1.75a.66.66,0,0,1,.59.34l4.93,7.3h0l5-7.3a.66.66,0,0,1,.59-.34h1.7a.29.29,0,0,1,.28.13.34.34,0,0,1,0,.29l-6.29,9.22,7,10.19a.33.33,0,0,1,0,.3.3.3,0,0,1-.28.13Z" fill="#fff"/>
      <path id="Path_3" data-name="Path 3" d="M387.66,733.16a.37.37,0,0,1-.42-.42V705.68a.37.37,0,0,1,.42-.42h1.45a.37.37,0,0,1,.42.42v2.47h0a6.11,6.11,0,0,1,2.17-2.38,7.32,7.32,0,0,1,4-.93c3.51,0,5.81,1.61,6.88,4.84a14.188,14.188,0,0,1,.55,2.61,24.441,24.441,0,0,1,.17,3.12,24.115,24.115,0,0,1-.17,3.08,14.187,14.187,0,0,1-.55,2.61c-1.07,3.23-3.37,4.84-6.88,4.84a7.321,7.321,0,0,1-4-.93,6.18,6.18,0,0,1-2.17-2.38h0v10.11a.37.37,0,0,1-.42.42Zm7.6-9.43a5.57,5.57,0,0,0,3.32-.91,5.24,5.24,0,0,0,1.87-2.65,9.328,9.328,0,0,0,.44-2.19c.07-.81.11-1.66.11-2.57a19.71,19.71,0,0,0-.11-2.59,9.4,9.4,0,0,0-.44-2.21,5.24,5.24,0,0,0-1.87-2.65,5.57,5.57,0,0,0-3.32-.92,5.73,5.73,0,0,0-3.24.89,5,5,0,0,0-1.94,2.68,9.353,9.353,0,0,0-.42,2,24.482,24.482,0,0,0-.13,2.8,24.105,24.105,0,0,0,.13,2.78,9.419,9.419,0,0,0,.42,2,5,5,0,0,0,1.94,2.67,5.66,5.66,0,0,0,3.24.87Z" fill="#fff"/>
      <path id="Path_4" data-name="Path 4" d="M414.25,725.94a8.52,8.52,0,0,1-4.95-1.36,7.32,7.32,0,0,1-2.82-4,11.712,11.712,0,0,1-.45-2.1,25.667,25.667,0,0,1-.15-3.12,26.146,26.146,0,0,1,.15-3.12,11.737,11.737,0,0,1,.45-2.15,7.45,7.45,0,0,1,2.8-3.91,8.069,8.069,0,0,1,4.71-1.35,8.21,8.21,0,0,1,4.74,1.35,7.38,7.38,0,0,1,2.82,3.91,9.258,9.258,0,0,1,.47,2.12c.08.77.13,1.86.13,3.27,0,.29-.16.43-.47.43H408.47c-.17,0-.25.1-.25.3a16.4,16.4,0,0,0,.1,2.06,10.218,10.218,0,0,0,.32,1.5,5.69,5.69,0,0,0,2.19,3,6.42,6.42,0,0,0,3.55,1,7,7,0,0,0,3.37-.74,7.31,7.31,0,0,0,2.27-1.85.38.38,0,0,1,.6-.08l1,.89a.39.39,0,0,1,0,.59,8.349,8.349,0,0,1-3,2.45,9.63,9.63,0,0,1-4.37.91Zm5.31-12c.17,0,.25-.09.25-.26a15.288,15.288,0,0,0-.08-1.63,6.352,6.352,0,0,0-.3-1.3,5.22,5.22,0,0,0-2-2.87A6,6,0,0,0,414,707a5.9,5.9,0,0,0-3.39.95,5.22,5.22,0,0,0-2,2.87,6.346,6.346,0,0,0-.3,1.3,15.3,15.3,0,0,0-.08,1.63c0,.17.08.26.25.26Z" fill="#fff"/>
      <path id="Path_5" data-name="Path 5" d="M426.44,725.52a.38.38,0,0,1-.43-.43V705.68a.37.37,0,0,1,.43-.42h1.44a.38.38,0,0,1,.43.42v2.59h0a5.51,5.51,0,0,1,1.93-2.46,5.8,5.8,0,0,1,3.5-1,6.649,6.649,0,0,1,2.3.38,5.33,5.33,0,0,1,1.78,1c.23.14.26.32.08.55l-.85,1.19c-.14.2-.35.22-.63.08a7.129,7.129,0,0,0-1.49-.74,5.2,5.2,0,0,0-1.74-.28,4.391,4.391,0,0,0-2.29.56,4.23,4.23,0,0,0-1.51,1.46,6.74,6.74,0,0,0-.85,2.17,12.529,12.529,0,0,0-.27,2.65v11.21a.38.38,0,0,1-.43.43Z" fill="#fff"/>
      <path id="Path_6" data-name="Path 6" d="M440.49,699.87a.37.37,0,0,1-.42-.43v-2.38a.37.37,0,0,1,.42-.42h1.87a.38.38,0,0,1,.43.42v2.38a.38.38,0,0,1-.43.43Zm.22,25.65a.38.38,0,0,1-.43-.43V705.68a.37.37,0,0,1,.43-.42h1.44a.37.37,0,0,1,.42.42v19.41a.37.37,0,0,1-.42.43Z" fill="#fff"/>
      <path id="Path_7" data-name="Path 7" d="M454.85,725.94a8.5,8.5,0,0,1-5-1.36,7.321,7.321,0,0,1-2.82-4,11.712,11.712,0,0,1-.45-2.1,25.669,25.669,0,0,1-.15-3.12,26.126,26.126,0,0,1,.15-3.12,11.736,11.736,0,0,1,.45-2.15,7.4,7.4,0,0,1,2.8-3.91,8.07,8.07,0,0,1,4.71-1.35,8.209,8.209,0,0,1,4.74,1.35,7.48,7.48,0,0,1,2.82,3.91,9.822,9.822,0,0,1,.47,2.12c.08.77.13,1.86.13,3.27,0,.29-.16.43-.47.43H449.07c-.17,0-.25.1-.25.3a16.392,16.392,0,0,0,.1,2.06,10.225,10.225,0,0,0,.32,1.5,5.69,5.69,0,0,0,2.19,3,6.41,6.41,0,0,0,3.54,1,7,7,0,0,0,3.38-.74,7.31,7.31,0,0,0,2.27-1.85.38.38,0,0,1,.6-.08l1,.89a.38.38,0,0,1,.05.59,8.349,8.349,0,0,1-3,2.45,9.63,9.63,0,0,1-4.42.91Zm5.3-12a.23.23,0,0,0,.26-.26,15.288,15.288,0,0,0-.08-1.63,6.349,6.349,0,0,0-.3-1.3,5.22,5.22,0,0,0-2-2.87,6.63,6.63,0,0,0-6.84,0,5.261,5.261,0,0,0-2,2.87,6.347,6.347,0,0,0-.3,1.3,13,13,0,0,0-.08,1.63c0,.17.08.26.25.26Z" fill="#fff"/>
      <path id="Path_8" data-name="Path 8" d="M480.16,725.52a.38.38,0,0,1-.43-.43v-12q0-6.07-5.31-6.08a5.58,5.58,0,0,0-3.93,1.49,5.42,5.42,0,0,0-1.59,4.16v12.4a.37.37,0,0,1-.42.43H467a.38.38,0,0,1-.43-.43V705.68a.37.37,0,0,1,.43-.42h1.44a.37.37,0,0,1,.42.42v2.42h0a5.759,5.759,0,0,1,2.3-2.37,7.15,7.15,0,0,1,3.69-.89,6.79,6.79,0,0,1,5.25,2,8.14,8.14,0,0,1,1.85,5.73V725.1a.38.38,0,0,1-.43.43Z" fill="#fff"/>
      <path id="Path_9" data-name="Path 9" d="M485.68,715.41a22.363,22.363,0,0,1,.17-3.08,13.814,13.814,0,0,1,.47-2.23,7.3,7.3,0,0,1,2.78-3.89,8.16,8.16,0,0,1,4.77-1.37,7.9,7.9,0,0,1,4.08,1,7.8,7.8,0,0,1,2.76,2.85.35.35,0,0,1-.13.55l-1.18.76c-.23.15-.41.09-.56-.17a6.249,6.249,0,0,0-2-2.08,6.47,6.47,0,0,0-6.28.28,5.22,5.22,0,0,0-1.95,2.87,9.12,9.12,0,0,0-.43,1.91,23.568,23.568,0,0,0-.13,2.63,23,23,0,0,0,.13,2.61,9.063,9.063,0,0,0,.43,1.89,5.22,5.22,0,0,0,1.95,2.87,5.73,5.73,0,0,0,3.35,1,5.6,5.6,0,0,0,2.93-.68,6.069,6.069,0,0,0,2-2.08c.15-.25.33-.31.56-.17l1.18.77a.35.35,0,0,1,.13.55,7.33,7.33,0,0,1-6.84,3.82,8.089,8.089,0,0,1-4.77-1.38,7.24,7.24,0,0,1-2.78-3.88,14,14,0,0,1-.47-2.21,21.866,21.866,0,0,1-.17-3.14Z" fill="#fff"/>
      <path id="Path_10" data-name="Path 10" d="M511.45,725.94a8.46,8.46,0,0,1-4.94-1.36,7.391,7.391,0,0,1-2.83-4,11.746,11.746,0,0,1-.44-2.1,25.669,25.669,0,0,1-.15-3.12,26.132,26.132,0,0,1,.15-3.12,11.787,11.787,0,0,1,.44-2.15,7.47,7.47,0,0,1,2.81-3.91,8.07,8.07,0,0,1,4.71-1.35,8.16,8.16,0,0,1,4.73,1.35,7.45,7.45,0,0,1,2.83,3.91,9.821,9.821,0,0,1,.47,2.12q.12,1.15.12,3.27c0,.29-.15.43-.46.43H505.68c-.17,0-.26.1-.26.3a16.111,16.111,0,0,0,.11,2.06,10.213,10.213,0,0,0,.32,1.5,5.69,5.69,0,0,0,2.19,3,6.36,6.36,0,0,0,3.54,1A7,7,0,0,0,515,723a7.43,7.43,0,0,0,2.27-1.85.37.37,0,0,1,.59-.08l1,.89a.38.38,0,0,1,0,.59,8.22,8.22,0,0,1-3,2.45,9.67,9.67,0,0,1-4.41.94Zm5.31-12a.23.23,0,0,0,.26-.26,12.861,12.861,0,0,0-.09-1.63,6.391,6.391,0,0,0-2.3-4.17,6.63,6.63,0,0,0-6.84,0,5.21,5.21,0,0,0-2,2.87,5.75,5.75,0,0,0-.3,1.3,12.862,12.862,0,0,0-.09,1.63.23.23,0,0,0,.26.26Z" fill="#fff"/>
      <path id="Path_11" data-name="Path 11" d="M536.93,725.64c-1.92,0-3.28-.41-4.07-1.23s-1.19-2.23-1.19-4.24V707.55c0-.17-.09-.25-.26-.25h-2.12a.37.37,0,0,1-.42-.43v-1.19a.37.37,0,0,1,.42-.42h2.12a.23.23,0,0,0,.26-.26v-5.81a.37.37,0,0,1,.42-.43h1.45a.37.37,0,0,1,.42.43V705a.23.23,0,0,0,.26.26H538a.37.37,0,0,1,.42.42v1.19a.37.37,0,0,1-.42.43h-3.82c-.17,0-.26.08-.26.25V720a2.73,2.73,0,0,0,3.27,3.4H538a.37.37,0,0,1,.42.42v1.36a.37.37,0,0,1-.42.42Z" fill="#fff"/>
      <path id="Path_12" data-name="Path 12" d="M555.32,725.52a.37.37,0,0,1-.42-.43v-12q0-6.07-5.31-6.08a5.54,5.54,0,0,0-3.93,1.49,5.42,5.42,0,0,0-1.59,4.16v12.4a.37.37,0,0,1-.42.43H542.2a.37.37,0,0,1-.42-.43v-28a.37.37,0,0,1,.42-.42h1.45a.37.37,0,0,1,.42.42v11h0a5.8,5.8,0,0,1,2.29-2.37,7.221,7.221,0,0,1,3.7-.89,6.82,6.82,0,0,1,5.25,2,8.14,8.14,0,0,1,1.84,5.73v12.53a.37.37,0,0,1-.42.43Z" fill="#fff"/>
      <path id="Path_13" data-name="Path 13" d="M568.91,707a9.42,9.42,0,0,0-3,.4,6.729,6.729,0,0,0-2.06,1.13c-.26.2-.47.18-.64,0l-.72-1.06a.39.39,0,0,1,.12-.59,7.928,7.928,0,0,1,2.7-1.45,12.361,12.361,0,0,1,3.76-.5,14.757,14.757,0,0,1,3.35.33,5.2,5.2,0,0,1,2.3,1.15A4.789,4.789,0,0,1,576,708.4a9.841,9.841,0,0,1,.43,3.14v13.55a.38.38,0,0,1-.43.43h-1.35a.38.38,0,0,1-.43-.43V723h0a4.75,4.75,0,0,1-2.19,2.12,8.639,8.639,0,0,1-4.1.85,7.55,7.55,0,0,1-4.92-1.51A5.39,5.39,0,0,1,561.1,720a5.27,5.27,0,0,1,2-4.52,9.46,9.46,0,0,1,5.71-1.46h5.14a.23.23,0,0,0,.26-.26v-2.08a8.7,8.7,0,0,0-.23-2.12,3,3,0,0,0-.85-1.47,3.739,3.739,0,0,0-1.64-.83A10.761,10.761,0,0,0,568.91,707Zm-.55,16.86a6.77,6.77,0,0,0,4.23-1.23,4,4,0,0,0,1.59-3.32v-3.1c0-.17-.09-.25-.26-.25h-4.84a7.51,7.51,0,0,0-4.39,1,4,4,0,0,0-.05,5.92,6,6,0,0,0,3.72.94Z" fill="#fff"/>
      <path id="Path_14" data-name="Path 14" d="M587.26,725.64q-2.89,0-4.08-1.23c-.79-.82-1.19-2.23-1.19-4.24V707.55a.22.22,0,0,0-.25-.25h-2.13a.37.37,0,0,1-.42-.43v-1.19a.37.37,0,0,1,.42-.42h2.13c.17,0,.25-.09.25-.26v-5.81a.38.38,0,0,1,.43-.43h1.44a.38.38,0,0,1,.43.43V705c0,.17.08.26.25.26h3.82a.37.37,0,0,1,.43.42v1.19a.38.38,0,0,1-.43.43h-3.82a.22.22,0,0,0-.25.25V720a3.69,3.69,0,0,0,.74,2.72,3.73,3.73,0,0,0,2.52.68h.81a.37.37,0,0,1,.43.42v1.36a.37.37,0,0,1-.43.42Z" fill="#fff"/>
      <path id="Path_15" data-name="Path 15" d="M607,725.94a8.46,8.46,0,0,1-4.94-1.36,7.39,7.39,0,0,1-2.83-4,11.738,11.738,0,0,1-.44-2.1,25.662,25.662,0,0,1-.15-3.12,26.14,26.14,0,0,1,.15-3.12,11.786,11.786,0,0,1,.44-2.15,7.47,7.47,0,0,1,2.81-3.91,8.07,8.07,0,0,1,4.71-1.35,8.16,8.16,0,0,1,4.73,1.35,7.45,7.45,0,0,1,2.83,3.91,9.263,9.263,0,0,1,.46,2.12,30.333,30.333,0,0,1,.13,3.27c0,.29-.15.43-.46.43H601.23c-.17,0-.26.1-.26.3a16.122,16.122,0,0,0,.11,2.06,10.223,10.223,0,0,0,.32,1.5,5.69,5.69,0,0,0,2.19,3,6.36,6.36,0,0,0,3.54,1,7,7,0,0,0,3.38-.74,7.43,7.43,0,0,0,2.27-1.85.37.37,0,0,1,.59-.08l1,.89a.38.38,0,0,1,0,.59,8.219,8.219,0,0,1-3,2.45,9.671,9.671,0,0,1-4.37.91Zm5.31-12a.23.23,0,0,0,.26-.26,12.873,12.873,0,0,0-.09-1.63,5.263,5.263,0,0,0-.3-1.3,5.21,5.21,0,0,0-2-2.87,6.632,6.632,0,0,0-6.84,0,6.39,6.39,0,0,0-2.3,4.17,12.861,12.861,0,0,0-.09,1.63.23.23,0,0,0,.26.26Z" fill="#fff"/>
      <path id="Path_16" data-name="Path 16" d="M624.12,725.52a.5.5,0,0,1-.51-.43l-7.35-19.41c-.08-.28,0-.42.34-.42h1.57a.59.59,0,0,1,.56.42l6.11,16.23h0l6-16.23a.58.58,0,0,1,.55-.42H633c.32,0,.43.14.34.42L626,725.09a.52.52,0,0,1-.51.43Z" fill="#fff"/>
      <path id="Path_17" data-name="Path 17" d="M642.89,725.94a8.1,8.1,0,0,1-4.76-1.36,7.43,7.43,0,0,1-2.8-3.9,12.151,12.151,0,0,1-.51-2.23,23.527,23.527,0,0,1-.17-3.08,23.083,23.083,0,0,1,.17-3,12,12,0,0,1,.51-2.23,7.45,7.45,0,0,1,2.8-3.91,8.159,8.159,0,0,1,4.76-1.35,8.27,8.27,0,0,1,4.78,1.35,7.48,7.48,0,0,1,2.82,3.91,12,12,0,0,1,.51,2.23,23.083,23.083,0,0,1,.17,3,23.525,23.525,0,0,1-.17,3.08,12.151,12.151,0,0,1-.51,2.23,7.46,7.46,0,0,1-2.82,3.9,8.2,8.2,0,0,1-4.78,1.36Zm0-2.21a5.82,5.82,0,0,0,3.4-1,5.32,5.32,0,0,0,2-2.81,9.059,9.059,0,0,0,.43-1.89,29.874,29.874,0,0,0,0-5.35,9.366,9.366,0,0,0-.43-1.89,5.34,5.34,0,0,0-2-2.8,5.82,5.82,0,0,0-3.4-1,5.759,5.759,0,0,0-3.36,1,5.28,5.28,0,0,0-2,2.8,9.369,9.369,0,0,0-.43,1.89,29.874,29.874,0,0,0,0,5.35,9.068,9.068,0,0,0,.43,1.89,5.27,5.27,0,0,0,2,2.81,5.759,5.759,0,0,0,3.36,1Z" fill="#fff"/>
      <path id="Path_18" data-name="Path 18" d="M659.24,725.64a4.1,4.1,0,0,1-3.25-1.1,5.54,5.54,0,0,1-1-3.65V697.06a.38.38,0,0,1,.43-.42h1.44a.38.38,0,0,1,.43.42V720.8a3.14,3.14,0,0,0,.51,2.06,2.12,2.12,0,0,0,1.65.58h.72a.37.37,0,0,1,.43.42v1.36a.37.37,0,0,1-.43.42Z" fill="#fff"/>
      <path id="Path_19" data-name="Path 19" d="M668.92,725.52a.52.52,0,0,1-.51-.43l-7.35-19.41c-.08-.28,0-.42.34-.42H663a.58.58,0,0,1,.55.42l6.11,16.23h.05l6-16.23a.59.59,0,0,1,.56-.42h1.57c.31,0,.42.14.34.42l-7.35,19.41a.51.51,0,0,1-.51.43Z" fill="#fff"/>
      <path id="Path_20" data-name="Path 20" d="M687.82,725.94a8.519,8.519,0,0,1-5-1.36,7.37,7.37,0,0,1-2.82-4,11.7,11.7,0,0,1-.45-2.1,25.663,25.663,0,0,1-.15-3.12,26.152,26.152,0,0,1,.15-3.12,11.734,11.734,0,0,1,.45-2.15,7.45,7.45,0,0,1,2.8-3.91,8.07,8.07,0,0,1,4.71-1.35,8.209,8.209,0,0,1,4.74,1.35,7.38,7.38,0,0,1,2.82,3.91,9.258,9.258,0,0,1,.47,2.12,30.319,30.319,0,0,1,.13,3.27c0,.29-.16.43-.47.43H682c-.17,0-.25.1-.25.3a14.461,14.461,0,0,0,.11,2.06,10.223,10.223,0,0,0,.31,1.5,5.69,5.69,0,0,0,2.19,3,6.42,6.42,0,0,0,3.55,1,7,7,0,0,0,3.37-.74,7.467,7.467,0,0,0,2.28-1.85.37.37,0,0,1,.59-.08l1,.89a.39.39,0,0,1,0,.59,8.4,8.4,0,0,1-3,2.45,9.7,9.7,0,0,1-4.33.91Zm5.31-12c.17,0,.25-.09.25-.26a15.287,15.287,0,0,0-.08-1.63,6.35,6.35,0,0,0-.3-1.3,5.22,5.22,0,0,0-2-2.87,6,6,0,0,0-3.44-.95,5.9,5.9,0,0,0-3.39.95,5.22,5.22,0,0,0-2,2.87,6.349,6.349,0,0,0-.3,1.3,15.271,15.271,0,0,0-.08,1.63c0,.17.08.26.25.26Z" fill="#fff"/>
      <path id="Path_21" data-name="Path 21" d="M705.91,725.94a12.118,12.118,0,0,1-2.55-.25,12.481,12.481,0,0,1-2.19-.68,13.414,13.414,0,0,1-1.78-.92,11.152,11.152,0,0,1-1.38-1,.37.37,0,0,1,0-.6l.93-1.06a.42.42,0,0,1,.6,0,11.638,11.638,0,0,0,2.84,1.68,9.7,9.7,0,0,0,3.74.7,6.21,6.21,0,0,0,4-1.06,3.49,3.49,0,0,0,1.3-2.85,4.38,4.38,0,0,0-.19-1.36,2.341,2.341,0,0,0-.72-1,4,4,0,0,0-1.43-.72,14.471,14.471,0,0,0-2.29-.45l-2-.21a7.72,7.72,0,0,1-4.37-1.63,4.75,4.75,0,0,1-1.53-3.76,5.34,5.34,0,0,1,1.89-4.36,8.06,8.06,0,0,1,5.24-1.54,12,12,0,0,1,3.8.57,12.431,12.431,0,0,1,3,1.38.37.37,0,0,1,.09.59l-.76,1a.4.4,0,0,1-.6.13,11.407,11.407,0,0,0-2.48-1.08,10,10,0,0,0-3.13-.49,5.58,5.58,0,0,0-3.52.95,3.24,3.24,0,0,0-1.19,2.66,2.79,2.79,0,0,0,1,2.31,7.17,7.17,0,0,0,3.63,1.09l2,.21a7.33,7.33,0,0,1,4.42,1.68,5,5,0,0,1,1.44,3.75,5.79,5.79,0,0,1-2,4.63,8.64,8.64,0,0,1-5.81,1.69Z" fill="#fff"/>
      <path id="Path_22" data-name="Path 22" d="M405.22,675.39v-53l-23.33,53h-5.13l-23.15-52.93v52.93h-6.44V604H360l23.24,52.55L406.34,604h12.79v71.41Z" fill="#fff"/>
      <path id="Path_23" data-name="Path 23" d="M479.23,665.86a24.3,24.3,0,0,1-9.7,7,36.74,36.74,0,0,1-14,2.52,35.841,35.841,0,0,1-15.87-3.27,20.551,20.551,0,0,1-9.62-8.68c-2-3.55-2.64-7.88-2.27-13.48V604H441.5v39.11c0,3.55,0,6.63.09,9.24a35.414,35.414,0,0,0,.47,5.69,10.79,10.79,0,0,0,4.48,6.72q3.915,3,11.2,3a23.888,23.888,0,0,0,10.17-2.05q4.76-2.1,6.72-5a14.18,14.18,0,0,0,2.8-6.07,66.074,66.074,0,0,0,.93-11V604h6.44v39.95a77.91,77.91,0,0,1-1,12.88,20.77,20.77,0,0,1-4.57,9.03Z" fill="#fff"/>
      <path id="Path_24" data-name="Path 24" d="M544.66,659.43l15.86,16H541.3l-11.14-11.78s-2.12-2.13-3.42-3.53l-17.83-17.74-2.33,2.24v30.81H492.67V604h13.91v31.64l16.05-14.74a1.93,1.93,0,0,1,.56-.75L541.11,604h9.43L534.2,619.2c-1.21,1.12-2.42,2.42-4,3.82l-1.49,1.68-9.52,8.59,23.52,24C543.26,657.84,544.32,659.09,544.66,659.43Z" fill="#fff"/>
      <path id="Path_25" data-name="Path 25" d="M594.17,647.2v28.19H580.35V647.85L553,604h17.18l20.62,35.66L611.34,604h9Z" fill="#fff"/>
      <path id="Path_26" data-name="Path 26" d="M645.59,610.42h-6.72v24.27h19.32v6.44H638.87v34.26H625V604h43.31v6.44Z" fill="#fff"/>
      <path id="Path_27" data-name="Path 27" d="M713.68,647.2v28.19H699.86V647.85L672.51,604h17.18l20.63,35.66L730.85,604h9Z" fill="#fff"/>
    </g>
    <g id="Group_1" data-name="Group 1">
      <path id="Path_28" data-name="Path 28" d="M616.62,344.07l-.19-.16a112,112,0,0,0-71.57-29.8,1.136,1.136,0,0,0-.26,0,1.762,1.762,0,0,0-.4,0H544c.15,1.82.26,3.65.35,5.49a16.862,16.862,0,0,0,.06,1.73,13.354,13.354,0,0,1,0,1.55V325c0,2.26,0,4.55-.1,6.81,0,1-.08,1.92-.13,2.88-.1,1.88-.25,3.75-.43,5.63-.26,2.8-.62,5.58-1,8.37a149.321,149.321,0,0,1-21.17,57.11l-.94-.91-.16-.16c-.77-.75-1.54-1.5-2.28-2.28-.1-.1-.2-.22-.3-.31-.37-.38-.73-.75-1.09-1.14-.64-.67-1.27-1.36-1.89-2s-1-1.13-1.52-1.7l-2.15-2.47c-.86-1.05-1.72-2.09-2.57-3.15a150.08,150.08,0,0,1-28.29-57.52c-.21-.89-.42-1.79-.6-2.67-.72.44-1.43.9-2.12,1.39.1.58.2,1.2.29,1.79a187.7,187.7,0,0,0,22.46,62.63,190,190,0,0,0,12.35,18.71c.29.41.6.81.91,1.22A146.56,146.56,0,0,1,436,469.54a112.082,112.082,0,0,0,14.91,25.65c.41.55.83,1.1,1.27,1.64A112.51,112.51,0,1,0,616.62,344.07Zm-70.83-11.88v-1.1C545.78,331.46,545.78,331.84,545.79,332.19Z" fill="url(#linear-gradient)"/>
      <path id="Path_29" data-name="Path 29" d="M542.82,348.65a149.64,149.64,0,0,1-21.17,57.11,142.386,142.386,0,0,1-12.91-14.15,150,150,0,0,1-28.28-57.53c-.21-.89-.42-1.79-.62-2.67A112,112,0,0,1,540,314c1.35,0,2.69,0,4,.08A149.829,149.829,0,0,1,542.82,348.65Z" fill="#3178dd"/>
      <path id="Path_30" data-name="Path 30" d="M513.74,417.15A146.56,146.56,0,0,1,436,469.54l-.88-2.17A112.64,112.64,0,0,1,477.73,332.8c.1.58.2,1.2.29,1.79a187.7,187.7,0,0,0,22.46,62.63,190,190,0,0,0,12.35,18.71C513.12,416.34,513.43,416.74,513.74,417.15Z" fill="#2453b2"/>
      <path id="Path_31" data-name="Path 31" d="M612.7,361.31q-.35-7.15-1.23-14.27.84,7,1,14.11a152.924,152.924,0,0,1-2,29.39,149.911,149.911,0,0,1-30.15,68.31q-2.39,3-4.9,5.88A141.2,141.2,0,0,1,559.9,480a146.46,146.46,0,0,1-89.47,34.85,112.421,112.421,0,0,0,42,20.7,185.1,185.1,0,0,0,59.3-48.79Q577.19,480,582,472.7c.46-.69.91-1.37,1.35-2.07,2-3.16,4-6.37,5.79-9.65a186.3,186.3,0,0,0,19.63-51.8,179.471,179.471,0,0,0,3.7-26,185.116,185.116,0,0,0,.23-21.87Z" fill="#fff"/>
      <path id="Path_32" data-name="Path 32" d="M614.91,446.74a146.866,146.866,0,0,1-21.86-3c-2.95-.6-5.87-1.32-8.77-2.13a144.712,144.712,0,0,1-27.21-10.56,148.248,148.248,0,0,1-28.14-18.69c-2.49-2.1-4.92-4.28-7.29-6.6a144.908,144.908,0,0,1-12.9-14.16,150.079,150.079,0,0,1-28.29-57.52c-.21-.89-.42-1.79-.6-2.67-.72.44-1.43.9-2.12,1.39.1.58.2,1.2.29,1.79a187.12,187.12,0,0,0,35.72,82.56q3.72,4.92,7.86,9.65A178.848,178.848,0,0,0,545,449.41a176.707,176.707,0,0,0,18.83,13.38q5.78,3.61,11.83,6.75a184.7,184.7,0,0,0,58.14,19.08,111.061,111.061,0,0,0,17.27-44.13A149,149,0,0,1,614.91,446.74Z" fill="#fff"/>
      <path id="Path_33" data-name="Path 33" d="M544.86,314.11a1.138,1.138,0,0,0-.26,0,1.761,1.761,0,0,0-.4,0q.36,5.31.31,10.61V325a147.29,147.29,0,0,1-1.7,21.3,149.381,149.381,0,0,1-21.17,57.11c-.31.5-.61,1-.94,1.48s-.54.86-.82,1.29q-2.93,4.44-6.14,8.62l-.91,1.17A146.41,146.41,0,0,1,436,467.14c-.29.08-.58.17-.88.23l.88,2.17a112.081,112.081,0,0,0,14.91,25.65l1.29-.74h0a184.267,184.267,0,0,0,36.63-27.59A188,188,0,0,0,521.6,424.4q3.74-6.61,6.9-13.49c.15-.31.3-.63.43-.94a187.3,187.3,0,0,0,16.34-63.42c.33-4.33.51-8.69.52-13v-1.34a176.015,176.015,0,0,0-.934-18.139Z" fill="#fff"/>
    </g>
  </g>
</svg>
