<svg xmlns="http://www.w3.org/2000/svg" xmlns:xlink="http://www.w3.org/1999/xlink" width="160.467" height="172.455" viewBox="0 0 160.467 172.455">
  <defs>
    <linearGradient id="linear-gradient" y1="0.5" x2="1" y2="0.5" gradientUnits="objectBoundingBox">
      <stop offset="0" stop-color="#8cc63f"/>
      <stop offset="0.54" stop-color="#8cc63f"/>
      <stop offset="1" stop-color="#80ad3a"/>
    </linearGradient>
  </defs>
  <g id="MUKYFY_Logo_Arb-02" data-name="MUKYFY Logo Arb-02" transform="translate(0 58)">
    <g id="Group_10064" data-name="Group 10064" transform="translate(39.987 -58)">
      <g id="Group_10063" data-name="Group 10063">
        <path id="Path_3649" data-name="Path 3649" d="M505.609,329.32l-.068-.057a40.063,40.063,0,0,0-25.6-10.66.408.408,0,0,0-.093,0,.631.631,0,0,0-.143,0h-.071c.054.651.093,1.306.125,1.964a6.043,6.043,0,0,0,.021.619,4.773,4.773,0,0,1,0,.555v.762c0,.808,0,1.628-.036,2.436,0,.358-.029.687-.047,1.03-.036.672-.089,1.341-.154,2.014-.093,1-.222,2-.358,2.994a53.414,53.414,0,0,1-7.573,20.429l-.336-.326-.057-.057c-.275-.268-.551-.536-.816-.816-.036-.036-.071-.079-.107-.111-.132-.136-.261-.268-.39-.408-.229-.24-.454-.487-.676-.715s-.358-.4-.544-.608l-.769-.884c-.308-.376-.615-.748-.919-1.127a53.684,53.684,0,0,1-10.12-20.575c-.075-.318-.15-.64-.215-.955-.258.157-.512.322-.758.5.036.207.072.429.1.64a67.143,67.143,0,0,0,8.034,22.4,67.975,67.975,0,0,0,4.418,6.693c.1.147.215.29.325.436A52.426,52.426,0,0,1,441,374.187a40.093,40.093,0,0,0,5.333,9.175c.147.2.3.394.454.587a40.246,40.246,0,1,0,58.822-54.629Zm-25.336-4.25v-.4C480.269,324.823,480.269,324.945,480.273,325.07Z" transform="translate(-437.952 -318.556)" fill="url(#linear-gradient)"/>
        <path id="Path_3650" data-name="Path 3650" d="M507.369,330.882A53.527,53.527,0,0,1,499.8,351.31a50.936,50.936,0,0,1-4.618-5.062,53.656,53.656,0,0,1-10.116-20.579c-.075-.318-.15-.64-.222-.955a40.064,40.064,0,0,1,21.52-6.235c.483,0,.962,0,1.431.029A53.6,53.6,0,0,1,507.369,330.882Z" transform="translate(-466.11 -318.48)" fill="#3178dd"/>
        <path id="Path_3651" data-name="Path 3651" d="M463.335,367.473A52.426,52.426,0,0,1,435.527,386.2l-.315-.776A40.292,40.292,0,0,1,450.454,337.3c.036.208.072.429.1.64a67.143,67.143,0,0,0,8.034,22.4,67.971,67.971,0,0,0,4.418,6.693C463.113,367.183,463.224,367.326,463.335,367.473Z" transform="translate(-432.478 -330.568)" fill="#2453b2"/>
      </g>
      <path id="Path_3652" data-name="Path 3652" d="M526.3,356.645q-.125-2.558-.44-5.1.3,2.5.358,5.047A54.7,54.7,0,0,1,525.5,367.1a53.624,53.624,0,0,1-10.785,24.435q-.855,1.073-1.753,2.1a50.528,50.528,0,0,1-5.562,5.473,52.391,52.391,0,0,1-32,12.466,40.214,40.214,0,0,0,15.024,7.4,66.212,66.212,0,0,0,21.212-17.453q1.957-2.436,3.67-5.04c.164-.247.325-.49.483-.74.715-1.13,1.431-2.279,2.071-3.452a66.648,66.648,0,0,0,7.022-18.529,64.219,64.219,0,0,0,1.323-9.3A66.247,66.247,0,0,0,526.3,356.645Z" transform="translate(-460.046 -339.714)" fill="#fff"/>
      <path id="Path_3653" data-name="Path 3653" d="M531.8,377.165a52.543,52.543,0,0,1-7.819-1.073c-1.055-.215-2.1-.472-3.137-.762a51.764,51.764,0,0,1-9.733-3.777,53.036,53.036,0,0,1-10.066-6.686c-.891-.751-1.76-1.531-2.608-2.361a51.816,51.816,0,0,1-4.614-5.065,53.686,53.686,0,0,1-10.12-20.575c-.075-.318-.15-.64-.215-.955-.258.157-.511.322-.758.5.036.207.072.429.1.64a66.937,66.937,0,0,0,12.777,29.532q1.331,1.76,2.812,3.452a63.972,63.972,0,0,0,8.37,8.088,63.19,63.19,0,0,0,6.736,4.786q2.068,1.291,4.232,2.415a66.071,66.071,0,0,0,20.8,6.825,39.727,39.727,0,0,0,6.17-15.782A53.3,53.3,0,0,1,531.8,377.165Z" transform="translate(-464.754 -329.675)" fill="#fff"/>
      <path id="Path_3654" data-name="Path 3654" d="M479.375,318.585a.409.409,0,0,0-.093,0,.623.623,0,0,0-.143,0q.129,1.9.111,3.8v.1a52.692,52.692,0,0,1-.608,7.619,53.435,53.435,0,0,1-7.573,20.429c-.111.179-.218.358-.336.529s-.193.308-.293.461q-1.048,1.588-2.2,3.083l-.326.419a52.372,52.372,0,0,1-27.483,18.3c-.1.029-.208.061-.315.082l.315.762a40.092,40.092,0,0,0,5.333,9.175l.461-.265h0a65.908,65.908,0,0,0,13.1-9.869,67.245,67.245,0,0,0,11.722-15.174q1.338-2.364,2.468-4.825c.054-.111.107-.225.154-.336a67,67,0,0,0,5.845-22.686c.118-1.549.182-3.109.186-4.65v-.479a62.967,62.967,0,0,0-.334-6.488Z" transform="translate(-437.386 -318.539)" fill="#fff"/>
    </g>
    <g id="Group_10067" data-name="Group 10067" transform="translate(0 38.903)">
      <g id="Group_10065" data-name="Group 10065" transform="translate(0 0)">
        <path id="Path_3655" data-name="Path 3655" d="M366.639,623.488a3.911,3.911,0,0,1,1.947,4.475V628a14.461,14.461,0,0,0-.448,3.63,10.689,10.689,0,0,0,.278,2.238,4.171,4.171,0,0,0,.931,1.83,4.654,4.654,0,0,0,1.929,1.244,9.689,9.689,0,0,0,3.271.448l8.669-.031v-9.528q0-5.531,2.994-8.5t8.5-2.976l5.988.13a3.015,3.015,0,0,1,1.343.313,3.652,3.652,0,0,1,1.817,1.929,3.536,3.536,0,0,1,.26,1.343v17.3h2.086v7.026h-5.572a3.39,3.39,0,0,1-1.342-.277,3.552,3.552,0,0,1-1.115-.752,3.627,3.627,0,0,1-.752-1.114,3.386,3.386,0,0,1-.277-1.342V623.4l-2.551-.067a8.336,8.336,0,0,0-2.126.228,2.808,2.808,0,0,0-1.343.752,3.079,3.079,0,0,0-.7,1.374,3.652,3.652,0,0,0-.215,1.41l.036,13.466a4.565,4.565,0,0,1-.246,1.49,3.412,3.412,0,0,1-1.817,2.027,3.4,3.4,0,0,1-1.472.309H374.529a15.768,15.768,0,0,1-6.266-1.11,11.6,11.6,0,0,1-4.14-2.913,10.956,10.956,0,0,1-2.287-4.1,16.111,16.111,0,0,1-.707-4.726,20.632,20.632,0,0,1,.183-2.734,21,21,0,0,1,.506-2.618,21.9,21.9,0,0,1,.752-2.367h0a1.956,1.956,0,0,1,2.726-1.038Zm3.133,29.179a3.735,3.735,0,0,1,2.291-3.486,3.678,3.678,0,0,1,1.472-.291,3.768,3.768,0,0,1,3.8,3.791,3.739,3.739,0,0,1-2.3,3.469,3.817,3.817,0,0,1-1.49.3,3.712,3.712,0,0,1-3.75-3.777Zm8.767,0a3.735,3.735,0,0,1,2.291-3.486,3.678,3.678,0,0,1,1.472-.291,3.768,3.768,0,0,1,3.831,3.777,3.684,3.684,0,0,1-.3,1.472,3.766,3.766,0,0,1-.8,1.195,3.723,3.723,0,0,1-1.213.8,3.776,3.776,0,0,1-1.486.3,3.817,3.817,0,0,1-3.786-3.764Z" transform="translate(-361.13 -605.179)" fill="#fff"/>
        <path id="Path_3656" data-name="Path 3656" d="M460.42,630.6v-7.026h6.713a13.989,13.989,0,0,1-1.159-3.321,16.752,16.752,0,0,1-.38-3.58,16.405,16.405,0,0,1,.837-5.169,13.553,13.553,0,0,1,2.47-4.475,12.238,12.238,0,0,1,4.055-3.133,12.485,12.485,0,0,1,5.594-1.195h8.6a4.308,4.308,0,0,1,1.736.358,4.5,4.5,0,0,1,2.372,2.439,4.565,4.565,0,0,1,.34,1.75v16.326h3.133V630.6Zm12.732-10.862a6.149,6.149,0,0,0,1.929,2.734,5.312,5.312,0,0,0,3.468,1.1H484.6V609.694H478.55a5.478,5.478,0,0,0-2.649.609,5.553,5.553,0,0,0-1.848,1.6,7.025,7.025,0,0,0-1.1,2.238,8.919,8.919,0,0,0-.358,2.515,9.073,9.073,0,0,0,.13,1.557,7.53,7.53,0,0,0,.425,1.526Zm3.106-24.565a3.735,3.735,0,0,1,2.291-3.486,3.684,3.684,0,0,1,1.472-.3,3.768,3.768,0,0,1,3.8,3.8,3.682,3.682,0,0,1-.3,1.472,3.735,3.735,0,0,1-3.486,2.291,3.79,3.79,0,0,1-3.777-3.773Z" transform="translate(-415.984 -591.39)" fill="#fff"/>
        <path id="Path_3657" data-name="Path 3657" d="M538.577,638.826V622.5a3.5,3.5,0,0,1,3.5-3.5h0a3.5,3.5,0,0,1,3.5,3.5v16.326H550.5v7.026H534.567v-7.026ZM533.569,654.8a3.821,3.821,0,0,1,.3-1.49,3.739,3.739,0,0,1,3.468-2.3,3.777,3.777,0,0,1,1.486.3,3.65,3.65,0,0,1,1.213.8,3.725,3.725,0,0,1,.8,1.208,3.821,3.821,0,0,1,.3,1.49,3.7,3.7,0,0,1-.3,1.472,3.794,3.794,0,0,1-.8,1.19,3.653,3.653,0,0,1-1.213.8,3.775,3.775,0,0,1-4.972-1.991A3.7,3.7,0,0,1,533.569,654.8Zm8.767,0a3.823,3.823,0,0,1,.3-1.49,3.658,3.658,0,0,1,.8-1.208,3.852,3.852,0,0,1,4.171-.8,3.648,3.648,0,0,1,1.213.8,3.724,3.724,0,0,1,.8,1.208,3.82,3.82,0,0,1,.3,1.49,3.7,3.7,0,0,1-.3,1.472,3.8,3.8,0,0,1-.8,1.19,3.654,3.654,0,0,1-1.213.8,3.764,3.764,0,0,1-5.25-3.464Z" transform="translate(-456.396 -606.643)" fill="#fff"/>
        <path id="Path_3658" data-name="Path 3658" d="M570.489,623.909h26.038V620.5a25.822,25.822,0,0,0-.112-2.779,2.685,2.685,0,0,0-.524-1.455,1.917,1.917,0,0,0-1.244-.591,17.748,17.748,0,0,0-2.273-.112l-16.993-.067a5.6,5.6,0,0,1-3.254-.85,4.507,4.507,0,0,1-1.719-2.238,5.816,5.816,0,0,1-.389-2.157,5.99,5.99,0,0,1,.063-.851,9.772,9.772,0,0,1,.985-3.339,21.26,21.26,0,0,1,4.695-6.266,27.914,27.914,0,0,1,6.489-4.475,30.591,30.591,0,0,1,7.528-2.6,31.731,31.731,0,0,1,6.637-.725h0a1.012,1.012,0,0,1,1.016,1.047l-.134,4.108a2.041,2.041,0,0,1-1.915,1.969c-1.258.076-2.846.2-3.741.367a24.729,24.729,0,0,0-5.559,1.75,21.228,21.228,0,0,0-4.842,3.007,14.172,14.172,0,0,0-3.5,4.27h12.41q2.618,0,4.628.081a20.5,20.5,0,0,1,3.5.412,7.261,7.261,0,0,1,2.506,1.011,5.059,5.059,0,0,1,1.633,1.884,9.64,9.64,0,0,1,.895,3.007,30.227,30.227,0,0,1,.278,4.435v4.56h6.019v7.026H570.489Z" transform="translate(-476.534 -591.727)" fill="#fff"/>
        <path id="Path_3659" data-name="Path 3659" d="M655,637.494h2.108V629.51a10.991,10.991,0,0,1,.448-3.075,13.962,13.962,0,0,1,1.311-3.043,14.856,14.856,0,0,1,2.045-2.748,13.354,13.354,0,0,1,5.773-3.629,11.068,11.068,0,0,1,3.074-.425h.425l9.913.13a3.385,3.385,0,0,1,1.342.277,3.629,3.629,0,0,1,1.11.752,3.725,3.725,0,0,1,.756,1.1,3.3,3.3,0,0,1,.277,1.343V640.7a4.569,4.569,0,0,1-.246,1.49,3.459,3.459,0,0,1-1.79,2.027,3.308,3.308,0,0,1-1.454.309H655Zm9.143,0h12.428V623.688l-3.746-.049c-.859,0-1.495-.022-1.9-.031h-.9a5.039,5.039,0,0,0-2.175.506,7.121,7.121,0,0,0-1.9,1.343,6.323,6.323,0,0,0-1.343,1.884,5.133,5.133,0,0,0-.488,2.175Z" transform="translate(-523.482 -605.312)" fill="#fff"/>
      </g>
      <g id="Group_10066" data-name="Group 10066" transform="translate(18.654 58.389)">
        <path id="Path_3660" data-name="Path 3660" d="M384,756.319a.17.17,0,0,1,.2-.192h.958a.17.17,0,0,1,.2.192v1.311a.175.175,0,0,1-.2.2h-.958a.175.175,0,0,1-.2-.2Z" transform="translate(-383.996 -744.52)" fill="#fff"/>
        <path id="Path_3665" data-name="Path 3665" d="M436.083,758.564a.7.7,0,0,1-.51-.134.68.68,0,0,1-.116-.448q0-.389.107-.448a1.125,1.125,0,0,1,.519-.072h1.978a1.5,1.5,0,0,1,.586.089.372.372,0,0,1,.2.38.564.564,0,0,1-.188.5,1.082,1.082,0,0,1-.6.125Z" transform="translate(-412.424 -745.257)" fill="#fff"/>
        <path id="Path_3666" data-name="Path 3666" d="M440.372,758.564a.684.684,0,0,1-.51-.134.653.653,0,0,1-.116-.447q0-.389.107-.448a1.116,1.116,0,0,1,.519-.072h1.974a1.5,1.5,0,0,1,.586.089.371.371,0,0,1,.2.38.578.578,0,0,1-.183.5,1.1,1.1,0,0,1-.6.125Z" transform="translate(-414.793 -745.256)" fill="#fff"/>
        <path id="Path_3661" data-name="Path 3661" d="M390.908,756.32a.17.17,0,0,1,.192-.192h.962a.17.17,0,0,1,.193.192v1.311c0,.134-.063.2-.193.2H391.1c-.13,0-.192-.063-.192-.2Z" transform="translate(-387.814 -744.521)" fill="#fff"/>
        <path id="Path_3678" data-name="Path 3678" d="M663.623,758.565a.676.676,0,0,1-.506-.134.653.653,0,0,1-.121-.448q0-.389.107-.448a1.138,1.138,0,0,1,.519-.072H665.6a1.5,1.5,0,0,1,.586.09.371.371,0,0,1,.2.38.564.564,0,0,1-.188.5,1.071,1.071,0,0,1-.6.125Z" transform="translate(-538.132 -745.257)" fill="#fff"/>
        <path id="Path_3662" data-name="Path 3662" d="M398.728,756.319a.17.17,0,0,1,.2-.192h.958a.17.17,0,0,1,.2.192v1.311a.175.175,0,0,1-.2.2h-.958a.175.175,0,0,1-.2-.2Z" transform="translate(-392.134 -744.52)" fill="#fff"/>
        <path id="Path_3663" data-name="Path 3663" d="M405.175,754.029a.174.174,0,0,1-.2-.2v-.7a.175.175,0,0,1,.2-.2h.448a1.468,1.468,0,0,0,1.642-1.66V742.5a.175.175,0,0,1,.2-.2h.685a.174.174,0,0,1,.2.2v8.646a3.043,3.043,0,0,1-.685,2.135,2.8,2.8,0,0,1-2.153.743Z" transform="translate(-395.587 -736.886)" fill="#fff"/>
        <path id="Path_3664" data-name="Path 3664" d="M419.925,753.6c-.13,0-.193-.063-.193-.2v-.7a.17.17,0,0,1,.193-.2h2.39a2.313,2.313,0,0,0,1.419-.354,1.707,1.707,0,0,0,.448-1.405v-.98H421.97a5.129,5.129,0,0,1-1.486-.2,2.815,2.815,0,0,1-1.146-.644,2.9,2.9,0,0,1-.734-1.2,6.691,6.691,0,0,1,.04-3.741,3.755,3.755,0,0,1,.752-1.343,3.214,3.214,0,0,1,1.115-.819,3.307,3.307,0,0,1,1.378-.286,3.1,3.1,0,0,1,2.573,1.038,5.039,5.039,0,0,1,.832,3.168v2.936h1.369a1.342,1.342,0,0,1,.591.1.4.4,0,0,1,.192.394c0,.26-.058.425-.184.5a1.252,1.252,0,0,1-.6.107H425.3v.958a3.141,3.141,0,0,1-.636,2.2,2.627,2.627,0,0,1-2,.676Zm1.956-10.965a2.09,2.09,0,0,0-1.728.823,3.844,3.844,0,0,0-.658,2.443,4.923,4.923,0,0,0,.148,1.311,1.921,1.921,0,0,0,.448.85,1.738,1.738,0,0,0,.783.448,3.616,3.616,0,0,0,1.092.148h2.211v-2.891a4.286,4.286,0,0,0-.528-2.327,1.942,1.942,0,0,0-1.768-.806Z" transform="translate(-402.98 -736.457)" fill="#fff"/>
        <path id="Path_3667" data-name="Path 3667" d="M456.851,742.307a1.924,1.924,0,0,1-.537.658,2.239,2.239,0,0,1-.752.363,5.113,5.113,0,0,1-1,.148c-.38,0-.8.027-1.271.027h-5.818a1.539,1.539,0,0,1-.336-.04.649.649,0,0,1-.291-.134,1.466,1.466,0,0,1-.448.134,3.775,3.775,0,0,1-.609.04H444.5a1.346,1.346,0,0,1-.586-.1c-.13-.063-.193-.215-.193-.448q0-.55.779-.551h1.195a1.984,1.984,0,0,0,.559-.067.608.608,0,0,0,.349-.264,1.342,1.342,0,0,0,.179-.519,5.95,5.95,0,0,0,.049-.833V730.39a.17.17,0,0,1,.192-.193h.707a.17.17,0,0,1,.2.193v6.2a12.619,12.619,0,0,1,2.211-.935,8.013,8.013,0,0,1,2.5-.394,5.715,5.715,0,0,1,2.372.421,3.619,3.619,0,0,1,1.4,1.088,3.7,3.7,0,0,1,.667,1.486,8.377,8.377,0,0,1,.166,1.607v1.074a1.257,1.257,0,0,0,.515,1.105,2.385,2.385,0,0,0,1.383.363h.1a1.254,1.254,0,0,1,.586.107.4.4,0,0,1,.2.385c0,.3-.063.474-.188.528a1.736,1.736,0,0,1-.6.076,4.5,4.5,0,0,1-1.508-.233A1.343,1.343,0,0,1,456.851,742.307Zm-3.052.1a7.038,7.038,0,0,0,1.061-.067,1.236,1.236,0,0,0,.694-.331,1.576,1.576,0,0,0,.38-.774,6.34,6.34,0,0,0,.116-1.392,6.219,6.219,0,0,0-.157-1.445,2.6,2.6,0,0,0-.537-1.1,2.46,2.46,0,0,0-1.016-.694,4.437,4.437,0,0,0-1.6-.246,7.338,7.338,0,0,0-1.311.125,11.792,11.792,0,0,0-1.289.327,10.5,10.5,0,0,0-1.2.447c-.38.17-.716.331-1.016.488v3.428a4.023,4.023,0,0,1-.063.653,2.115,2.115,0,0,1-.157.577Z" transform="translate(-416.991 -730.195)" fill="#fff"/>
        <path id="Path_3668" data-name="Path 3668" d="M481.081,743.352a1.258,1.258,0,0,0,.519,1.105,2.359,2.359,0,0,0,1.378.362h.121a1.268,1.268,0,0,1,.586.108.447.447,0,0,1,.192.421.514.514,0,0,1-.175.448,1.075,1.075,0,0,1-.6.125,4.794,4.794,0,0,1-1.41-.184,1.382,1.382,0,0,1-.864-.855,2.042,2.042,0,0,1-.627.756,1.925,1.925,0,0,1-1.132.282h-1.584a1.034,1.034,0,0,1-.542-.108.47.47,0,0,1-.166-.421.546.546,0,0,1,.157-.447.966.966,0,0,1,.551-.116h1.468a1.413,1.413,0,0,0,.586-.1.622.622,0,0,0,.313-.3,1.607,1.607,0,0,0,.125-.519c0-.21.031-.448.031-.725v-4.959a.17.17,0,0,1,.193-.2h.7a.175.175,0,0,1,.2.2Zm-2.367-7.25a.17.17,0,0,1-.2-.193v-1.15a.17.17,0,0,1,.2-.192h1.016c.134,0,.2.063.2.192v1.177c0,.13-.063.193-.2.193Zm2.506,0a.17.17,0,0,1-.2-.193v-1.15a.17.17,0,0,1,.2-.192h1.025a.17.17,0,0,1,.2.192v1.177a.17.17,0,0,1-.2.193Z" transform="translate(-435.251 -732.609)" fill="#fff"/>
        <path id="Path_3669" data-name="Path 3669" d="M489.943,743.5a1.342,1.342,0,0,1-.591-.1c-.13-.063-.192-.206-.192-.448s.058-.4.183-.448a1.343,1.343,0,0,1,.6-.1h1.428a1.1,1.1,0,0,0,.752-.233,1.043,1.043,0,0,0,.264-.805V730.39a.17.17,0,0,1,.2-.193h.685a.17.17,0,0,1,.2.193v10.647a5.628,5.628,0,0,1-.1,1.1,1.746,1.746,0,0,1-.354.774,1.522,1.522,0,0,1-.694.448,3.692,3.692,0,0,1-1.146.148Z" transform="translate(-442.095 -730.195)" fill="#fff"/>
        <path id="Path_3670" data-name="Path 3670" d="M506.406,743.305a.175.175,0,0,1-.2.2h-.685a.175.175,0,0,1-.2-.2V730.39a.17.17,0,0,1,.2-.193h.685a.17.17,0,0,1,.2.193Z" transform="translate(-451.026 -730.195)" fill="#fff"/>
        <path id="Path_3671" data-name="Path 3671" d="M537.425,747.727a1.142,1.142,0,0,0,.542,1.038,2.565,2.565,0,0,0,1.343.331h.116a1.254,1.254,0,0,1,.586.107.4.4,0,0,1,.2.385c0,.3-.063.474-.188.528a1.719,1.719,0,0,1-.6.076,3.663,3.663,0,0,1-1.343-.215,1.79,1.79,0,0,1-.9-.765,1.756,1.756,0,0,1-1.839.98h-9.291a2.564,2.564,0,0,1-1.763-.488,2.206,2.206,0,0,1-.528-1.665v-4.288a.17.17,0,0,1,.2-.192h.685a.17.17,0,0,1,.2.192v4.305a1.163,1.163,0,0,0,.224.806.958.958,0,0,0,.716.233h9.609a1.03,1.03,0,0,0,.734-.224,1.159,1.159,0,0,0,.224-.814V742.5a.175.175,0,0,1,.2-.2h.685a.17.17,0,0,1,.192.2Zm-7.434,5.675a.174.174,0,0,1-.2-.2v-1.19a.175.175,0,0,1,.2-.2h1.034a.175.175,0,0,1,.2.2v1.172a.174.174,0,0,1-.2.2Z" transform="translate(-461.208 -736.886)" fill="#fff"/>
        <path id="Path_3672" data-name="Path 3672" d="M559.42,736.982a.175.175,0,0,1-.2-.2v-.725c0-.116.022-.175.058-.175l4.346-5.106c.089-.108.174-.125.255-.058l.568.448c.13.094.157.183.076.273l-3.755,4.444h2.238a4.48,4.48,0,0,1,1.343.2,2.569,2.569,0,0,1,1.714,1.62,4.326,4.326,0,0,1,.233,1.508v1.213a8.162,8.162,0,0,1-.134,1.625,2.331,2.331,0,0,1-.448,1.029,1.715,1.715,0,0,1-.841.537,4.624,4.624,0,0,1-1.3.157h-5.737a1.24,1.24,0,0,1-.586-.107.448.448,0,0,1-.2-.448c0-.237.063-.385.183-.448a1.342,1.342,0,0,1,.6-.1h5.518a3.672,3.672,0,0,0,.949-.1,1.007,1.007,0,0,0,.546-.322,1.2,1.2,0,0,0,.246-.6,6.257,6.257,0,0,0,.058-.949v-1.549a2.117,2.117,0,0,0-.586-1.633,2.744,2.744,0,0,0-1.88-.537Z" transform="translate(-479.6 -730.464)" fill="#fff"/>
        <path id="Path_3673" data-name="Path 3673" d="M584.649,743.306c0,.134-.063.2-.193.2h-.7a.17.17,0,0,1-.2-.2V730.39c0-.13.063-.193.2-.193h.685a.17.17,0,0,1,.193.193Z" transform="translate(-494.245 -730.195)" fill="#fff"/>
        <path id="Path_3674" data-name="Path 3674" d="M593.695,753.605c-.13,0-.193-.063-.193-.2v-.7a.17.17,0,0,1,.193-.2H596.1a2.314,2.314,0,0,0,1.419-.354,1.708,1.708,0,0,0,.447-1.405v-.98h-2.211a5.139,5.139,0,0,1-1.49-.2,2.814,2.814,0,0,1-1.146-.645,2.9,2.9,0,0,1-.734-1.2,6.8,6.8,0,0,1,.022-3.737,3.889,3.889,0,0,1,.752-1.343,3.28,3.28,0,0,1,2.5-1.105,3.11,3.11,0,0,1,2.573,1.038,5.012,5.012,0,0,1,.828,3.168v2.936h1.374a1.344,1.344,0,0,1,.586.1.4.4,0,0,1,.193.394c0,.26-.063.425-.184.5a1.244,1.244,0,0,1-.6.108h-1.378v.958a3.141,3.141,0,0,1-.636,2.2,2.627,2.627,0,0,1-2.005.676Zm1.96-10.965a2.094,2.094,0,0,0-1.732.823,3.845,3.845,0,0,0-.658,2.444,4.924,4.924,0,0,0,.148,1.311,1.919,1.919,0,0,0,.447.85,1.735,1.735,0,0,0,.783.448,3.653,3.653,0,0,0,1.1.148h2.211v-2.891a4.328,4.328,0,0,0-.528-2.327A1.956,1.956,0,0,0,595.655,742.641Z" transform="translate(-498.985 -736.462)" fill="#fff"/>
        <path id="Path_3675" data-name="Path 3675" d="M609.7,745.917a1.757,1.757,0,0,1-.591-.076c-.13-.054-.192-.183-.192-.394a.578.578,0,0,1,.183-.51,1.187,1.187,0,0,1,.6-.116H611.1a.993.993,0,0,0,.716-.224,1.136,1.136,0,0,0,.224-.815v-5.554a.174.174,0,0,1,.2-.2h.7a.174.174,0,0,1,.2.2v5.223a2.762,2.762,0,0,1-.528,1.871,2.238,2.238,0,0,1-1.763.6Zm1.213-9.814c-.134,0-.2-.063-.2-.193v-1.15c0-.13.063-.192.2-.192h1.016a.17.17,0,0,1,.2.192v1.177a.17.17,0,0,1-.2.193Zm2.5,0a.17.17,0,0,1-.2-.193v-1.15a.17.17,0,0,1,.2-.192h1.02a.17.17,0,0,1,.192.192v1.177a.17.17,0,0,1-.192.193Z" transform="translate(-508.251 -732.609)" fill="#fff"/>
        <path id="Path_3676" data-name="Path 3676" d="M637.969,746.055a3.2,3.2,0,0,1-2.564-1.02,4.769,4.769,0,0,1-.9-3.186q0-4.171,3.446-4.171t3.442,4.171a4.823,4.823,0,0,1-.873,3.186A3.186,3.186,0,0,1,637.969,746.055Zm0-7.281a1.969,1.969,0,0,0-1.79.832,4.136,4.136,0,0,0-.555,2.314,3.894,3.894,0,0,0,.551,2.3,2.041,2.041,0,0,0,1.79.756,2.081,2.081,0,0,0,1.79-.756,3.857,3.857,0,0,0,.555-2.3,4.1,4.1,0,0,0-.555-2.292,2,2,0,0,0-1.786-.841Zm-1.763-2.685a.17.17,0,0,1-.2-.192v-1.137a.17.17,0,0,1,.2-.192h1.016a.17.17,0,0,1,.2.192v1.177a.17.17,0,0,1-.2.193Zm2.506,0c-.134,0-.2-.063-.2-.192v-1.137c0-.13.063-.192.2-.192h1.016a.17.17,0,0,1,.2.192v1.177a.17.17,0,0,1-.2.193Z" transform="translate(-522.396 -732.609)" fill="#fff"/>
        <path id="Path_3677" data-name="Path 3677" d="M655.843,747.629a1.248,1.248,0,0,0,.519,1.105,2.348,2.348,0,0,0,1.378.363h.1a1.25,1.25,0,0,1,.586.107.4.4,0,0,1,.193.385c0,.3-.058.474-.184.528a1.739,1.739,0,0,1-.6.076,5.7,5.7,0,0,1-1.137-.1,1.53,1.53,0,0,1-.859-.506v1.562a3.043,3.043,0,0,1-.685,2.135,2.8,2.8,0,0,1-2.153.743h-.336c-.13,0-.192-.063-.192-.2v-.7a.17.17,0,0,1,.192-.2h.448a1.468,1.468,0,0,0,1.642-1.66V742.5a.175.175,0,0,1,.2-.2h.685a.174.174,0,0,1,.2.2Z" transform="translate(-532.321 -736.886)" fill="#fff"/>
        <path id="Path_3679" data-name="Path 3679" d="M671.282,747.629a1.257,1.257,0,0,0,.519,1.105,2.359,2.359,0,0,0,1.378.363h.121a1.253,1.253,0,0,1,.586.107.447.447,0,0,1,.193.421.515.515,0,0,1-.175.448,1.064,1.064,0,0,1-.6.125,4.785,4.785,0,0,1-1.41-.183,1.383,1.383,0,0,1-.864-.855,2.04,2.04,0,0,1-.627.756,1.911,1.911,0,0,1-1.132.282h-1.508a1.275,1.275,0,0,1-.577-.107.448.448,0,0,1-.206-.421.488.488,0,0,1,.2-.448,1.186,1.186,0,0,1,.586-.116h1.387a1.422,1.422,0,0,0,.591-.1.622.622,0,0,0,.313-.3,1.606,1.606,0,0,0,.125-.519,6.978,6.978,0,0,0,.031-.725V742.5a.17.17,0,0,1,.192-.2h.685a.175.175,0,0,1,.2.2Zm-1,5.7a.174.174,0,0,1-.2-.2v-1.172a.174.174,0,0,1,.2-.2H671.3a.17.17,0,0,1,.2.2v1.172a.175.175,0,0,1-.2.2Z" transform="translate(-540.331 -736.886)" fill="#fff"/>
        <path id="Path_3680" data-name="Path 3680" d="M680.139,745.912q-.779,0-.779-.51c0-.273.058-.448.183-.5a1.489,1.489,0,0,1,.6-.089h5.912a3.46,3.46,0,0,0,.931-.1.976.976,0,0,0,.528-.34,1.285,1.285,0,0,0,.233-.636,9.482,9.482,0,0,0-.1-2.631,3.328,3.328,0,0,0-.5-1.244,2.339,2.339,0,0,0-.922-.783,3.2,3.2,0,0,0-1.405-.273,3.6,3.6,0,0,0-1.311.242,2.832,2.832,0,0,0-1.137.855c-.081.116-.17.13-.273.036l-.528-.47c-.121-.063-.139-.157-.058-.273a4.184,4.184,0,0,1,1.3-1.083,4.122,4.122,0,0,1,2.027-.448,4.375,4.375,0,0,1,2.1.448,3.325,3.325,0,0,1,1.262,1.141,4.47,4.47,0,0,1,.617,1.607,10.323,10.323,0,0,1,.166,1.821,8.331,8.331,0,0,1-.116,1.495,2.342,2.342,0,0,1-.412,1,1.678,1.678,0,0,1-.792.559,3.9,3.9,0,0,1-1.262.175Zm4.431-9.783a.175.175,0,0,1-.2-.2v-1.177a.175.175,0,0,1,.2-.2h.783a.17.17,0,0,1,.192.2v1.172a.17.17,0,0,1-.192.2Z" transform="translate(-547.174 -732.604)" fill="#fff"/>
      </g>
    </g>
  </g>
</svg>
