<svg xmlns="http://www.w3.org/2000/svg" width="50" height="50" viewBox="0 0 50 50">
  <g id="Group_43952" data-name="Group 43952" transform="translate(-231.991 -7)">
    <rect id="https___cdn.evbuc.com_images_66257593_240575924193_1_original" width="50" height="50" rx="25" transform="translate(231.991 7)" fill="#f5f5f5"/>
    <path id="_-Icon-Color" data-name="🔹-Icon-Color" d="M8.5,20a2.006,2.006,0,0,0,2-2h-4a2.006,2.006,0,0,0,2,2ZM15,14V8.5a6.5,6.5,0,0,0-5-6.32V1.5a1.5,1.5,0,0,0-3,0v.68A6.5,6.5,0,0,0,2,8.5V14L0,16v1H17V16l-2-2Z" transform="translate(248.991 21)" fill="#e0e0e0" fill-rule="evenodd"/>
  </g>
</svg>
