<svg xmlns="http://www.w3.org/2000/svg" width="85.713" height="13.127" viewBox="0 0 85.713 13.127">
  <path id="Path_6467" data-name="Path 6467" d="M13.606,16.211a1.5,1.5,0,0,1,.021.914,1.072,1.072,0,0,1-1.19.829,1.1,1.1,0,0,1-1.231-1.105v-1.19H7.914v.935c0,2.74,2.145,3.568,4.46,3.568,2.209,0,4.035-.765,4.332-2.8a5.678,5.678,0,0,0-.021-2.018c-.509-2.57-5.161-3.335-5.522-4.759a1.68,1.68,0,0,1-.021-.637,1.03,1.03,0,0,1,1.126-.829,1.049,1.049,0,0,1,1.147,1.1v.765h3.059v-.871c0-2.676-2.4-3.08-4.142-3.08-2.187,0-3.95.722-4.29,2.719a4.362,4.362,0,0,0,.021,1.657C8.615,13.9,12.969,14.618,13.606,16.211Zm39.82-.021a1.437,1.437,0,0,1,.021.892,1.06,1.06,0,0,1-1.19.807,1.08,1.08,0,0,1-1.21-1.105V15.617H47.8v.934c0,2.7,2.123,3.526,4.417,3.526,2.188,0,3.993-.743,4.291-2.782a5.58,5.58,0,0,0-.022-2c-.51-2.549-5.118-3.292-5.458-4.715A1.651,1.651,0,0,1,51,9.945a.992.992,0,0,1,1.1-.807,1.043,1.043,0,0,1,1.126,1.1v.744h3.037v-.85c0-2.634-2.379-3.059-4.1-3.059-2.145,0-3.908.722-4.248,2.7a4.234,4.234,0,0,0,.021,1.635c.552,2.486,4.863,3.208,5.479,4.78Zm25.421,1.083-.17-9.856h3.036V19.525H77.339L74.26,9.35l.17,10.174H71.413V7.417h4.545ZM23.778,8.309l-1.7,11.344H18.766L21.018,7.417h5.458l2.251,12.235H25.435L23.778,8.309Zm17.883,0L39.536,19.653h-3.1l-2.1-11.344-.085,11.344H31.191l.254-12.235h4.991l1.551,9.558,1.551-9.558h4.99L44.8,19.653H41.745L41.66,8.309ZM63.7,17.826a1.088,1.088,0,0,0,1.168-.893,3.285,3.285,0,0,0,.021-.468V7.4h3.1v8.8c0,.233-.021.679-.021.807-.213,2.295-2.018,3.038-4.269,3.038S59.648,19.292,59.436,17a4.737,4.737,0,0,1-.021-.807V7.4h3.1v9.07a3.415,3.415,0,0,0,.021.468,1.088,1.088,0,0,0,1.168.892Zm25.57-.128a1.158,1.158,0,0,0,1.253-.893,1.719,1.719,0,0,0,.021-.468V14.554H89.3V12.77h4.332v3.292a6.443,6.443,0,0,1-.042.807c-.213,2.231-2.146,3.016-4.312,3.016s-4.1-.785-4.311-3.016a6.318,6.318,0,0,1-.043-.807V10.9c0-.212.021-.595.043-.807.276-2.294,2.123-3.016,4.311-3.016,2.166,0,4.078.722,4.29,3.016a5.84,5.84,0,0,1,.021.807v.4h-3.1v-.68a2.568,2.568,0,0,0-.042-.468,1.282,1.282,0,0,0-2.442,0,2.505,2.505,0,0,0-.043.573v5.608a3.439,3.439,0,0,0,.021.468,1.214,1.214,0,0,0,1.3.892Z" transform="translate(-7.914 -7.035)" fill="#fafafa"/>
</svg>
