<svg xmlns="http://www.w3.org/2000/svg" width="30" height="30" viewBox="0 0 30 30">
  <g id="Group_43815" data-name="Group 43815" transform="translate(-1031 626)">
    <rect id="https___cdn.evbuc.com_images_66257593_240575924193_1_original" width="30" height="30" rx="15" transform="translate(1031 -626)" fill="#f5f5f5"/>
    <g id="settings" transform="translate(1035.209 -621.589)">
      <path id="Path_6625" data-name="Path 6625" d="M17.323,11.041v-.909l1.141-1a1.188,1.188,0,0,0,.226-1.515l-1.4-2.377a1.2,1.2,0,0,0-1.408-.534l-1.444.487a6.744,6.744,0,0,0-.778-.446l-.3-1.5a1.188,1.188,0,0,0-1.188-.956H9.385A1.188,1.188,0,0,0,8.2,3.251l-.3,1.5a6.821,6.821,0,0,0-.784.446L5.7,4.683a1.188,1.188,0,0,0-.38-.035,1.188,1.188,0,0,0-1.028.594l-1.4,2.377A1.188,1.188,0,0,0,3.129,9.11l1.123,1.028v.909l-1.123,1a1.188,1.188,0,0,0-.243,1.515l1.4,2.377a1.2,1.2,0,0,0,1.408.534l1.444-.487a6.744,6.744,0,0,0,.778.446l.3,1.5a1.188,1.188,0,0,0,1.188.956h2.8a1.188,1.188,0,0,0,1.188-.956l.3-1.5a6.821,6.821,0,0,0,.784-.446l1.438.487a1.2,1.2,0,0,0,1.408-.534L18.69,13.56a1.188,1.188,0,0,0-.243-1.491Zm-1.064,4.3-2.038-.689a5.264,5.264,0,0,1-1.61.933l-.421,2.133h-2.8L8.963,15.61a5.561,5.561,0,0,1-1.6-.933l-2.043.665-1.4-2.377L5.529,11.54a5.288,5.288,0,0,1,0-1.86L3.913,8.213l1.4-2.377,2.038.689a5.264,5.264,0,0,1,1.61-.933l.421-2.133h2.8l.422,2.109a5.561,5.561,0,0,1,1.6.933l2.043-.665,1.4,2.377L16.045,9.638a5.288,5.288,0,0,1,0,1.86l1.616,1.468Z" transform="translate(0)" fill="#e5e5e5"/>
      <path id="Path_6626" data-name="Path 6626" d="M14.815,18.38a3.53,3.53,0,1,1,2.531-1.034A3.565,3.565,0,0,1,14.815,18.38Zm0-5.942a2.323,2.323,0,1,0,1.7.68,2.323,2.323,0,0,0-1.7-.68Z" transform="translate(-4.028 -4.226)" fill="#e5e5e5"/>
    </g>
  </g>
</svg>
