<svg xmlns="http://www.w3.org/2000/svg" width="69.723" height="45.573" viewBox="0 0 69.723 45.573">
  <path id="shipping" d="M0,96.646c0-.013,0-.026,0-.039a1.6,1.6,0,0,1,1.605-1.57h.421L8.537,82.453a1.6,1.6,0,0,1,1.427-.862l11.112,0-.424-3.36a4.566,4.566,0,0,1,4.6-5.056H59.744a1.7,1.7,0,0,1,1.686,1.536l.346,2.769H42.126a2.239,2.239,0,0,0-2.25,2.31,2.385,2.385,0,0,0,2.371,2.31H48.8l0,.01H68.046a1.686,1.686,0,0,1,1.677,1.634,1.583,1.583,0,0,1-1.591,1.634H42.65a2.4,2.4,0,0,0-2.034,2.444,2.555,2.555,0,0,0,2.519,2.474H60.7a1.7,1.7,0,0,1,1.693,1.65,1.6,1.6,0,0,1-1.607,1.65H43.429a2.4,2.4,0,0,0-2.069,2.449,2.555,2.555,0,0,0,2.54,2.475H63.816v0H65.49a1.7,1.7,0,0,1,1.693,1.65,1.6,1.6,0,0,1-1.607,1.65H64.132l.565,5.911a4.566,4.566,0,0,1-4.6,5.056H58.848a7.2,7.2,0,0,1-7.124,5.96,7.686,7.686,0,0,1-7.436-5.96H28.74a5.268,5.268,0,0,1-3.381-1.268,4.594,4.594,0,0,1-3.22,1.268h-.256a7.2,7.2,0,0,1-7.124,5.96,7.686,7.686,0,0,1-7.436-5.96H6.3a5.42,5.42,0,0,1-5.285-4.845L.007,96.8c0-.015,0-.03,0-.045S0,96.71,0,96.687,0,96.66,0,96.646Zm51.637,18.8a4,4,0,0,0,4.018-4.125,4.264,4.264,0,0,0-4.234-4.126A4,4,0,0,0,47.4,111.32,4.263,4.263,0,0,0,51.637,115.445Zm-36.964,0a4,4,0,0,0,4.018-4.125,4.264,4.264,0,0,0-4.234-4.126,4,4,0,0,0-4.017,4.126A4.263,4.263,0,0,0,14.673,115.445ZM4.3,107.729a1.987,1.987,0,0,0,1.911,1.756h1.11a7.2,7.2,0,0,1,7.05-5.591,7.687,7.687,0,0,1,7.342,5.591h.34a1.4,1.4,0,0,0,1.054-.443,1.42,1.42,0,0,0,.348-1.1L21.374,84.889H16.6l.757,8.392a4.566,4.566,0,0,1-4.6,5.056h-9.3Z" transform="translate(0 -73.172)" fill="#ffbf1e"/>
</svg>
