<svg xmlns="http://www.w3.org/2000/svg" width="30" height="30" viewBox="0 0 30 30">
  <g id="Group_43813" data-name="Group 43813" transform="translate(-1023 512)">
    <rect id="https___cdn.evbuc.com_images_66257593_240575924193_1_original" width="30" height="30" rx="15" transform="translate(1023 -512)" fill="#f5f5f5"/>
    <g id="Group_43812" data-name="Group 43812">
      <g id="wallet" transform="translate(1027.875 -508.659)">
        <path id="Path_6623" data-name="Path 6623" d="M18.863,6.034a.892.892,0,0,0-.636-.264h-.635v-1.5a.9.9,0,0,0-.9-.9H3.768A2.643,2.643,0,0,0,1.125,6.018V16.3a2.643,2.643,0,0,0,2.643,2.643H18.191a.9.9,0,0,0,.9-.9l.035-11.377a.892.892,0,0,0-.262-.637Zm-.97,11.712H3.768A1.446,1.446,0,0,1,2.323,16.3V6.018A1.446,1.446,0,0,1,3.768,4.573H16.394v1.2H3.82v1.2H17.927Z" transform="translate(0 0)" fill="#e0e0e0"/>
        <path id="Path_6624" data-name="Path 6624" d="M27.563,18.563h1.2v1.2h-1.2Z" transform="translate(-12.366 -7.104)" fill="#e0e0e0"/>
      </g>
    </g>
  </g>
</svg>
