<svg id="air-conditioner" xmlns="http://www.w3.org/2000/svg" width="44.974" height="30.854" viewBox="0 0 44.974 30.854">
  <g id="Group_10423" data-name="Group 10423" transform="translate(0 0)">
    <g id="Group_10422" data-name="Group 10422">
      <path id="Path_6446" data-name="Path 6446" d="M41.725,74.541H1.249A2.349,2.349,0,0,0-1,77.055V93.813a2.349,2.349,0,0,0,2.249,2.514H41.725a2.349,2.349,0,0,0,2.249-2.514V77.055A2.349,2.349,0,0,0,41.725,74.541Zm.75,19.272a.753.753,0,0,1-.75.838H1.249a.753.753,0,0,1-.75-.838V77.055a.8.8,0,0,1,.75-.838H41.725a.753.753,0,0,1,.75.838V93.813Z" transform="translate(1 -74.541)" fill="#fafafa"/>
      <path id="Path_6447" data-name="Path 6447" d="M209.794,135.213h7.667a.958.958,0,0,0,0-1.917h-7.667a.958.958,0,1,0,0,1.917Z" transform="translate(-191.141 -128.232)" fill="#fafafa"/>
      <path id="Path_6448" data-name="Path 6448" d="M69.164,242.41H33.291c-.43,0-.717.383-.717.958s.287.958.717.958H69.164c.43,0,.717-.383.717-.958S69.594,242.41,69.164,242.41Z" transform="translate(-28.741 -227.941)" fill="#fafafa"/>
      <path id="Path_6449" data-name="Path 6449" d="M69.164,208.836H33.291c-.43,0-.717.383-.717.958s.287.958.717.958H69.164c.43,0,.717-.383.717-.958S69.594,208.836,69.164,208.836Z" transform="translate(-28.741 -197.261)" fill="#fafafa"/>
      <path id="Path_6450" data-name="Path 6450" d="M228.977,314.141c-.958-.479-1.438-1.054-1.438-1.533s.575-1.054,1.342-1.629a.915.915,0,0,0,.383-1.246.846.846,0,0,0-1.246-.383c-1.533.863-2.4,2.013-2.4,3.258s.863,2.4,2.4,3.354c.958.479,1.437,1.054,1.437,1.533s-.575,1.054-1.437,1.533a.846.846,0,0,0-.383,1.246,1.007,1.007,0,0,0,.862.479.865.865,0,0,0,.479-.1c1.533-.863,2.4-2.012,2.4-3.258A3.845,3.845,0,0,0,228.977,314.141Z" transform="translate(-206.011 -291.816)" fill="#fafafa"/>
      <path id="Path_6451" data-name="Path 6451" d="M136.649,330.927c-.958-.479-1.437-1.054-1.437-1.534s.575-1.054,1.342-1.629a.922.922,0,1,0-.862-1.629c-1.533.862-2.4,2.012-2.4,3.258s.862,2.4,2.4,3.354c.958.479,1.437,1.054,1.437,1.533s-.575,1.054-1.437,1.533a.846.846,0,0,0-.383,1.246,1.007,1.007,0,0,0,.862.479.864.864,0,0,0,.479-.1c1.533-.862,2.4-2.012,2.4-3.258A3.845,3.845,0,0,0,136.649,330.927Z" transform="translate(-121.673 -306.686)" fill="#fafafa"/>
      <path id="Path_6452" data-name="Path 6452" d="M321.305,330.927c-.958-.479-1.437-1.054-1.437-1.534s.575-1.054,1.342-1.629a.915.915,0,0,0,.383-1.246.846.846,0,0,0-1.246-.383c-1.533.862-2.4,2.012-2.4,3.258s.862,2.4,2.4,3.354c.958.479,1.438,1.054,1.438,1.533s-.575,1.054-1.438,1.533a.846.846,0,0,0-.383,1.246,1.007,1.007,0,0,0,.862.479.864.864,0,0,0,.479-.1c1.533-.862,2.4-2.012,2.4-3.258A3.845,3.845,0,0,0,321.305,330.927Z" transform="translate(-290.349 -306.686)" fill="#fafafa"/>
    </g>
  </g>
</svg>
