<svg id="trolley" xmlns="http://www.w3.org/2000/svg" width="23.92" height="19.932" viewBox="0 0 23.92 19.932">
  <path id="Path_6247" data-name="Path 6247" d="M19.027,18.949H10.063a2.9,2.9,0,0,1-2.789-2.063L4.245,6.62a.9.9,0,0,0-.874-.627H1A1,1,0,0,1,1,4H3.371A2.9,2.9,0,0,1,6.158,6.063l.567,1.923H21.969a1.965,1.965,0,0,1,1.578.792,1.883,1.883,0,0,1,.287,1.69l-2.056,6.526a2.892,2.892,0,0,1-2.751,1.954ZM21.97,9.98h.01Z" transform="translate(0 -4)" fill="#fff"/>
  <path id="Path_6248" data-name="Path 6248" d="M10.993,23.986a1.993,1.993,0,1,1,1.993-1.993A2,2,0,0,1,10.993,23.986Zm0-1.994h0Z" transform="translate(-0.03 -4.054)" fill="#fff"/>
  <path id="Path_6249" data-name="Path 6249" d="M17.993,23.986a1.993,1.993,0,1,1,1.993-1.993A2,2,0,0,1,17.993,23.986Zm0-1.994h0Z" transform="translate(-0.054 -4.054)" fill="#fff"/>
</svg>
