<svg xmlns="http://www.w3.org/2000/svg" xmlns:xlink="http://www.w3.org/1999/xlink" width="36" height="33.594" viewBox="0 0 36 33.594">
  <defs>
    <linearGradient id="linear-gradient" x2="0.5" y2="1" gradientUnits="objectBoundingBox">
      <stop offset="0" stop-color="#ffbf1e"/>
      <stop offset="1" stop-color="#ff9138"/>
    </linearGradient>
  </defs>
  <g id="chat-dots-fill" transform="translate(0 -2.25)">
    <path id="Path_6713" data-name="Path 6713" d="M36,18c0,8.7-8.059,15.75-18,15.75a20.385,20.385,0,0,1-5.281-.689,32.842,32.842,0,0,1-9.407,2.776.585.585,0,0,1-.614-.815A23.97,23.97,0,0,0,4.43,28.348,14.625,14.625,0,0,1,0,18C0,9.3,8.059,2.25,18,2.25S36,9.3,36,18ZM11.25,18A2.25,2.25,0,1,1,9,15.75,2.25,2.25,0,0,1,11.25,18Zm9,0A2.25,2.25,0,1,1,18,15.75,2.25,2.25,0,0,1,20.25,18ZM27,20.25A2.25,2.25,0,1,0,24.75,18,2.25,2.25,0,0,0,27,20.25Z" fill-rule="evenodd" fill="url(#linear-gradient)"/>
  </g>
</svg>
