<svg xmlns="http://www.w3.org/2000/svg" width="30" height="30" viewBox="0 0 30 30">
  <g id="Group_43811" data-name="Group 43811" transform="translate(-1023 569)">
    <rect id="https___cdn.evbuc.com_images_66257593_240575924193_1_original" width="30" height="30" rx="15" transform="translate(1023 -569)" fill="#f5f5f5"/>
    <g id="favorite_border" transform="translate(1027 -565)">
      <path id="Path_6608" data-name="Path 6608" d="M0,0H22V22H0Z" fill="none"/>
      <path id="Path_6609" data-name="Path 6609" d="M18.188,3.907a5.312,5.312,0,0,0-7.022,1.008A5.3,5.3,0,0,0,4.145,3.907,5.016,5.016,0,0,0,2,7.84C1.871,11.4,5.025,14.247,9.837,18.62l.092.083a1.83,1.83,0,0,0,2.466-.009l.1-.092c4.813-4.363,7.957-7.214,7.838-10.771a5.013,5.013,0,0,0-2.145-3.923Zm-6.93,13.347-.092.092-.092-.092C6.711,13.3,3.833,10.691,3.833,8.042A3.133,3.133,0,0,1,7.041,4.833,3.584,3.584,0,0,1,10.314,7h1.714a3.561,3.561,0,0,1,3.263-2.163A3.133,3.133,0,0,1,18.5,8.042C18.5,10.691,15.621,13.3,11.258,17.254Z" transform="translate(-0.166 -0.25)" fill="#e0e0e0"/>
    </g>
  </g>
</svg>
