<svg xmlns="http://www.w3.org/2000/svg" xmlns:xlink="http://www.w3.org/1999/xlink" width="612.375" height="224.985" viewBox="0 0 612.375 224.985">
  <defs>
    <linearGradient id="linear-gradient" y1="0.5" x2="1" y2="0.5" gradientUnits="objectBoundingBox">
      <stop offset="0" stop-color="#8cc63f"/>
      <stop offset="0.54" stop-color="#8cc63f"/>
      <stop offset="1" stop-color="#80ad3a"/>
    </linearGradient>
  </defs>
  <g id="MUKYFY_Logo_Arb-02" data-name="MUKYFY Logo Arb-02" transform="translate(-45.13 -318.48)">
    <g id="Group_1" data-name="Group 1">
      <path id="Path_1" data-name="Path 1" d="M621.62,348.57l-.19-.16a112,112,0,0,0-71.57-29.8,1.139,1.139,0,0,0-.26,0,1.76,1.76,0,0,0-.4,0H549c.15,1.82.26,3.65.35,5.49a16.862,16.862,0,0,0,.06,1.73,13.354,13.354,0,0,1,0,1.55v2.13c0,2.26,0,4.55-.1,6.81,0,1-.08,1.92-.13,2.88-.1,1.88-.25,3.75-.43,5.63-.26,2.8-.62,5.58-1,8.37a149.32,149.32,0,0,1-21.17,57.11l-.94-.91-.16-.16c-.77-.75-1.54-1.5-2.28-2.28-.1-.1-.2-.22-.3-.31-.37-.38-.73-.75-1.09-1.14-.64-.67-1.27-1.36-1.89-2s-1-1.13-1.52-1.7l-2.15-2.47c-.86-1.05-1.72-2.09-2.57-3.15a150.08,150.08,0,0,1-28.29-57.52c-.21-.89-.42-1.79-.6-2.67-.72.44-1.43.9-2.12,1.39.1.58.2,1.2.29,1.79a187.7,187.7,0,0,0,22.46,62.63,190,190,0,0,0,12.35,18.71c.29.41.6.81.91,1.22A146.56,146.56,0,0,1,441,474a112.082,112.082,0,0,0,14.91,25.65c.41.55.83,1.1,1.27,1.64A112.51,112.51,0,1,0,621.62,348.57Zm-70.83-11.88v-1.13C550.78,336,550.78,336.34,550.79,336.69Z" fill="url(#linear-gradient)"/>
      <path id="Path_2" data-name="Path 2" d="M547.82,353.15a149.64,149.64,0,0,1-21.17,57.11,142.386,142.386,0,0,1-12.91-14.15,150,150,0,0,1-28.28-57.53c-.21-.89-.42-1.79-.62-2.67A112,112,0,0,1,545,318.48c1.35,0,2.69,0,4,.08a149.828,149.828,0,0,1-1.18,34.59Z" fill="#3178dd"/>
      <path id="Path_3" data-name="Path 3" d="M518.74,421.65A146.56,146.56,0,0,1,441,474l-.88-2.17A112.64,112.64,0,0,1,482.73,337.3c.1.58.2,1.2.29,1.79a187.7,187.7,0,0,0,22.46,62.63,189.992,189.992,0,0,0,12.35,18.71C518.12,420.84,518.43,421.24,518.74,421.65Z" fill="#2453b2"/>
      <path id="Path_4" data-name="Path 4" d="M617.7,365.81q-.35-7.15-1.23-14.27.84,7,1,14.11a152.929,152.929,0,0,1-2,29.39,149.91,149.91,0,0,1-30.15,68.31q-2.39,3-4.9,5.88a141.2,141.2,0,0,1-15.55,15.3,146.46,146.46,0,0,1-89.47,34.85,112.419,112.419,0,0,0,42,20.7,185.1,185.1,0,0,0,59.3-48.79q5.47-6.81,10.26-14.09c.46-.69.91-1.37,1.35-2.07,2-3.16,4-6.37,5.79-9.65a186.3,186.3,0,0,0,19.63-51.8,179.487,179.487,0,0,0,3.7-26,185.118,185.118,0,0,0,.27-21.87Z" fill="#fff"/>
      <path id="Path_5" data-name="Path 5" d="M619.91,451.24a146.875,146.875,0,0,1-21.86-3c-2.95-.6-5.87-1.32-8.77-2.13a144.708,144.708,0,0,1-27.21-10.56,148.252,148.252,0,0,1-28.14-18.69c-2.49-2.1-4.92-4.28-7.29-6.6a144.9,144.9,0,0,1-12.9-14.16,150.081,150.081,0,0,1-28.29-57.52c-.21-.89-.42-1.79-.6-2.67-.72.44-1.43.9-2.12,1.39.1.58.2,1.2.29,1.79a187.12,187.12,0,0,0,35.72,82.56q3.72,4.92,7.86,9.65A178.854,178.854,0,0,0,550,453.91a176.707,176.707,0,0,0,18.83,13.38q5.78,3.61,11.83,6.75a184.7,184.7,0,0,0,58.14,19.08A111.06,111.06,0,0,0,656.05,449a149,149,0,0,1-36.14,2.24Z" fill="#fff"/>
    </g>
    <g id="Group_2" data-name="Group 2" transform="translate(-316 -248.994)">
      <path id="Path_7" data-name="Path 7" d="M373.44,632.3a8.74,8.74,0,0,1,4.35,10v.08a32.308,32.308,0,0,0-1,8.11,23.89,23.89,0,0,0,.62,5,9.32,9.32,0,0,0,2.08,4.09,10.4,10.4,0,0,0,4.31,2.78,21.651,21.651,0,0,0,7.31,1l19.37-.07V642q0-12.36,6.69-19t19-6.65l13.38.29a6.739,6.739,0,0,1,3,.7,8.16,8.16,0,0,1,4.06,4.31,7.9,7.9,0,0,1,.58,3V663.3h4.66V679H449.4a7.569,7.569,0,0,1-3-.62,7.93,7.93,0,0,1-2.49-1.68,8.1,8.1,0,0,1-1.68-2.49,7.57,7.57,0,0,1-.62-3v-39.1l-5.7-.15a18.632,18.632,0,0,0-4.75.51,6.271,6.271,0,0,0-3,1.68,6.879,6.879,0,0,0-1.57,3.07,8.16,8.16,0,0,0-.48,3.15l.08,30.09a10.2,10.2,0,0,1-.55,3.33,7.624,7.624,0,0,1-4.06,4.53,7.6,7.6,0,0,1-3.29.69H391.07a35.229,35.229,0,0,1-14-2.48,25.92,25.92,0,0,1-9.25-6.51,24.48,24.48,0,0,1-5.11-9.17,36,36,0,0,1-1.58-10.56,46.109,46.109,0,0,1,.41-6.11,46.925,46.925,0,0,1,1.13-5.85,48.984,48.984,0,0,1,1.68-5.29h0a4.37,4.37,0,0,1,6.09-2.32Zm7,65.2a8.346,8.346,0,0,1,5.12-7.79,8.219,8.219,0,0,1,3.29-.65,8.42,8.42,0,0,1,8.48,8.47,8.353,8.353,0,0,1-5.15,7.75,8.531,8.531,0,0,1-3.33.66,8.294,8.294,0,0,1-8.38-8.44Zm19.59,0a8.346,8.346,0,0,1,5.12-7.79,8.219,8.219,0,0,1,3.29-.65A8.42,8.42,0,0,1,417,697.5a8.229,8.229,0,0,1-.66,3.29,8.41,8.41,0,0,1-1.79,2.67,8.321,8.321,0,0,1-2.71,1.79,8.441,8.441,0,0,1-3.32.66,8.529,8.529,0,0,1-8.46-8.41Z" fill="#fff"/>
      <path id="Path_8" data-name="Path 8" d="M460.42,679V663.3h15a31.243,31.243,0,0,1-2.59-7.42,37.43,37.43,0,0,1-.85-8,36.66,36.66,0,0,1,1.87-11.55,30.28,30.28,0,0,1,5.52-10,27.341,27.341,0,0,1,9.06-7,27.9,27.9,0,0,1,12.5-2.67h19.22a9.63,9.63,0,0,1,3.88.8,10.06,10.06,0,0,1,5.3,5.45,10.2,10.2,0,0,1,.76,3.91V663.3h7V679Zm28.45-24.27a13.741,13.741,0,0,0,4.31,6.11,11.87,11.87,0,0,0,7.75,2.45h13.52v-31H500.93a12.24,12.24,0,0,0-5.92,1.36,12.41,12.41,0,0,0-4.13,3.58,15.7,15.7,0,0,0-2.45,5,19.931,19.931,0,0,0-.8,5.62,20.26,20.26,0,0,0,.29,3.48,16.826,16.826,0,0,0,.95,3.41Zm6.94-54.89a8.346,8.346,0,0,1,5.12-7.79,8.23,8.23,0,0,1,3.29-.66,8.42,8.42,0,0,1,8.48,8.48,8.23,8.23,0,0,1-.66,3.29,8.346,8.346,0,0,1-7.79,5.12,8.469,8.469,0,0,1-8.44-8.43Z" fill="#fff"/>
      <path id="Path_9" data-name="Path 9" d="M544.76,663.3V626.82a7.82,7.82,0,0,1,7.82-7.82h0a7.82,7.82,0,0,1,7.82,7.82V663.3h11V679H535.8V663.3ZM533.57,699a8.531,8.531,0,0,1,.66-3.33,8.353,8.353,0,0,1,7.75-5.15,8.439,8.439,0,0,1,3.32.66,8.161,8.161,0,0,1,2.71,1.79,8.321,8.321,0,0,1,1.79,2.7,8.53,8.53,0,0,1,.66,3.33,8.262,8.262,0,0,1-.66,3.29,8.48,8.48,0,0,1-1.79,2.66,8.161,8.161,0,0,1-2.71,1.79,8.435,8.435,0,0,1-11.11-4.45,8.261,8.261,0,0,1-.62-3.29Zm19.59,0a8.532,8.532,0,0,1,.66-3.33,8.169,8.169,0,0,1,1.79-2.7,8.608,8.608,0,0,1,9.32-1.79,8.16,8.16,0,0,1,2.71,1.79,8.319,8.319,0,0,1,1.79,2.7,8.528,8.528,0,0,1,.66,3.33,8.261,8.261,0,0,1-.66,3.29,8.48,8.48,0,0,1-1.79,2.66,8.161,8.161,0,0,1-2.71,1.79A8.409,8.409,0,0,1,553.2,699Z" fill="#fff"/>
      <path id="Path_10" data-name="Path 10" d="M571.07,663.3h58.18v-7.61a57.7,57.7,0,0,0-.25-6.21,6,6,0,0,0-1.17-3.25,4.281,4.281,0,0,0-2.78-1.32,39.622,39.622,0,0,0-5.08-.25L582,644.51a12.51,12.51,0,0,1-7.27-1.9,10.07,10.07,0,0,1-3.84-5,13,13,0,0,1-.87-4.82,13.376,13.376,0,0,1,.14-1.9,21.831,21.831,0,0,1,2.2-7.46,47.5,47.5,0,0,1,10.49-14,62.379,62.379,0,0,1,14.5-10,68.368,68.368,0,0,1,16.82-5.81A70.921,70.921,0,0,1,629,592h0a2.26,2.26,0,0,1,2.27,2.34l-.3,9.18a4.56,4.56,0,0,1-4.28,4.4c-2.81.17-6.36.45-8.36.82a55.256,55.256,0,0,0-12.42,3.91,47.421,47.421,0,0,0-10.82,6.72,31.669,31.669,0,0,0-7.82,9.54H615q5.85,0,10.34.18a45.8,45.8,0,0,1,7.82.92,16.231,16.231,0,0,1,5.6,2.26,11.3,11.3,0,0,1,3.65,4.21,21.539,21.539,0,0,1,2,6.72,67.529,67.529,0,0,1,.62,9.91V663.3h13.45V679H571.07Z" fill="#fff"/>
      <path id="Path_11" data-name="Path 11" d="M655,663.3h4.71V645.46a24.553,24.553,0,0,1,1-6.87,31.174,31.174,0,0,1,2.93-6.8,33.187,33.187,0,0,1,4.57-6.14,29.84,29.84,0,0,1,12.9-8.11,24.728,24.728,0,0,1,6.87-.95h.95l22.15.29a7.568,7.568,0,0,1,3,.62,8.111,8.111,0,0,1,2.48,1.68,8.32,8.32,0,0,1,1.69,2.45,7.36,7.36,0,0,1,.62,3v45.83a10.2,10.2,0,0,1-.55,3.33,7.73,7.73,0,0,1-4,4.53,7.391,7.391,0,0,1-3.25.69H655Zm20.43,0H703.2V632.45l-8.37-.11c-1.92,0-3.34-.05-4.24-.07h-2.01a11.26,11.26,0,0,0-4.86,1.13,15.92,15.92,0,0,0-4.24,3,14.132,14.132,0,0,0-3,4.21,11.471,11.471,0,0,0-1.09,4.86Z" fill="#fff"/>
      <path id="Path_12" data-name="Path 12" d="M384,756.56a.38.38,0,0,1,.44-.43h2.14a.38.38,0,0,1,.44.43v2.93a.39.39,0,0,1-.44.44h-2.14a.39.39,0,0,1-.44-.44Z" fill="#fff"/>
      <path id="Path_13" data-name="Path 13" d="M390.91,756.56a.38.38,0,0,1,.43-.43h2.15a.38.38,0,0,1,.43.43v2.93c0,.3-.14.44-.43.44h-2.15c-.29,0-.43-.14-.43-.44Z" fill="#fff"/>
      <path id="Path_14" data-name="Path 14" d="M398.73,756.56a.38.38,0,0,1,.44-.43h2.14a.38.38,0,0,1,.44.43v2.93a.39.39,0,0,1-.44.44h-2.14a.39.39,0,0,1-.44-.44Z" fill="#fff"/>
      <path id="Path_15" data-name="Path 15" d="M405.42,768.5a.39.39,0,0,1-.44-.44v-1.57a.39.39,0,0,1,.44-.44h1a3.28,3.28,0,0,0,3.67-3.71V742.75a.39.39,0,0,1,.44-.44h1.53a.39.39,0,0,1,.44.44v19.32a6.8,6.8,0,0,1-1.53,4.77,6.26,6.26,0,0,1-4.81,1.66Z" fill="#fff"/>
      <path id="Path_16" data-name="Path 16" d="M421.86,768.5c-.29,0-.43-.14-.43-.44v-1.57a.38.38,0,0,1,.43-.44h5.34a5.17,5.17,0,0,0,3.17-.79c.68-.52,1-1.57,1-3.14v-2.19h-4.94a11.45,11.45,0,0,1-3.32-.44,6.289,6.289,0,0,1-2.56-1.44,6.49,6.49,0,0,1-1.64-2.69A14.95,14.95,0,0,1,419,747a8.389,8.389,0,0,1,1.68-3,7.18,7.18,0,0,1,2.49-1.83,7.39,7.39,0,0,1,3.08-.64c2.6,0,4.52.78,5.75,2.32s1.86,3.91,1.86,7.08v6.56h3.06a3,3,0,0,1,1.32.22.89.89,0,0,1,.43.88c0,.58-.13.95-.41,1.11a2.8,2.8,0,0,1-1.34.24h-3.06v2.14q0,3.42-1.42,4.92a5.87,5.87,0,0,1-4.48,1.51Zm4.37-24.5a4.67,4.67,0,0,0-3.86,1.84,8.59,8.59,0,0,0-1.47,5.46,11,11,0,0,0,.33,2.93,4.29,4.29,0,0,0,1,1.9,3.88,3.88,0,0,0,1.75,1,8.089,8.089,0,0,0,2.44.33h4.94V751a9.58,9.58,0,0,0-1.18-5.2,4.34,4.34,0,0,0-3.95-1.8Z" fill="#fff"/>
      <path id="Path_17" data-name="Path 17" d="M436.86,759.93a1.56,1.56,0,0,1-1.14-.3,1.52,1.52,0,0,1-.26-1q0-.87.24-1a2.51,2.51,0,0,1,1.16-.16h4.42a3.349,3.349,0,0,1,1.31.2.83.83,0,0,1,.44.85,1.26,1.26,0,0,1-.42,1.12,2.42,2.42,0,0,1-1.33.28Z" fill="#fff"/>
      <path id="Path_18" data-name="Path 18" d="M441.15,759.93a1.53,1.53,0,0,1-1.14-.3,1.46,1.46,0,0,1-.26-1q0-.87.24-1a2.49,2.49,0,0,1,1.16-.16h4.41a3.349,3.349,0,0,1,1.31.2.83.83,0,0,1,.44.85,1.29,1.29,0,0,1-.41,1.12,2.451,2.451,0,0,1-1.34.28Z" fill="#fff"/>
      <path id="Path_19" data-name="Path 19" d="M473.06,757.26a4.3,4.3,0,0,1-1.2,1.47,5,5,0,0,1-1.68.81,11.424,11.424,0,0,1-2.23.33c-.85,0-1.79.06-2.84.06h-13a3.4,3.4,0,0,1-.75-.09,1.45,1.45,0,0,1-.65-.3,3.271,3.271,0,0,1-1,.3,8.393,8.393,0,0,1-1.36.09h-2.89a3,3,0,0,1-1.31-.22c-.29-.14-.43-.48-.43-1q0-1.23,1.74-1.23h2.67a4.448,4.448,0,0,0,1.25-.15,1.36,1.36,0,0,0,.78-.59,3,3,0,0,0,.4-1.16,13.233,13.233,0,0,0,.11-1.86V730.63a.38.38,0,0,1,.43-.43h1.58a.38.38,0,0,1,.44.43v13.86a28.218,28.218,0,0,1,4.94-2.09,17.9,17.9,0,0,1,5.59-.88,12.769,12.769,0,0,1,5.3.94,8.09,8.09,0,0,1,3.12,2.43,8.261,8.261,0,0,1,1.49,3.32,18.7,18.7,0,0,1,.37,3.59v2.4a2.81,2.81,0,0,0,1.15,2.47,5.33,5.33,0,0,0,3.09.81h.22a2.8,2.8,0,0,1,1.31.24.9.9,0,0,1,.44.86c0,.67-.14,1.06-.42,1.18a3.883,3.883,0,0,1-1.33.17,10.059,10.059,0,0,1-3.37-.52,3,3,0,0,1-1.96-2.15Zm-6.82.22a15.793,15.793,0,0,0,2.37-.15,2.761,2.761,0,0,0,1.55-.74,3.52,3.52,0,0,0,.85-1.73,14.159,14.159,0,0,0,.26-3.11,13.9,13.9,0,0,0-.35-3.23,5.811,5.811,0,0,0-1.2-2.45,5.5,5.5,0,0,0-2.27-1.55,9.92,9.92,0,0,0-3.57-.55,16.41,16.41,0,0,0-2.93.28,26.376,26.376,0,0,0-2.88.73,23.392,23.392,0,0,0-2.67,1c-.85.38-1.6.74-2.27,1.09v7.66a9,9,0,0,1-.14,1.46,4.731,4.731,0,0,1-.35,1.29Z" fill="#fff"/>
      <path id="Path_20" data-name="Path 20" d="M486.4,754.2a2.81,2.81,0,0,0,1.16,2.47,5.27,5.27,0,0,0,3.08.81h.27a2.831,2.831,0,0,1,1.31.24,1,1,0,0,1,.43.94,1.15,1.15,0,0,1-.39,1,2.4,2.4,0,0,1-1.35.28,10.7,10.7,0,0,1-3.15-.41,3.09,3.09,0,0,1-1.93-1.91,4.56,4.56,0,0,1-1.4,1.69,4.3,4.3,0,0,1-2.53.63h-3.54a2.309,2.309,0,0,1-1.21-.24,1.05,1.05,0,0,1-.37-.94,1.22,1.22,0,0,1,.35-1,2.16,2.16,0,0,1,1.23-.26h3.28a3.159,3.159,0,0,0,1.31-.22,1.39,1.39,0,0,0,.7-.67,3.589,3.589,0,0,0,.28-1.16c0-.47.07-1,.07-1.62V742.75a.38.38,0,0,1,.43-.44H486a.39.39,0,0,1,.44.44ZM481.11,738a.38.38,0,0,1-.44-.43V735a.38.38,0,0,1,.44-.43h2.27c.3,0,.44.14.44.43v2.63c0,.29-.14.43-.44.43Zm5.6,0a.38.38,0,0,1-.44-.43V735a.38.38,0,0,1,.44-.43H489a.38.38,0,0,1,.44.43v2.63a.38.38,0,0,1-.44.43Z" fill="#fff"/>
      <path id="Path_21" data-name="Path 21" d="M490.91,759.93a3,3,0,0,1-1.32-.22c-.29-.14-.43-.46-.43-1s.13-.9.41-1a3,3,0,0,1,1.34-.22h3.19a2.45,2.45,0,0,0,1.68-.52,2.33,2.33,0,0,0,.59-1.8V730.63a.38.38,0,0,1,.44-.43h1.53a.38.38,0,0,1,.44.43v23.79a12.577,12.577,0,0,1-.22,2.45,3.9,3.9,0,0,1-.79,1.73,3.4,3.4,0,0,1-1.55,1,8.248,8.248,0,0,1-2.56.33Z" fill="#fff"/>
      <path id="Path_22" data-name="Path 22" d="M507.74,759.49a.39.39,0,0,1-.44.44h-1.53a.39.39,0,0,1-.44-.44V730.63a.38.38,0,0,1,.44-.43h1.53a.38.38,0,0,1,.44.43Z" fill="#fff"/>
      <path id="Path_23" data-name="Path 23" d="M554.3,754.42a2.55,2.55,0,0,0,1.21,2.32,5.73,5.73,0,0,0,3,.74h.26a2.8,2.8,0,0,1,1.31.24.9.9,0,0,1,.44.86c0,.67-.14,1.06-.42,1.18a3.838,3.838,0,0,1-1.33.17,8.2,8.2,0,0,1-3-.48,4,4,0,0,1-2-1.71q-.89,2.19-4.11,2.19H528.9a5.729,5.729,0,0,1-3.94-1.09,4.93,4.93,0,0,1-1.18-3.72v-9.58a.38.38,0,0,1,.44-.43h1.53a.38.38,0,0,1,.44.43v9.62a2.6,2.6,0,0,0,.5,1.8,2.14,2.14,0,0,0,1.6.52h21.47a2.3,2.3,0,0,0,1.64-.5,2.59,2.59,0,0,0,.5-1.82V742.75a.39.39,0,0,1,.44-.44h1.53a.38.38,0,0,1,.43.44ZM537.69,767.1a.39.39,0,0,1-.44-.44V764a.39.39,0,0,1,.44-.44H540a.39.39,0,0,1,.44.44v2.62a.39.39,0,0,1-.44.44Z" fill="#fff"/>
      <path id="Path_24" data-name="Path 24" d="M562.35,744.76a.39.39,0,0,1-.44-.44V742.7c0-.26.05-.39.13-.39l9.71-11.41c.2-.24.39-.28.57-.13l1.27,1c.29.21.35.41.17.61l-8.39,9.93h5a10,10,0,0,1,3,.44,5.74,5.74,0,0,1,3.83,3.62,9.662,9.662,0,0,1,.52,3.37v2.71a18.252,18.252,0,0,1-.3,3.63,5.21,5.21,0,0,1-1,2.3,3.831,3.831,0,0,1-1.88,1.2,10.327,10.327,0,0,1-2.91.35H558.81a2.77,2.77,0,0,1-1.31-.24,1,1,0,0,1-.44-1c0-.53.14-.86.41-1a3,3,0,0,1,1.34-.22h12.33a8.2,8.2,0,0,0,2.12-.22,2.25,2.25,0,0,0,1.22-.72,2.69,2.69,0,0,0,.55-1.35,13.991,13.991,0,0,0,.13-2.12V749.6a4.73,4.73,0,0,0-1.31-3.65,6.13,6.13,0,0,0-4.2-1.2Z" fill="#fff"/>
      <path id="Path_25" data-name="Path 25" d="M586,759.49c0,.3-.14.44-.43.44H584a.38.38,0,0,1-.44-.44V730.63c0-.29.14-.43.44-.43h1.53a.38.38,0,0,1,.43.43Z" fill="#fff"/>
      <path id="Path_26" data-name="Path 26" d="M595.62,768.5c-.29,0-.43-.14-.43-.44v-1.57a.38.38,0,0,1,.43-.44H601a5.171,5.171,0,0,0,3.17-.79c.68-.52,1-1.57,1-3.14v-2.19h-4.94a11.482,11.482,0,0,1-3.33-.44,6.29,6.29,0,0,1-2.56-1.44,6.49,6.49,0,0,1-1.64-2.69,13.139,13.139,0,0,1-.56-4.17,13,13,0,0,1,.61-4.18,8.69,8.69,0,0,1,1.68-3,7.33,7.33,0,0,1,5.58-2.47c2.59,0,4.51.78,5.75,2.32s1.85,3.91,1.85,7.08v6.56h3.07a3,3,0,0,1,1.31.22.89.89,0,0,1,.43.88c0,.58-.14.95-.41,1.11a2.779,2.779,0,0,1-1.33.24H607.6v2.14q0,3.42-1.42,4.92a5.871,5.871,0,0,1-4.48,1.51ZM600,744a4.68,4.68,0,0,0-3.87,1.84,8.591,8.591,0,0,0-1.47,5.46,11,11,0,0,0,.33,2.93,4.29,4.29,0,0,0,1,1.9,3.879,3.879,0,0,0,1.75,1,8.159,8.159,0,0,0,2.45.33h4.94V751a9.67,9.67,0,0,0-1.18-5.2A4.37,4.37,0,0,0,600,744Z" fill="#fff"/>
      <path id="Path_27" data-name="Path 27" d="M610.67,759.93a3.932,3.932,0,0,1-1.32-.17c-.29-.12-.43-.41-.43-.88a1.29,1.29,0,0,1,.41-1.14,2.65,2.65,0,0,1,1.34-.26h3.14a2.22,2.22,0,0,0,1.6-.5,2.54,2.54,0,0,0,.5-1.82V742.75a.39.39,0,0,1,.44-.44h1.57a.39.39,0,0,1,.44.44v11.67a6.17,6.17,0,0,1-1.18,4.18,5,5,0,0,1-3.94,1.33ZM613.38,738c-.3,0-.44-.14-.44-.43V735c0-.29.14-.43.44-.43h2.27a.38.38,0,0,1,.44.43v2.63a.38.38,0,0,1-.44.43Zm5.59,0a.38.38,0,0,1-.44-.43V735a.38.38,0,0,1,.44-.43h2.28a.38.38,0,0,1,.43.43v2.63a.38.38,0,0,1-.43.43Z" fill="#fff"/>
      <path id="Path_28" data-name="Path 28" d="M642.24,760.24a7.15,7.15,0,0,1-5.73-2.28c-1.32-1.51-2-3.89-2-7.12q0-9.32,7.7-9.32t7.69,9.32c0,3.23-.65,5.61-1.95,7.12a7.12,7.12,0,0,1-5.71,2.28Zm0-16.27a4.4,4.4,0,0,0-4,1.86A9.24,9.24,0,0,0,637,751a8.7,8.7,0,0,0,1.23,5.13,4.56,4.56,0,0,0,4,1.69,4.65,4.65,0,0,0,4-1.69,8.62,8.62,0,0,0,1.24-5.13,9.171,9.171,0,0,0-1.24-5.12,4.47,4.47,0,0,0-3.99-1.88Zm-3.94-6a.38.38,0,0,1-.44-.43V735a.38.38,0,0,1,.44-.43h2.27a.38.38,0,0,1,.44.43v2.63a.38.38,0,0,1-.44.43Zm5.6,0c-.3,0-.44-.14-.44-.43V735c0-.29.14-.43.44-.43h2.27a.38.38,0,0,1,.44.43v2.63a.38.38,0,0,1-.44.43Z" fill="#fff"/>
      <path id="Path_29" data-name="Path 29" d="M660,754.2a2.79,2.79,0,0,0,1.16,2.47,5.25,5.25,0,0,0,3.08.81h.22a2.8,2.8,0,0,1,1.31.24.9.9,0,0,1,.43.86c0,.67-.13,1.06-.41,1.18a3.883,3.883,0,0,1-1.33.17,12.714,12.714,0,0,1-2.54-.22,3.42,3.42,0,0,1-1.92-1.13v3.49a6.8,6.8,0,0,1-1.53,4.77,6.26,6.26,0,0,1-4.81,1.66h-.75c-.29,0-.43-.14-.43-.44v-1.57a.38.38,0,0,1,.43-.44h1a3.28,3.28,0,0,0,3.67-3.71V742.75a.39.39,0,0,1,.44-.44h1.53a.39.39,0,0,1,.44.44Z" fill="#fff"/>
      <path id="Path_30" data-name="Path 30" d="M664.4,759.93a1.51,1.51,0,0,1-1.13-.3,1.46,1.46,0,0,1-.27-1q0-.87.24-1a2.539,2.539,0,0,1,1.16-.16h4.42a3.349,3.349,0,0,1,1.31.2.83.83,0,0,1,.44.85,1.26,1.26,0,0,1-.42,1.12,2.39,2.39,0,0,1-1.33.28Z" fill="#fff"/>
      <path id="Path_31" data-name="Path 31" d="M676.6,754.2a2.81,2.81,0,0,0,1.16,2.47,5.27,5.27,0,0,0,3.08.81h.27a2.8,2.8,0,0,1,1.31.24,1,1,0,0,1,.43.94,1.15,1.15,0,0,1-.39,1,2.38,2.38,0,0,1-1.35.28,10.7,10.7,0,0,1-3.15-.41,3.09,3.09,0,0,1-1.93-1.91,4.56,4.56,0,0,1-1.4,1.69,4.27,4.27,0,0,1-2.53.63h-3.37a2.85,2.85,0,0,1-1.29-.24,1,1,0,0,1-.46-.94,1.09,1.09,0,0,1,.44-1,2.65,2.65,0,0,1,1.31-.26h3.1a3.18,3.18,0,0,0,1.32-.22,1.39,1.39,0,0,0,.7-.67,3.592,3.592,0,0,0,.28-1.16,15.588,15.588,0,0,0,.07-1.62V742.75a.38.38,0,0,1,.43-.44h1.53a.39.39,0,0,1,.44.44Zm-2.23,12.73a.39.39,0,0,1-.44-.44v-2.62a.39.39,0,0,1,.44-.44h2.27a.38.38,0,0,1,.44.44v2.62a.39.39,0,0,1-.44.44Z" fill="#fff"/>
      <path id="Path_32" data-name="Path 32" d="M681.1,759.93q-1.74,0-1.74-1.14c0-.61.13-1,.41-1.11a3.33,3.33,0,0,1,1.33-.2h13.21a7.72,7.72,0,0,0,2.08-.22,2.18,2.18,0,0,0,1.18-.76,2.869,2.869,0,0,0,.52-1.42,21.179,21.179,0,0,0-.22-5.88,7.438,7.438,0,0,0-1.11-2.78,5.23,5.23,0,0,0-2.06-1.75,7.15,7.15,0,0,0-3.14-.61,8.06,8.06,0,0,0-2.93.54,6.329,6.329,0,0,0-2.54,1.91c-.18.26-.38.29-.61.08l-1.18-1.05c-.27-.14-.31-.35-.13-.61a9.349,9.349,0,0,1,2.9-2.42,9.211,9.211,0,0,1,4.53-1,9.78,9.78,0,0,1,4.7,1,7.43,7.43,0,0,1,2.82,2.55,10,10,0,0,1,1.38,3.59,23.077,23.077,0,0,1,.37,4.07,18.63,18.63,0,0,1-.26,3.34,5.229,5.229,0,0,1-.92,2.23,3.75,3.75,0,0,1-1.77,1.25,8.712,8.712,0,0,1-2.82.39Zm9.9-21.86a.39.39,0,0,1-.44-.44V735a.39.39,0,0,1,.44-.44h1.75a.38.38,0,0,1,.43.44v2.62a.38.38,0,0,1-.43.44Z" fill="#fff"/>
    </g>
  </g>
</svg>
