<svg xmlns="http://www.w3.org/2000/svg" width="30" height="30" viewBox="0 0 30 30">
  <g id="Group_43810" data-name="Group 43810" transform="translate(-1029 683)">
    <rect id="https___cdn.evbuc.com_images_66257593_240575924193_1_original" width="30" height="30" rx="15" transform="translate(1029 -683)" fill="#f5f5f5"/>
    <path id="cart" d="M9.2,14.2h6.4a.8.8,0,0,1,0,1.6H8.4a.8.8,0,0,1-.8-.8V4.6H6.8A.8.8,0,1,1,6.8,3H8.4a.8.8,0,0,1,.8.8V5.4h7.942A1.629,1.629,0,0,1,18.8,7a1.559,1.559,0,0,1-.04.347l-.921,4A1.646,1.646,0,0,1,16.22,12.6H9.2ZM8.8,19A1.2,1.2,0,1,1,10,17.8,1.2,1.2,0,0,1,8.8,19ZM16,19a1.2,1.2,0,1,1,1.2-1.2A1.2,1.2,0,0,1,16,19ZM9.2,7v4h7.065L17.2,7Z" transform="translate(1031.6 -679)" fill="#e0e0e0" fill-rule="evenodd"/>
  </g>
</svg>
