<svg xmlns="http://www.w3.org/2000/svg" width="16" height="15.59" viewBox="0 0 16 15.59">
  <path id="phone-svgrepo-com" d="M14.911,14.116a3.691,3.691,0,0,0-2.279-.971,3.572,3.572,0,0,0-2.474,1.343.394.394,0,0,1-.3.115c-.573,0-1.581-.717-3-2.132C5.2,10.806,4.57,9.747,4.994,9.324c1.147-1.147,1.505-2.3-.251-4.481A2.518,2.518,0,0,0,2.862,3.68,3.149,3.149,0,0,0,.774,4.972c-.1.1-.194.2-.286.3-.651.651-.651,2.071,0,3.8a17.27,17.27,0,0,0,3.974,5.805,18.38,18.38,0,0,0,4.5,3.359,8.37,8.37,0,0,0,3.608,1.04h0a2.3,2.3,0,0,0,1.478-.416c.686-.567,1.962-1.617,1.954-2.864A2.467,2.467,0,0,0,14.911,14.116Z" transform="translate(-0.001 -3.68)" fill="#ff9138"/>
</svg>
