<svg xmlns="http://www.w3.org/2000/svg" width="30" height="30" viewBox="0 0 30 30">
  <g id="Group_43804" data-name="Group 43804" transform="translate(-1044 548)">
    <rect id="https___cdn.evbuc.com_images_66257593_240575924193_1_original" width="30" height="30" rx="15" transform="translate(1044 -548)" fill="#f5f5f5"/>
    <g id="user" transform="translate(1052 -542)">
      <path id="Path_6242" data-name="Path 6242" d="M142.033,8.5a4.251,4.251,0,1,1,4.251-4.251A4.256,4.256,0,0,1,142.033,8.5Zm0-7.439a3.188,3.188,0,1,0,3.188,3.188,3.192,3.192,0,0,0-3.188-3.188Z" transform="translate(-134.594)" fill="#e0e0e0"/>
      <path id="Path_6243" data-name="Path 6243" d="M48.792,318.582H34.976a.531.531,0,0,1-.531-.531v-3.658a1.594,1.594,0,0,1,.732-1.347,12.982,12.982,0,0,1,13.413,0,1.594,1.594,0,0,1,.733,1.348v3.658A.531.531,0,0,1,48.792,318.582Zm-13.284-1.063H48.26v-3.126a.524.524,0,0,0-.233-.446,11.9,11.9,0,0,0-12.287,0,.523.523,0,0,0-.232.446Z" transform="translate(-34.445 -301.578)" fill="#e0e0e0"/>
    </g>
  </g>
</svg>
