<svg xmlns="http://www.w3.org/2000/svg" width="34.072" height="54.296" viewBox="0 0 34.072 54.296">
  <g id="Group_43703" data-name="Group 43703" transform="translate(-988 352)">
    <path id="Path_6501" data-name="Path 6501" d="M1.834,49.7S1.1,54.273,6.076,57.452s21.056,9.795,21.056,9.795,6.961,1.823,6.7,10.717l-6.071-.272a3.991,3.991,0,0,0-2.891-3.509c-2.8-.817-17.405-6.448-21.161-8.648S-1.43,55.739,1.834,49.7" transform="translate(987.999 -375.668)" fill="#fafafa" opacity="0.97"/>
    <path id="Path_6503" data-name="Path 6503" d="M4.166,25.86S2.94,31.412,8.88,35.084s19.38,9.627,19.38,9.627,7.333,3.1,6.809,8.244S33.681,58.1,33.681,58.1a8.443,8.443,0,0,0-4.326-4.981c-3.426-1.629-21.3-9.219-21.3-9.219S-2.041,39.41,4.166,25.86" transform="translate(986.976 -364.315)" fill="#fafafa"/>
    <path id="Path_6504" data-name="Path 6504" d="M22.884,0a9.158,9.158,0,0,1-2.718,5.144l-6.778,5.793s-3.4,4.253-1.954,7.26l.325.9s1.467-3.509,3.588-5.06,7.537-6.123,7.537-6.123,3.7-2.855,0-7.914" transform="translate(982.725 -352)" fill="#fafafa"/>
  </g>
</svg>
