<svg id="user" xmlns="http://www.w3.org/2000/svg" width="17.441" height="19.933" viewBox="0 0 17.441 19.933">
  <path id="Path_6242" data-name="Path 6242" d="M142.765,9.966a4.983,4.983,0,1,1,4.983-4.983A4.989,4.989,0,0,1,142.765,9.966Zm0-8.72A3.737,3.737,0,1,0,146.5,4.983a3.741,3.741,0,0,0-3.737-3.737Z" transform="translate(-134.045)" fill="#fff"/>
  <path id="Path_6243" data-name="Path 6243" d="M51.263,319.857h-16.2a.623.623,0,0,1-.623-.623v-4.288a1.868,1.868,0,0,1,.858-1.579,15.218,15.218,0,0,1,15.724,0,1.869,1.869,0,0,1,.859,1.58v4.288A.623.623,0,0,1,51.263,319.857Zm-15.572-1.246H50.64v-3.665a.614.614,0,0,0-.273-.523,13.947,13.947,0,0,0-14.4,0,.613.613,0,0,0-.273.523Z" transform="translate(-34.445 -299.924)" fill="#fff"/>
</svg>
