<svg xmlns="http://www.w3.org/2000/svg" width="12.606" height="8.667" viewBox="0 0 12.606 8.667">
  <g id="email" transform="translate(0 -80)">
    <g id="Group_10257" data-name="Group 10257" transform="translate(8.356 81.598)">
      <g id="Group_10256" data-name="Group 10256">
        <path id="Path_6345" data-name="Path 6345" d="M339.392,147.7l4.25,2.687V144.9Z" transform="translate(-339.392 -144.896)" fill="#e2e2e2"/>
      </g>
    </g>
    <g id="Group_10259" data-name="Group 10259" transform="translate(0 81.598)">
      <g id="Group_10258" data-name="Group 10258">
        <path id="Path_6346" data-name="Path 6346" d="M0,144.9v5.487L4.25,147.7Z" transform="translate(0 -144.896)" fill="#e2e2e2"/>
      </g>
    </g>
    <g id="Group_10261" data-name="Group 10261" transform="translate(0.024 80)">
      <g id="Group_10260" data-name="Group 10260">
        <path id="Path_6347" data-name="Path 6347" d="M12.754,80H1.724a.778.778,0,0,0-.764.67l6.279,4.137,6.279-4.137A.778.778,0,0,0,12.754,80Z" transform="translate(-0.96 -80)" fill="#e2e2e2"/>
      </g>
    </g>
    <g id="Group_10263" data-name="Group 10263" transform="translate(0.025 84.873)">
      <g id="Group_10262" data-name="Group 10262">
        <path id="Path_6348" data-name="Path 6348" d="M8.633,277.921l-1.115.734a.4.4,0,0,1-.433,0L5.97,277.92l-4.946,3.129a.777.777,0,0,0,.763.665h11.03a.777.777,0,0,0,.763-.665Z" transform="translate(-1.024 -277.92)" fill="#e2e2e2"/>
      </g>
    </g>
  </g>
</svg>
