<svg xmlns="http://www.w3.org/2000/svg" width="11.56" height="11.563" viewBox="0 0 11.56 11.563">
  <g id="instagram" transform="translate(0 0)">
    <path id="Path_6251" data-name="Path 6251" d="M11.98,3.4A4.225,4.225,0,0,0,11.711,2,2.962,2.962,0,0,0,10.019.3a4.236,4.236,0,0,0-1.4-.269C8,.007,7.8,0,6.231,0S4.465.007,3.848.034A4.226,4.226,0,0,0,2.445.3,2.821,2.821,0,0,0,1.42.971,2.847,2.847,0,0,0,.753,1.995,4.236,4.236,0,0,0,.485,3.4c-.029.619-.036.815-.036,2.385S.455,7.549.482,8.166a4.225,4.225,0,0,0,.269,1.4A2.961,2.961,0,0,0,2.443,11.26a4.236,4.236,0,0,0,1.4.269c.617.027.813.034,2.383.034S8,11.556,8.612,11.529a4.224,4.224,0,0,0,1.4-.269,2.958,2.958,0,0,0,1.692-1.692,4.239,4.239,0,0,0,.269-1.4c.027-.617.034-.813.034-2.383s0-1.766-.029-2.383ZM10.938,8.12a3.169,3.169,0,0,1-.2,1.073,1.918,1.918,0,0,1-1.1,1.1,3.18,3.18,0,0,1-1.073.2c-.61.027-.793.034-2.336.034S4.505,10.517,3.9,10.49a3.168,3.168,0,0,1-1.073-.2,1.779,1.779,0,0,1-.664-.431A1.8,1.8,0,0,1,1.729,9.2a3.181,3.181,0,0,1-.2-1.073C1.5,7.513,1.5,7.33,1.5,5.787s.007-1.728.034-2.336a3.168,3.168,0,0,1,.2-1.073,1.757,1.757,0,0,1,.434-.664,1.8,1.8,0,0,1,.664-.431,3.183,3.183,0,0,1,1.073-.2c.61-.027.793-.034,2.336-.034s1.728.007,2.336.034a3.169,3.169,0,0,1,1.073.2,1.778,1.778,0,0,1,.664.431,1.8,1.8,0,0,1,.431.664,3.182,3.182,0,0,1,.2,1.073c.027.61.034.793.034,2.336s-.007,1.723-.034,2.333Zm0,0" transform="translate(-0.449 0)" fill="#9e9e9e"/>
    <path id="Path_6252" data-name="Path 6252" d="M127.919,124.5a2.97,2.97,0,1,0,2.97,2.97A2.971,2.971,0,0,0,127.919,124.5Zm0,4.9a1.927,1.927,0,1,1,1.927-1.927A1.927,1.927,0,0,1,127.919,129.4Zm0,0" transform="translate(-122.137 -121.688)" fill="#9e9e9e"/>
    <path id="Path_6253" data-name="Path 6253" d="M363.837,89.3a.693.693,0,1,1-.694-.693A.694.694,0,0,1,363.837,89.3Zm0,0" transform="translate(-354.273 -86.6)" fill="#9e9e9e"/>
  </g>
</svg>
