<svg xmlns="http://www.w3.org/2000/svg" width="9.999" height="9.743" viewBox="0 0 9.999 9.743">
  <path id="phone-svgrepo-com" d="M9.318,10.2a2.306,2.306,0,0,0-1.424-.607,2.232,2.232,0,0,0-1.546.839.246.246,0,0,1-.186.072c-.358,0-.988-.448-1.872-1.333-1.04-1.04-1.433-1.7-1.169-1.966.717-.717.941-1.435-.157-2.8A1.573,1.573,0,0,0,1.789,3.68a1.968,1.968,0,0,0-1.3.807c-.062.065-.121.127-.179.185C-.1,5.079-.1,5.966.306,7.046A10.793,10.793,0,0,0,2.79,10.674a11.486,11.486,0,0,0,2.81,2.1,5.23,5.23,0,0,0,2.254.65h0a1.44,1.44,0,0,0,.924-.26C9.207,12.808,10,12.152,10,11.372A1.542,1.542,0,0,0,9.318,10.2Z" transform="translate(-0.001 -3.68)" fill="#e0e0e0"/>
</svg>
