<svg xmlns="http://www.w3.org/2000/svg" width="17.35" height="18.344" viewBox="0 0 17.35 18.344">
  <g id="share" transform="translate(0.5 0.5)">
    <path id="Path_3524" data-name="Path 3524" d="M27.046,11.143a3.1,3.1,0,0,0-2.456,1.21L19.825,9.691A3.111,3.111,0,0,0,20,8.668a3.043,3.043,0,0,0-.176-1.026l4.761-2.658A3.1,3.1,0,1,0,23.941,3.1a3.028,3.028,0,0,0,.176,1.026L19.36,6.785a3.1,3.1,0,1,0,.007,3.763l4.761,2.661a3.1,3.1,0,1,0,2.917-2.067Zm0-10.167A2.128,2.128,0,1,1,24.917,3.1,2.13,2.13,0,0,1,27.046.976ZM16.9,10.8a2.128,2.128,0,1,1,2.128-2.128A2.13,2.13,0,0,1,16.9,10.8Zm10.141,5.571a2.128,2.128,0,1,1,2.128-2.128A2.13,2.13,0,0,1,27.046,16.368Z" transform="translate(-13.8 0)" fill="none" stroke="#9e9e9e" stroke-width="1"/>
  </g>
</svg>
