<svg xmlns="http://www.w3.org/2000/svg" width="14.231" height="11.563" viewBox="0 0 14.231 11.563">
  <g id="twitter" transform="translate(0)">
    <g id="Group_10234" data-name="Group 10234" transform="translate(0)">
      <path id="Path_6250" data-name="Path 6250" d="M14.231,49.369a6.083,6.083,0,0,1-1.681.461,2.9,2.9,0,0,0,1.283-1.613,5.83,5.83,0,0,1-1.85.706,2.917,2.917,0,0,0-5.047,2A3,3,0,0,0,7,51.584,8.258,8.258,0,0,1,.991,48.532a2.918,2.918,0,0,0,.9,3.9,2.881,2.881,0,0,1-1.318-.359V52.1a2.931,2.931,0,0,0,2.337,2.867,2.912,2.912,0,0,1-.765.1,2.58,2.58,0,0,1-.552-.05,2.945,2.945,0,0,0,2.726,2.032A5.862,5.862,0,0,1,.7,58.293a5.465,5.465,0,0,1-.7-.04,8.214,8.214,0,0,0,4.476,1.309,8.247,8.247,0,0,0,8.3-8.3c0-.129,0-.253-.011-.377A5.82,5.82,0,0,0,14.231,49.369Z" transform="translate(0 -48)" fill="#9e9e9e"/>
    </g>
  </g>
</svg>
