<svg xmlns="http://www.w3.org/2000/svg" width="67" height="67" viewBox="0 0 67 67">
  <g id="Group_10498" data-name="Group 10498" transform="translate(0.179 0.155)">
    <circle id="Ellipse_183" data-name="Ellipse 183" cx="33.5" cy="33.5" r="33.5" transform="translate(-0.179 -0.155)" fill="#ee3e2d"/>
    <g id="hot-air-balloon" transform="translate(10.767 10.8)">
      <path id="Path_2866" data-name="Path 2866" d="M186.956,417.931h-5.79a4.484,4.484,0,0,1-4.484-4.484v-4.1H191.44v4.1A4.483,4.483,0,0,1,186.956,417.931Z" transform="translate(-160.247 -371.302)" fill="#db2817"/>
      <path id="Path_2867" data-name="Path 2867" d="M23.755,13.323a3.206,3.206,0,0,0-3-2.116,3.44,3.44,0,0,0-1.821.519,3.814,3.814,0,0,0-6.649,3.225A2.64,2.64,0,0,0,10,17.567q0,.051,0,.1h9.81" transform="translate(-9.07 -9.443)" fill="rgba(197,197,197,0.51)"/>
      <path id="Path_2868" data-name="Path 2868" d="M359.866,240.051h13.21q.011-.138.012-.28a3.325,3.325,0,0,0-3.056-3.314s0-.008,0-.012a4.147,4.147,0,0,0-4.147-4.147,3.237,3.237,0,0,0-1.38.307" transform="translate(-326.389 -210.724)" fill="#faf7f5"/>
      <path id="Path_2869" data-name="Path 2869" d="M109.518,10.372A15.024,15.024,0,0,0,94.494,25.4c0,10.424,7.614,17.469,15.024,17.469" transform="translate(-85.704 -9.442)" fill="#faf7f5"/>
      <path id="Path_2870" data-name="Path 2870" d="M256,42.865c7.166,0,15.024-7.044,15.024-17.469A15.024,15.024,0,0,0,256,10.372" transform="translate(-232.186 -9.442)" fill="#ee3e2d"/>
      <path id="Path_2871" data-name="Path 2871" d="M169.069,10.372c-4.924,0-8.916,6.727-8.916,15.024,0,10.424,4.518,17.469,8.916,17.469" transform="translate(-145.255 -9.442)" fill="#d2a19c"/>
      <path id="Path_2872" data-name="Path 2872" d="M256,42.865c4.253,0,8.916-7.044,8.916-17.469,0-8.3-3.992-15.024-8.916-15.024" transform="translate(-232.186 -9.442)" fill="#faf7f5"/>
      <path id="Path_2873" data-name="Path 2873" d="M44.515,25.321a5.086,5.086,0,0,0-5.018-4.3c-.092,0-.18,0-.265.007a20.575,20.575,0,0,0,.537-4.7A15.948,15.948,0,0,0,15.055,3a4.028,4.028,0,0,0-3.37-1.791,4.383,4.383,0,0,0-1.637.316,4.743,4.743,0,0,0-7.84,3.592q0,.04,0,.081A3.585,3.585,0,0,0,0,8.5q0,.069,0,.137a.93.93,0,0,0,.93.9h8.45a15.86,15.86,0,0,0-1.522,6.8A19.428,19.428,0,0,0,12.84,29.6,16.67,16.67,0,0,0,17.4,33.1v4.383h-.961a.93.93,0,0,0-.93.93v4.1a5.42,5.42,0,0,0,5.414,5.414h5.79a5.42,5.42,0,0,0,5.414-5.414v-4.1a.93.93,0,0,0-.93-.93h-.961V33.054a16.779,16.779,0,0,0,3.425-2.424h13.03a.93.93,0,0,0,.927-.854c.01-.119.015-.238.015-.356a4.282,4.282,0,0,0-3.114-4.1ZM23.814,2.232c2.04,0,3.995,1.4,5.5,3.945A20.194,20.194,0,0,1,31.8,16.326a25.682,25.682,0,0,1-2.747,12.193c-1.248,2.252-2.8,3.753-4.309,4.2V10.983a.93.93,0,0,0-1.861,0V32.735c-1.552-.431-3.1-1.913-4.361-4.212a25.944,25.944,0,0,1-2.694-12.2A20.194,20.194,0,0,1,18.31,6.178c1.51-2.544,3.465-3.945,5.5-3.945Zm0,32.493a13.2,13.2,0,0,0,4.557-.838v3.6H19.258V33.916A13.544,13.544,0,0,0,23.814,34.725ZM2.076,7.668A1.71,1.71,0,0,1,3.34,6.8a.93.93,0,0,0,.787-1.108A2.883,2.883,0,0,1,9.154,3.256a.93.93,0,0,0,1.2.19,2.517,2.517,0,0,1,1.33-.379,2.166,2.166,0,0,1,1.877,1.044,16.084,16.084,0,0,0-3.143,3.556ZM14.207,28.339A17.575,17.575,0,0,1,9.72,16.326,14.113,14.113,0,0,1,17.883,3.542,13.6,13.6,0,0,0,16.71,5.228a22.066,22.066,0,0,0-2.742,11.1,27.81,27.81,0,0,0,2.923,13.091A15.055,15.055,0,0,0,18.2,31.425a14.833,14.833,0,0,1-3.992-3.086ZM30.263,39.347v3.171a3.557,3.557,0,0,1-3.553,3.553H20.92a3.557,3.557,0,0,1-3.553-3.553V39.347Zm3.071-11.012a15.257,15.257,0,0,1-3.942,3.059,15.479,15.479,0,0,0,1.289-1.974,27.551,27.551,0,0,0,2.98-13.094,22.066,22.066,0,0,0-2.742-11.1,13.6,13.6,0,0,0-1.173-1.686,14.113,14.113,0,0,1,8.163,12.784A17.474,17.474,0,0,1,33.334,28.335Zm2.094.434a18.707,18.707,0,0,0,3.215-5.724,2.078,2.078,0,0,1,.854-.168,3.22,3.22,0,0,1,3.217,3.207c0,.008,0,.016,0,.022a.93.93,0,0,0,.856.927,2.409,2.409,0,0,1,2.109,1.736Z" transform="translate(0 -0.372)"/>
      <path id="Path_2874" data-name="Path 2874" d="M246.945,61.3a.93.93,0,1,1,.91-.742A.941.941,0,0,1,246.945,61.3Z" transform="translate(-223.13 -53.946)"/>
    </g>
  </g>
</svg>
