<svg xmlns="http://www.w3.org/2000/svg" width="67" height="67" viewBox="0 0 67 67">
  <g id="Group_10499" data-name="Group 10499" transform="translate(0.313 0.155)">
    <circle id="Ellipse_184" data-name="Ellipse 184" cx="33.5" cy="33.5" r="33.5" transform="translate(-0.313 -0.155)" fill="#8992a3"/>
    <g id="balloons" transform="translate(9.32 11.983)">
      <g id="cloud-internet-symbol" transform="translate(0 1.556)">
        <path id="Path_2904" data-name="Path 2904" d="M10.816,97.788l-2.383-.864-1.9.864L5.98,98.859H4.564L3.355,99.93l-1.554.449L.661,102l.553,1.52,2.556.967H8.606Z" transform="translate(-0.363 -96.508)" fill="#e1e1e1"/>
        <path id="Path_2903" data-name="Path 2903" d="M8.334,96.833a2.5,2.5,0,0,1,2.5,2.469c-.007.05-.011.1-.013.153l-.021.612.579.2a1.66,1.66,0,0,1-.545,3.231H2.5a1.667,1.667,0,0,1-.026-3.333c.039.006.08.011.12.013l.633.042.208-.6a1.617,1.617,0,0,1,1.856-1.092l.584.1.291-.517a2.5,2.5,0,0,1,2.168-1.286m0-.833a3.32,3.32,0,0,0-2.895,1.711,2.451,2.451,0,0,0-2.79,1.637c-.05,0-.1-.015-.149-.015a2.5,2.5,0,0,0,0,5h8.334a2.494,2.494,0,0,0,.819-4.852c0-.05.015-.1.015-.148A3.334,3.334,0,0,0,8.334,96Z" transform="translate(0 -96)" stroke="#2c2d39" stroke-width="1"/>
      </g>
      <path id="Path_2902" data-name="Path 2902" d="M6448.229,1990.367a12.109,12.109,0,0,1,8.8,3.187l2.959,6.147-.759,8.2-4.933,7.057-3.794,1.594h-2.732l-4.781-2.2-3.187-4.933-2.125-7.058,2.125-8.348A12.114,12.114,0,0,1,6448.229,1990.367Z" transform="translate(-6417.641 -1980.983)" fill="#c5c5c5"/>
      <path id="Path_2901" data-name="Path 2901" d="M6448.229,1990.367a12.109,12.109,0,0,1,8.8,3.187l2.959,6.147-.759,8.2-4.933,7.057-3.794,1.594h-2.732l-4.781-2.2-3.187-4.933-2.125-7.058,2.125-8.348A12.114,12.114,0,0,1,6448.229,1990.367Z" transform="translate(-6431.162 -1989.546)" fill="#56667a"/>
      <path id="Path_2895" data-name="Path 2895" d="M185.79,38.29a7.089,7.089,0,0,1,1.334.6.686.686,0,1,0,.689-1.187,8.466,8.466,0,0,0-1.593-.711.686.686,0,1,0-.43,1.3Z" transform="translate(-165.2 -33.571)"/>
      <path id="Path_2896" data-name="Path 2896" d="M225.424,70.227a14.171,14.171,0,0,1-.353,3.11.686.686,0,1,0,1.339.3,15.544,15.544,0,0,0,.387-3.412,9.673,9.673,0,0,0-1.738-5.932.686.686,0,1,0-1.1.823A8.345,8.345,0,0,1,225.424,70.227Z" transform="translate(-200.181 -58.163)"/>
      <path id="Path_2897" data-name="Path 2897" d="M79.223,182.459a11.816,11.816,0,0,1-4.079-5.967.686.686,0,1,0-1.3.43,13.028,13.028,0,0,0,4.609,6.671.686.686,0,1,0,.773-1.134Z" transform="translate(-63.89 -159.916)"/>
      <path id="Path_2898" data-name="Path 2898" d="M66.407,11.207a11.68,11.68,0,0,0-8.242-3.155,13.531,13.531,0,0,0-2.007.149,11.032,11.032,0,0,0-2.925-5.045A11.68,11.68,0,0,0,44.989,0a11.68,11.68,0,0,0-8.242,3.155,12.076,12.076,0,0,0-3.423,8.91,18.9,18.9,0,0,0,3.34,10.609,11.365,11.365,0,0,0,6.427,4.82,2.137,2.137,0,0,0-.251,1.007v1.464a.686.686,0,0,0,.686.686h.737a4.251,4.251,0,0,1-.282,1.024,6.073,6.073,0,0,0,0,4.385,4.7,4.7,0,0,1,0,3.423,5.464,5.464,0,0,0-.41,2.193.686.686,0,0,0,1.372,0,4.126,4.126,0,0,1,.322-1.711,6.075,6.075,0,0,0,0-4.386,4.7,4.7,0,0,1,0-3.421,5.414,5.414,0,0,0,.377-1.506h.81a.686.686,0,0,0,.686-.686V28.5a2.137,2.137,0,0,0-.251-1.007,8.537,8.537,0,0,0,1.028-.32c1.8,4.434,4.929,7.52,8.353,8.366a2.137,2.137,0,0,0-.254,1.013v1.464a.686.686,0,0,0,.686.686h.737a4.251,4.251,0,0,1-.282,1.024,5.458,5.458,0,0,0-.41,2.192.686.686,0,1,0,1.372,0,4.119,4.119,0,0,1,.322-1.71,5.414,5.414,0,0,0,.377-1.506h.81a.686.686,0,0,0,.686-.686V36.553a2.137,2.137,0,0,0-.251-1.007,11.366,11.366,0,0,0,6.427-4.82,18.9,18.9,0,0,0,3.34-10.609,12.075,12.075,0,0,0-3.423-8.91ZM37.787,21.886A17.494,17.494,0,0,1,34.7,12.065,10.74,10.74,0,0,1,37.7,4.139a10.318,10.318,0,0,1,7.285-2.766,10.318,10.318,0,0,1,7.285,2.766,10.74,10.74,0,0,1,3.008,7.926,17.494,17.494,0,0,1-3.091,9.821c-2.019,2.879-4.577,4.465-7.2,4.465S39.806,24.765,37.787,21.886ZM45.766,28.5v.778H44.211V28.5a.778.778,0,1,1,1.555,0Zm13.175,8.052v.778H57.386v-.778a.778.778,0,0,1,1.555,0Zm6.424-6.615c-2.019,2.879-4.577,4.465-7.2,4.465a7.951,7.951,0,0,1-5.355-2.332,15.35,15.35,0,0,1-3.649-5.481,10.631,10.631,0,0,0,1.31-.872,12.694,12.694,0,0,0,4.376,6.012.686.686,0,1,0,.773-1.134,11.756,11.756,0,0,1-4.041-5.853,15.044,15.044,0,0,0,1.735-2.068,18.9,18.9,0,0,0,3.34-10.609,15.305,15.305,0,0,0-.2-2.522,12.188,12.188,0,0,1,1.713-.119,10.318,10.318,0,0,1,7.285,2.766,10.74,10.74,0,0,1,3.008,7.926,17.494,17.494,0,0,1-3.091,9.821Z" transform="translate(-27.111 0)"/>
      <path id="Path_2899" data-name="Path 2899" d="M369.058,152.294a.686.686,0,0,0-1.1.823,8.345,8.345,0,0,1,1.464,5.11,14.173,14.173,0,0,1-.353,3.11.686.686,0,1,0,1.339.3,15.544,15.544,0,0,0,.387-3.412A9.674,9.674,0,0,0,369.058,152.294Z" transform="translate(-331.005 -138.11)"/>
      <path id="Path_2900" data-name="Path 2900" d="M331.813,125.7a8.467,8.467,0,0,0-1.593-.711.686.686,0,1,0-.43,1.3,7.089,7.089,0,0,1,1.334.6.686.686,0,0,0,.689-1.187Z" transform="translate(-296.025 -113.52)"/>
      <g id="cloud-internet-symbol-2" data-name="cloud-internet-symbol" transform="translate(34.712 34.271)">
        <path id="Path_2903-2" data-name="Path 2903" d="M6.974,96.7a2.094,2.094,0,0,1,2.092,2.066c-.005.042-.01.084-.011.128l-.018.512.485.169a1.39,1.39,0,0,1-.456,2.7H2.092a1.395,1.395,0,0,1-.022-2.79c.033,0,.067.009.1.011l.53.035.174-.5a1.353,1.353,0,0,1,1.553-.914l.488.088.243-.432A2.092,2.092,0,0,1,6.974,96.7m0-.7a2.778,2.778,0,0,0-2.423,1.432A2.051,2.051,0,0,0,2.217,98.8c-.042,0-.082-.012-.125-.012a2.092,2.092,0,0,0,0,4.184H9.066a2.087,2.087,0,0,0,.685-4.061c0-.042.012-.082.012-.124A2.79,2.79,0,0,0,6.974,96Z" transform="translate(0 -96)" stroke="#2c2d39" stroke-width="1"/>
      </g>
    </g>
  </g>
</svg>
