<svg xmlns="http://www.w3.org/2000/svg" width="67" height="67" viewBox="0 0 67 67">
  <g id="Group_10497" data-name="Group 10497" transform="translate(0.027 0.078)">
    <circle id="Ellipse_182" data-name="Ellipse 182" cx="33.5" cy="33.5" r="33.5" transform="translate(-0.027 -0.078)" fill="#f68f31"/>
    <g id="Group_10122" data-name="Group 10122" transform="translate(7.088 18.196)">
      <g id="airship">
        <g id="cloud-internet-symbol" transform="translate(0 3.831)">
          <path id="Path_2904" data-name="Path 2904" d="M9.68,97.691l-2.117-.767-1.687.767-.491.951H4.127l-1.074.951-1.38.4L.661,101.434l.491,1.35,2.27.859H7.716Z" transform="translate(-0.397 -96.555)" fill="#e1e1e1"/>
          <path id="Path_2903" data-name="Path 2903" d="M7.4,96.74a2.223,2.223,0,0,1,2.22,2.193c-.006.045-.01.09-.012.136l-.019.544.515.179a1.475,1.475,0,0,1-.484,2.869H2.22A1.48,1.48,0,0,1,2.2,99.7c.035.005.071.009.107.012l.562.037.185-.531a1.436,1.436,0,0,1,1.648-.97l.518.093.258-.459A2.22,2.22,0,0,1,7.4,96.74m0-.74A2.948,2.948,0,0,0,4.83,97.519a2.177,2.177,0,0,0-2.478,1.454c-.044,0-.087-.013-.132-.013a2.22,2.22,0,0,0,0,4.441h7.4a2.215,2.215,0,0,0,.727-4.309c0-.045.013-.087.013-.132A2.96,2.96,0,0,0,7.4,96Z" transform="translate(0 -96)" stroke="#2c2d39" stroke-width="1"/>
        </g>
        <path id="Path_2881" data-name="Path 2881" d="M5760.714,2010.083s1.853,4.531,1.853,7.414-1.853,10.092-1.853,10.092-4.943-4.119-4.943-10.092A7.449,7.449,0,0,1,5760.714,2010.083Z" transform="translate(-5749.016 -2004.414)" fill="#ff7a00"/>
        <path id="Path_2883" data-name="Path 2883" d="M17.641,89.678v5.355A36.015,36.015,0,0,0,30.566,97.3c6.8-.206,17.506-3.5,17.506-3.5l-1.236-4.12Z" transform="translate(-4.089 -75.255)" fill="#fae1cb"/>
        <path id="Path_2882" data-name="Path 2882" d="M44.294,67.174s-15.653-7-31.1-1.442c0,.206-1.441-3.3-1.441-3.3s2.883-4.943,14.417-4.531S44.294,67.174,44.294,67.174Z" transform="translate(-0.723 -57.076)" fill="#f90"/>
        <path id="Path_2884" data-name="Path 2884" d="M17.641,73.464v5.149H46.63l1.03-5.149A84.419,84.419,0,0,0,30.772,71.4C22.534,71.4,17.641,73.464,17.641,73.464Z" transform="translate(-4.089 -64.807)" fill="#faf7f5"/>
        <path id="Path_2885" data-name="Path 2885" d="M44.294,57.882s-15.653,7-31.1,1.442c0-.206-1.441,3.3-1.441,3.3s2.883,4.943,14.417,4.531S44.294,57.882,44.294,57.882Z" transform="translate(-0.723 -40.374)" fill="#faf7f5"/>
        <path id="Path_2886" data-name="Path 2886" d="M90.178,73.177l5.552,5.192v-8.8Z" transform="translate(-45.562 -63.76)" fill="#f90"/>
        <path id="Path_2887" data-name="Path 2887" d="M90.178,74.764l5.552-5.192v8.8Z" transform="translate(-45.562 -56.051)" fill="#fae1cb"/>
        <path id="Path_2878" data-name="Path 2878" d="M44.7,61.035a.879.879,0,0,0-1.027-.145l-5.7,3.048C32.838,60.239,25.508,56,18.883,56c-5.894,0-10.825,1.523-14.261,4.4a12.382,12.382,0,0,0,0,19.3,16.791,16.791,0,0,0,4.236,2.561l1.749,6.3a3.524,3.524,0,0,0,3.385,2.573h8.29a3.524,3.524,0,0,0,3.385-2.573L27.433,82.2a52.531,52.531,0,0,0,10.538-6.03l5.7,3.048a.879.879,0,0,0,1.039-.157.908.908,0,0,0,.253-.644V61.694A.912.912,0,0,0,44.7,61.035ZM8.413,70.93H36.376a20.874,20.874,0,0,0,.335,3.006c.005.028.011.056.017.084-7.762,2.029-13.765,3.058-17.845,3.058-4.714,0-8.45-.6-11.124-1.79A20.052,20.052,0,0,0,8.413,70.93Zm-.654-6.114c2.674-1.188,6.41-1.79,11.124-1.79,4.084,0,10.091,1.03,17.862,3.062-.007.041-.013.08-.02.118a20.983,20.983,0,0,0-.322,2.57c-.008.132-.015.264-.021.4v0H8.413s0,0,0-.005A20.049,20.049,0,0,0,7.758,64.816Zm30.7,8.78c-.074-.295-.21-1.258-.225-1.4a19.408,19.408,0,0,1-.112-2.1,18.939,18.939,0,0,1,.337-3.593.012.012,0,0,1,.02-.007c1.957,1.491,3.475,2.8,4.306,3.548a.012.012,0,0,1,0,.018c-.829.743-2.346,2.054-4.3,3.547C38.465,73.614,38.457,73.607,38.454,73.6ZM18.883,57.757c5.223,0,11.036,2.918,15.682,5.967C27.9,62.094,22.636,61.27,18.883,61.27c-4.859,0-8.777.628-11.667,1.867l0,0a13.852,13.852,0,0,0-.868-1.846v0C9.429,58.972,13.744,57.757,18.883,57.757ZM1.757,70.052a10.459,10.459,0,0,1,3.223-7.6,16.626,16.626,0,0,1,1.695,7.6,16.626,16.626,0,0,1-1.695,7.6A10.459,10.459,0,0,1,1.757,70.052ZM23.974,88.087a1.762,1.762,0,0,1-1.692,1.286h-8.29A1.762,1.762,0,0,1,12.3,88.087L10.885,83a27.374,27.374,0,0,0,8,1.105A21.026,21.026,0,0,0,25.4,82.946Zm-5.091-5.74c-5.139,0-9.454-1.216-12.541-3.525,0,0,0,0,0,0a13.842,13.842,0,0,0,.865-1.838.054.054,0,0,0,.008-.014c2.89,1.239,6.807,1.867,11.667,1.867,3.753,0,9.018-.825,15.682-2.454C29.92,79.428,24.107,82.348,18.883,82.348ZM43.21,76.954a.012.012,0,0,1-.018.011l-3.643-1.947a.012.012,0,0,1,0-.02c1.511-1.151,2.756-2.188,3.643-2.957a.012.012,0,0,1,.02.009v4.9Zm0-8.9a.012.012,0,0,1-.02.009c-.887-.769-2.132-1.806-3.643-2.957a.012.012,0,0,1,0-.02l3.643-1.947a.012.012,0,0,1,.018.011v4.9Z" transform="translate(5.997 -56)"/>
        <path id="Path_2879" data-name="Path 2879" d="M237.878,397.757a.878.878,0,1,0-.878-.878A.88.88,0,0,0,237.878,397.757Z" transform="translate(-210.188 -366.139)"/>
        <path id="Path_2880" data-name="Path 2880" d="M161.391,396h-3.513a.878.878,0,1,0,0,1.757h3.513a.878.878,0,1,0,0-1.757Z" transform="translate(-137.214 -366.139)"/>
      </g>
      <g id="cloud-internet-symbol-2" data-name="cloud-internet-symbol" transform="translate(37.877 27.729)">
        <path id="Path_2903-2" data-name="Path 2903" d="M7.4,96.74a2.223,2.223,0,0,1,2.22,2.193c-.006.045-.01.09-.012.136l-.019.544.515.179a1.475,1.475,0,0,1-.484,2.869H2.22A1.48,1.48,0,0,1,2.2,99.7c.035.005.071.009.107.012l.562.037.185-.531a1.436,1.436,0,0,1,1.648-.97l.518.093.258-.459A2.22,2.22,0,0,1,7.4,96.74m0-.74A2.948,2.948,0,0,0,4.83,97.519a2.177,2.177,0,0,0-2.478,1.454c-.044,0-.087-.013-.132-.013a2.22,2.22,0,0,0,0,4.441h7.4a2.215,2.215,0,0,0,.727-4.309c0-.045.013-.087.013-.132A2.96,2.96,0,0,0,7.4,96Z" transform="translate(0 -96)" stroke="#2c2d39" stroke-width="1"/>
      </g>
    </g>
  </g>
</svg>
