<svg id="saudi-arabia" xmlns="http://www.w3.org/2000/svg" width="30.094" height="21.735" viewBox="0 0 30.094 21.735">
  <g id="Group_9827" data-name="Group 9827" transform="translate(0 0)">
    <g id="Group_9826" data-name="Group 9826">
      <path id="Path_2747" data-name="Path 2747" d="M26.75,26.111H3.344A3.344,3.344,0,0,0,0,29.455V44.5a3.344,3.344,0,0,0,3.344,3.344H26.75A3.344,3.344,0,0,0,30.094,44.5V29.455a3.344,3.344,0,0,0-3.344-3.344" transform="translate(0 -26.111)" fill="#006c35"/>
      <g id="Group_9825" data-name="Group 9825" transform="translate(6.984 5.016)">
        <path id="Path_2748" data-name="Path 2748" d="M120.48,116.236c-.038.514-.084,1.418.353,1.511.528.051.237-.894.428-1.065.036-.084.1-.084.108.022v.8a.385.385,0,0,0,.3.39c.139-.01.232-.006.286.129q.033.692.064,1.386s.322.092.337-.78a8.181,8.181,0,0,1-.033-1.039c0-.1.127-.1.214-.056.138.1.2.217.414.17.327-.09.522-.249.527-.5a2.188,2.188,0,0,0-.149-.715c.014-.043-.063-.155-.049-.2.059.092.147.084.168,0a.718.718,0,0,0-.282-.435c-.115-.1-.284-.08-.346.132a1.155,1.155,0,0,0,.266.771.751.751,0,0,1,.068.385.207.207,0,0,1-.269-.053s-.26-.195-.26-.238a.926.926,0,0,0-.023-.614.84.84,0,0,0-.171-.339c-.065-.069-.153-.069-.195,0a1.157,1.157,0,0,0,.022.818c.059.176.151.287.108.287-.036.1-.109.076-.163-.038a2.847,2.847,0,0,1-.092-.751c-.023-.2-.048-.619-.178-.726-.079-.108-.2-.056-.238.044a3.5,3.5,0,0,0,.013.573,6.276,6.276,0,0,1,.161.921c.012.435-.252.188-.239-.027a1.983,1.983,0,0,0-.009-.833c-.043-.111-.094-.14-.2-.121-.082,0-.3.227-.354.613a3.52,3.52,0,0,0-.073.374c-.029.2-.161.339-.252-.028-.079-.267-.128-.925-.261-.771" transform="translate(-120.361 -115.197)" fill="#fff"/>
        <path id="Path_2749" data-name="Path 2749" d="M123.231,161.43c-.466.227-.917.44-1.375.66a1.4,1.4,0,0,1,1.088-.883c.282.008.211.11.287.222" transform="translate(-121.678 -158.283)" fill="#fff"/>
        <path id="Path_2750" data-name="Path 2750" d="M135.118,118.607c-.015.028-.081.017-.13.017a.122.122,0,0,1-.115-.056c-.016-.05.032-.1.053-.135a.126.126,0,0,1,.215.034.14.14,0,0,1-.023.14m2.143-.683c-.011.066-.021.132-.031.2s-.14.067-.145-.015c-.056-.255-.288-.288-.429.107-.094.077-.265.093-.283-.023.023-.265-.085-.3-.3-.176-.069-.525-.137-1.027-.206-1.553.089,0,.171.064.252-.038a2.823,2.823,0,0,0-.383-.888c-.051-.062-.094-.023-.161-.008a.263.263,0,0,0-.184.322c.133.807.22,1.421.353,2.228.02.094-.059.219-.161.206-.173-.117-.217-.355-.512-.344a.576.576,0,0,0-.491.459,1.126,1.126,0,0,0,0,.528.431.431,0,0,0,.491.123c.13-.054.237-.184.283-.153s.008.466-.612.8c-.375.168-.674.206-.834-.1-.1-.191.007-.919-.237-.751-.725,1.868,1.7,2.128,1.967.077.026-.084.128-.169.145-.031-.056,1.857-1.873,1.985-2.181,1.4a1.788,1.788,0,0,1-.108-.628c-.046-.364-.237-.224-.267.138a2.236,2.236,0,0,0-.023.451c.1,1.467,2.438.837,2.817-.374.2-.671-.033-1.166.077-1.164.232.251.556.034.627-.053a.105.105,0,0,1,.161-.016.377.377,0,0,0,.567-.161,5.169,5.169,0,0,0,.076-.7c-.148.046-.257.076-.267.138" transform="translate(-132.358 -115.264)" fill="#fff"/>
        <path id="Path_2751" data-name="Path 2751" d="M185.8,115.183h0a.128.128,0,0,1-.127-.087c-.027-.059-.013-.115.031-.125h0c.043-.011.1.028.127.087s.013.115-.031.125m.124,0a.273.273,0,0,0,.027-.417.414.414,0,0,0-.371,0,.313.313,0,0,0-.053.414c.092.044.184.136.122.187-.282.3-1.053.821-.964.838a1.755,1.755,0,0,0,.508,0,7.038,7.038,0,0,0,.835-.842c-.036-.031-.068-.053-.1-.084s-.034-.066,0-.1" transform="translate(-180.81 -114.532)" fill="#fff"/>
        <path id="Path_2752" data-name="Path 2752" d="M119.055,186.368a1.362,1.362,0,0,0-.138,1.21.3.3,0,0,0,.293.1.538.538,0,0,0,.194-.52c-.053-.084-.1-.1-.15-.026-.114.232-.162.073-.171-.057a3.031,3.031,0,0,1,.032-.651c.028-.184,0-.128-.059-.053" transform="translate(-118.829 -181.899)" fill="#fff"/>
        <path id="Path_2753" data-name="Path 2753" d="M269.311,116.472c-.251-.538-.6-1.069-.706-1.273s-.941-1.41-1.062-1.546c-.27-.321.437.134-.09-.5-.2-.173-.213-.183-.38-.324-.084-.06-.289-.169-.326.012a1.044,1.044,0,0,0,.018.38,1.314,1.314,0,0,0,.213.323,24.175,24.175,0,0,1,2.311,3.716c.114-.054.089-.694.023-.783" transform="translate(-258.042 -112.662)" fill="#fff"/>
        <path id="Path_2754" data-name="Path 2754" d="M291.746,120.2c-.049.055.121.292.343.292a1.3,1.3,0,0,0,1-.8,1.419,1.419,0,0,0,.227-.613,13.425,13.425,0,0,0-.248-3.107.5.5,0,0,1,.01-.217c.023-.028.105,0,.148-.07.064-.065-.168-.6-.3-.807-.046-.092-.063-.154-.14.011a1.154,1.154,0,0,0-.13.584c.176,1.224.231,2.294.346,3.517a.479.479,0,0,1-.087.359,3.428,3.428,0,0,1-1.167.85" transform="translate(-281.574 -114.593)" fill="#fff"/>
        <path id="Path_2755" data-name="Path 2755" d="M373.7,123.978c-.265.155-.266.331-.051.337a1.324,1.324,0,0,0,1.11-.529,1.762,1.762,0,0,0,.181-.686,13.253,13.253,0,0,0-.2-3.067,1.744,1.744,0,0,1-.036-.315c.024-.062.145.007.188-.064.063-.064-.313-.547-.444-.753-.048-.093-.064-.154-.141.01a.956.956,0,0,0-.078.585,27.686,27.686,0,0,1,.373,3.5,1.207,1.207,0,0,1-.074.313,2.455,2.455,0,0,1-.364.425c-.12.089-.377.176-.461.242" transform="translate(-358.53 -118.376)" fill="#fff"/>
        <path id="Path_2756" data-name="Path 2756" d="M366.77,121.148c0-.311,0-.578-.006-.811a1.431,1.431,0,0,0-.131-.584,2.106,2.106,0,0,1-.064-.506c-.035-.188-.026-.469-.08-.692a2.539,2.539,0,0,1-.047-.392c.023-.063.105,0,.146-.07a2.476,2.476,0,0,0-.35-.976c-.049-.09-.14-.059-.252.088-.1.1-.065.318-.026.527a17.609,17.609,0,0,1,.42,3.962c-.013.113.393-.334.39-.547" transform="translate(-351.396 -116.736)" fill="#fff"/>
        <path id="Path_2757" data-name="Path 2757" d="M336.761,139.882c-.167,0-.517-.325-.619-.514a.346.346,0,0,1,.02-.276c.061-.04.157-.085.228-.043,0,0,.074.1.059.117.091.044.13.018.14-.018.006-.065-.027-.1-.028-.176a.194.194,0,0,1,.344-.1.742.742,0,0,1,.093.344c0,.056-.09-.009-.142,0s-.063.072-.067.124c-.009.141-.025.367-.029.537" transform="translate(-323.35 -137.191)" fill="#fff"/>
        <path id="Path_2758" data-name="Path 2758" d="M281.6,120.017a12.716,12.716,0,0,0-.021-1.423c-.017-.589-.114-1.725-.16-1.915-.051-.358.148.039.12-.169a2.3,2.3,0,0,0-.5-.927c-.075-.106-.073-.128-.189.027a1.078,1.078,0,0,0,.016.718,13.453,13.453,0,0,1,.312,2.091,16.964,16.964,0,0,1,.018,2.107c.125,0,.328-.2.4-.509" transform="translate(-271.277 -115.261)" fill="#fff"/>
        <path id="Path_2759" data-name="Path 2759" d="M345.242,121.206c-.3-.495-.74-1.03-.858-1.23s-1.124-1.5-1.253-1.626c-.367-.386.17-.063-.069-.361a2.9,2.9,0,0,0-.435-.425c-.087-.056-.14-.163-.168.02a3.663,3.663,0,0,0-.013.481.65.65,0,0,0,.145.3,24.763,24.763,0,0,1,2.646,3.619c.112-.058.075-.69,0-.777" transform="translate(-329.299 -117.127)" fill="#fff"/>
        <path id="Path_2760" data-name="Path 2760" d="M209.431,112.229c-.268.767.154,1.606.446,1.525.212.087.346-.314.432-.755.059-.124.1-.136.134-.074-.007.586.043.716.193.893a.487.487,0,0,0,.635.012l.261-.262a.157.157,0,0,1,.217-.011c.08.073.069.2.24.285a.527.527,0,0,0,.522-.111c.1-.164.12-.221.163-.283.069-.091.186-.051.186-.022-.011.051-.079.1-.033.193.082.061.1.022.149.008.171-.082.3-.452.3-.452.007-.138-.069-.126-.12-.1-.066.039-.069.053-.135.093-.083.013-.245.068-.324-.056a4.739,4.739,0,0,1-.145-.506c0-.012-.109-.237-.007-.251.051.009.16.038.176-.053.053-.089-.115-.341-.228-.468a.248.248,0,0,0-.37-.011c-.094.086-.08.181-.1.272a.425.425,0,0,0,.088.37,1.128,1.128,0,0,1,.206.751.3.3,0,0,1-.272.137c-.072-.016-.189-.047-.251-.507-.048-.348.011-.836-.137-1.064-.054-.138-.092-.271-.222-.035a.545.545,0,0,0-.076.522.787.787,0,0,1-.072,1.035.256.256,0,0,1-.331.045.356.356,0,0,1-.2-.279,3.8,3.8,0,0,0-.031-.9.162.162,0,0,0-.272-.054,2.045,2.045,0,0,0-.494,1.012c-.076.247-.157.176-.214.076-.139-.129-.148-1.147-.316-.98" transform="translate(-204.025 -111.611)" fill="#fff"/>
        <path id="Path_2761" data-name="Path 2761" d="M178.064,151.064c-.169.058-.33.1-.331.347.062.339-.086.222-.174.176a.885.885,0,0,1-.437-.642.165.165,0,0,1,.182-.171,4.771,4.771,0,0,0,.657.074c.182.012.273.155.1.215m.632-1.588c.024-.04.1-.038.174,0s.114.109.09.149h0c-.023.04-.1.038-.175-.005S178.673,149.516,178.7,149.475Zm1.214.934-1.572-.007c-.081-.031-.058-.058,0-.079.375-.051,1.043-.161,1.087-.8a.527.527,0,1,0-1.034.023c-.014.086.028.255-.059.274-.578.053-1.207.414-1.228.673-.036.024-.114-.046-.1-.156a3.107,3.107,0,0,0-.4-1.343c-.182-.181-.125-.121-.247-.035a.394.394,0,0,0-.089.332c0,.006.147.417.272.7a2.179,2.179,0,0,1,.1.95,2.335,2.335,0,0,1-.96,1,.483.483,0,0,1-.4,0,.241.241,0,0,1-.1-.231,2.269,2.269,0,0,0,.964-1,1.026,1.026,0,0,0,.026-.718.7.7,0,0,0-.165-.333c.05-.033.2.078.219.012a1.034,1.034,0,0,0-.277-.51.233.233,0,0,0-.339-.021c-.117.065-.142.3-.086.5.062.154.23.18.35.489,0,.007.044.231-.018.318a3.782,3.782,0,0,1-.725.679c-.018.022-.009-.011-.012-.094-.005-.1.041-.343.028-.344-.208.135-.278.547-.315.669a9.882,9.882,0,0,0-1.467,1c-.18.28,1.236-.322,1.4-.395.036.028.032.153.131.267a.746.746,0,0,0,.762.246,2.427,2.427,0,0,0,1.1-.918c.043-.063.109-.11.171-.063a1.73,1.73,0,0,0,1.567.821c.178-.216.092-.32.021-.366,0-.007-.379-.15-.436-.294-.035-.13.049-.245.221-.332a7.686,7.686,0,0,0,1.445-.276,1.264,1.264,0,0,1,.159-.495c.062-.1.094-.071.084-.109Z" transform="translate(-170.14 -146.674)" fill="#fff"/>
        <path id="Path_2762" data-name="Path 2762" d="M152.522,115.169c.181.087.522.05.507-.242,0-.025-.007-.113-.009-.136-.037-.086-.137-.065-.161.024-.007.028.013.076-.013.091s-.073.006-.07-.074a.138.138,0,0,0-.03-.069.056.056,0,0,0-.04-.01c-.025,0-.025.007-.038.029a.235.235,0,0,0-.014.067c0,.028-.013.038-.035.043s-.018,0-.037-.009-.026-.018-.026-.038a.232.232,0,0,0-.012-.072.077.077,0,0,0-.044-.024c-.1,0-.105.113-.1.156-.008.008-.012.21.123.266" transform="translate(-150.423 -114.543)" fill="#fff"/>
        <path id="Path_2763" data-name="Path 2763" d="M242.734,153.309c.181.086.612.037.507-.242,0-.026-.006-.113-.009-.137-.037-.085-.137-.064-.161.024-.007.029.013.077-.013.091s-.073.007-.07-.074a.142.142,0,0,0-.03-.069.061.061,0,0,0-.04-.009c-.025,0-.024.007-.038.028a.251.251,0,0,0-.014.067c0,.029-.013.039-.034.043s-.018,0-.038-.009-.026-.018-.026-.038a.233.233,0,0,0-.012-.073.079.079,0,0,0-.044-.023c-.1,0-.106.113-.1.155-.008.008-.012.211.123.267" transform="translate(-235.332 -150.441)" fill="#fff"/>
        <path id="Path_2764" data-name="Path 2764" d="M295.356,137.5c.181.087.521.05.506-.242,0-.025-.006-.113-.008-.136-.037-.086-.137-.064-.16.024-.007.028.012.076-.013.091s-.073.006-.07-.074a.146.146,0,0,0-.03-.069.056.056,0,0,0-.04-.01c-.025,0-.025.007-.038.029a.242.242,0,0,0-.014.067c0,.028-.013.039-.035.043s-.018,0-.038-.009-.025-.017-.025-.038a.232.232,0,0,0-.012-.072.072.072,0,0,0-.044-.023c-.1,0-.105.113-.1.155-.008.008-.012.21.123.266" transform="translate(-284.862 -135.563)" fill="#fff"/>
        <path id="Path_2765" data-name="Path 2765" d="M321.456,121a1.1,1.1,0,0,0-.105,1.07.841.841,0,0,0,.39.444.273.273,0,0,0,.406-.044c.186-.192.188-.682.275-.78a.163.163,0,0,1,.289-.069.716.716,0,0,0,.263.227.443.443,0,0,0,.584.041.677.677,0,0,0,.311-.379,11.78,11.78,0,0,0,.022-2.021c-.008-.052-.18-.91-.18-.92s-.023-.439-.042-.541c0-.041-.013-.053.03-.048a.265.265,0,0,0,.08.054c.047.008.089-.071.061-.144q-.216-.4-.432-.8c-.034-.034-.079-.072-.134.009a.31.31,0,0,0-.107.237c.013.189.046.38.058.569q.087.484.172.968c.055.691.069,1.256.123,1.946-.008.293-.1.548-.184.584,0,0-.13.075-.217-.008a2.624,2.624,0,0,1-.317-.422.192.192,0,0,0-.307,0,4.241,4.241,0,0,0-.541,1.021c-.045.071-.171.131-.31,0a1.441,1.441,0,0,1-.191-.995" transform="translate(-309.36 -116.723)" fill="#fff"/>
        <path id="Path_2766" data-name="Path 2766" d="M295.564,115.545a.6.6,0,0,1,.239.557c-.032.2-.118.412-.18.385s.046-.2-.018-.378c-.036-.118-.257-.333-.235-.4-.045-.133.1-.191.194-.167" transform="translate(-284.986 -115.3)" fill="#fff"/>
        <path id="Path_2767" data-name="Path 2767" d="M319.983,120.34a4.882,4.882,0,0,0-.033-.867c-.011-.231-.262-2-.313-2.174-.061-.332.245-.044.212-.237-.106-.243-.37-.6-.453-.808-.05-.09-.028-.171-.14-.023a1.821,1.821,0,0,0-.1.824,17.03,17.03,0,0,1,.495,3.86c.126,0,.272-.288.333-.574" transform="translate(-307.366 -115.872)" fill="#fff"/>
        <path id="Path_2768" data-name="Path 2768" d="M377.66,125.011c.148.074.234.485.218.6-.029.214-.108.446-.165.416s.013-.318-.017-.41c-.033-.127-.234-.359-.213-.428a.14.14,0,0,1,.176-.181" transform="translate(-362.273 -124.209)" fill="#fff"/>
        <path id="Path_2769" data-name="Path 2769" d="M190.979,174.688c.141.054.224.356.208.443-.028.157-.1.328-.157.305s.013-.233-.016-.3c-.012-.161-.208-.245-.2-.314-.037-.129.082-.152.169-.134" transform="translate(-186.572 -170.966)" fill="#fff"/>
        <path id="Path_2770" data-name="Path 2770" d="M126.72,113.895c.209.063.221.369.206.459-.028.164-.1.34-.155.317s0-.242-.03-.311c-.031-.1-.207-.274-.187-.327-.039-.109.08-.157.166-.138" transform="translate(-126.092 -113.748)" fill="#fff"/>
        <path id="Path_2771" data-name="Path 2771" d="M196.808,138.194a.373.373,0,0,0-.122.494.239.239,0,0,0,.259.084c.157.019.25-.294.25-.294s0-.088-.181.079c-.079.014-.088-.015-.108-.059a.4.4,0,0,1,.024-.245c.028-.078-.033-.112-.122-.059" transform="translate(-192.064 -136.598)" fill="#fff"/>
        <path id="Path_2772" data-name="Path 2772" d="M215.96,111.485a.583.583,0,0,0-.246.41c0,.108-.024.108.046.176.051.074.1.067.206.013a.216.216,0,0,0,.1-.145c.024-.123-.13.058-.149-.079-.034-.127.064-.178.157-.3,0-.084,0-.143-.113-.075" transform="translate(-210.014 -111.456)" fill="#fff"/>
        <path id="Path_2773" data-name="Path 2773" d="M235.282,112.362a2.507,2.507,0,0,0-.069.476c-.028.119.125.17.194.017a1.474,1.474,0,0,0,.111-.519c-.033-.181-.155-.176-.236.026" transform="translate(-228.368 -112.161)" fill="#fff"/>
        <path id="Path_2774" data-name="Path 2774" d="M339.38,157.713c.02-.021.858-.617.858-.617.086-.03.067.308.028.305a3.343,3.343,0,0,1-.887.616c-.042.03-.084-.231,0-.3" transform="translate(-326.371 -154.411)" fill="#fff"/>
        <path id="Path_2775" data-name="Path 2775" d="M350.311,167.547c.148.074.206.506.19.624.006.228-.141.411-.2.381s.005-.283-.024-.375c-.033-.127-.158-.367-.136-.436a.144.144,0,0,1,.169-.195" transform="translate(-336.538 -164.245)" fill="#fff"/>
        <path id="Path_2776" data-name="Path 2776" d="M267.873,195.7a1.078,1.078,0,0,1,.242-.207.157.157,0,0,1,.159.028c.014.084-.052.16-.032.271.018.045.032.1.114.076a.6.6,0,0,1,.39-.118c.1,0,.106.178.042.179a2.934,2.934,0,0,0-.532.187.123.123,0,0,1-.155-.02.162.162,0,0,1-.014-.158c.006-.088-.029-.136-.1-.126-.056.03-.1.049-.132-.014-.011-.046-.015-.069.021-.1" transform="translate(-259.086 -190.54)" fill="#fff"/>
        <path id="Path_2777" data-name="Path 2777" d="M365.2,199.3a.107.107,0,0,1,0,.162c-.058.054-.1.084-.159.138-.028.048-.046.12.039.142.156.044.519-.191.519-.2a.116.116,0,0,0,.034-.127c-.034-.039-.111-.017-.164-.023-.024,0-.106-.012-.067-.084a.492.492,0,0,0,.065-.127c.025-.053,0-.089-.084-.119a.681.681,0,0,0-.226,0c-.053.011-.072.035-.081.1,0,.1.064.094.125.133" transform="translate(-350.543 -193.91)" fill="#fff"/>
        <path id="Path_2778" data-name="Path 2778" d="M168.565,268.725h-1.254v-.418a.418.418,0,0,0-.836,0v.418H156.444s0,.836,2.508.836h7.523v.418a.418.418,0,0,0,.836,0v-.418h.836v.418a.418.418,0,0,0,.836,0v-.836a.418.418,0,0,0-.418-.418" transform="translate(-154.233 -258.694)" fill="#fff"/>
      </g>
    </g>
  </g>
</svg>
