<svg xmlns="http://www.w3.org/2000/svg" xmlns:xlink="http://www.w3.org/1999/xlink" width="267" height="180" viewBox="0 0 267 180">
  <defs>
    <linearGradient id="linear-gradient" y1="0.5" x2="1" y2="0.5" gradientUnits="objectBoundingBox">
      <stop offset="0" stop-color="#8cc63f"/>
      <stop offset="0.54" stop-color="#8cc63f"/>
      <stop offset="1" stop-color="#80ad3a"/>
    </linearGradient>
  </defs>
  <g id="img" transform="translate(-991 -250)">
    <rect id="bg" width="267" height="180" rx="5" transform="translate(991 250)" fill="#fff"/>
    <g id="MUKYFY_Logo_Arb-02" data-name="MUKYFY Logo Arb-02" transform="translate(1048.867 259)">
      <g id="Group_10063" data-name="Group 10063" transform="translate(30.338)">
        <path id="Path_3649" data-name="Path 3649" d="M517.8,331.343l-.081-.068A47.624,47.624,0,0,0,487.288,318.6a.485.485,0,0,0-.111,0,.748.748,0,0,0-.17,0h-.085c.064.774.111,1.552.149,2.334a7.179,7.179,0,0,0,.025.736,5.685,5.685,0,0,1,0,.659v.906c0,.961,0,1.935-.043,2.9,0,.425-.034.816-.055,1.225-.043.8-.106,1.595-.183,2.394-.111,1.191-.264,2.373-.425,3.559a63.492,63.492,0,0,1-9,24.284l-.4-.387-.068-.068c-.327-.319-.655-.638-.969-.969-.043-.043-.085-.094-.128-.132-.157-.162-.31-.319-.464-.485-.272-.285-.54-.578-.8-.85s-.425-.48-.646-.723l-.914-1.05c-.366-.446-.731-.889-1.093-1.339a63.816,63.816,0,0,1-12.029-24.458c-.089-.378-.179-.761-.255-1.135-.306.187-.608.383-.9.591.043.247.085.51.123.761a79.812,79.812,0,0,0,9.55,26.631,80.787,80.787,0,0,0,5.251,7.956c.123.174.255.344.387.519A62.318,62.318,0,0,1,441,384.677a47.659,47.659,0,0,0,6.34,10.907c.174.234.353.468.54.7A47.84,47.84,0,1,0,517.8,331.343Zm-30.118-5.051v-.48C487.679,326,487.679,326.142,487.684,326.291Z" transform="translate(-437.376 -318.548)" fill="url(#linear-gradient)"/>
        <path id="Path_3650" data-name="Path 3650" d="M511.62,333.222a63.629,63.629,0,0,1-9,24.284,60.543,60.543,0,0,1-5.489-6.017A63.782,63.782,0,0,1,485.1,327.027c-.089-.379-.179-.761-.264-1.135a47.624,47.624,0,0,1,25.581-7.411c.574,0,1.144,0,1.7.034A63.709,63.709,0,0,1,511.62,333.222Z" transform="translate(-462.575 -318.48)" fill="#3178dd"/>
        <path id="Path_3651" data-name="Path 3651" d="M469.157,373.166a62.319,62.319,0,0,1-33.056,22.26l-.374-.923a47.9,47.9,0,0,1,18.118-57.2c.043.247.085.51.123.761a79.811,79.811,0,0,0,9.55,26.631,80.783,80.783,0,0,0,5.251,7.956C468.894,372.822,469.026,372.992,469.157,373.166Z" transform="translate(-432.478 -329.298)" fill="#2453b2"/>
      </g>
      <path id="Path_3652" data-name="Path 3652" d="M535.907,357.608q-.149-3.04-.523-6.068.357,2.976.425,6a65.033,65.033,0,0,1-.851,12.5,63.742,63.742,0,0,1-12.82,29.046q-1.016,1.276-2.084,2.5a60.033,60.033,0,0,1-6.612,6.506A62.276,62.276,0,0,1,475.4,422.907a47.8,47.8,0,0,0,17.859,8.8,78.707,78.707,0,0,0,25.215-20.746q2.326-2.9,4.363-5.991c.2-.293.387-.583.574-.88.85-1.344,1.7-2.709,2.462-4.1a79.214,79.214,0,0,0,8.347-22.026,76.309,76.309,0,0,0,1.573-11.055A78.737,78.737,0,0,0,535.907,357.608Z" transform="translate(-426.811 -337.483)" fill="#fff"/>
      <path id="Path_3653" data-name="Path 3653" d="M541.06,384.949a62.455,62.455,0,0,1-9.3-1.276c-1.254-.255-2.5-.561-3.729-.906a61.534,61.534,0,0,1-11.57-4.49,63.039,63.039,0,0,1-11.965-7.947c-1.059-.893-2.092-1.82-3.1-2.806a61.6,61.6,0,0,1-5.485-6.021,63.816,63.816,0,0,1-12.029-24.458c-.089-.378-.179-.761-.255-1.135-.306.187-.608.383-.9.591.043.247.085.51.123.761a79.566,79.566,0,0,0,15.188,35.105q1.582,2.092,3.342,4.1a76.055,76.055,0,0,0,9.95,9.614,75.152,75.152,0,0,0,8.007,5.689q2.458,1.535,5.03,2.87a78.537,78.537,0,0,0,24.722,8.113A47.223,47.223,0,0,0,556.427,384,63.357,63.357,0,0,1,541.06,384.949Z" transform="translate(-431.024 -328.499)" fill="#fff"/>
      <path id="Path_3654" data-name="Path 3654" d="M486.782,318.588a.493.493,0,0,0-.111,0,.747.747,0,0,0-.17,0q.153,2.258.132,4.512v.119a62.64,62.64,0,0,1-.723,9.057,63.519,63.519,0,0,1-9,24.284c-.132.213-.259.425-.4.629s-.23.366-.349.549q-1.246,1.888-2.611,3.665l-.387.5a62.254,62.254,0,0,1-32.669,21.758c-.123.034-.247.072-.374.1l.374.906a47.659,47.659,0,0,0,6.34,10.907l.548-.315h0a78.356,78.356,0,0,0,15.575-11.731,79.938,79.938,0,0,0,13.934-18.037q1.59-2.811,2.934-5.736c.064-.132.128-.268.183-.4a79.64,79.64,0,0,0,6.948-26.967c.14-1.841.217-3.7.221-5.528v-.57a74.843,74.843,0,0,0-.4-7.713Z" transform="translate(-406.533 -318.532)" fill="#fff"/>
      <path id="Path_3655" data-name="Path 3655" d="M366.364,623.132a3.716,3.716,0,0,1,1.85,4.252v.034a13.737,13.737,0,0,0-.425,3.448,10.153,10.153,0,0,0,.264,2.126,3.964,3.964,0,0,0,.884,1.739,4.422,4.422,0,0,0,1.833,1.182,9.205,9.205,0,0,0,3.108.425l8.236-.03v-9.053q0-5.256,2.845-8.079t8.079-2.828l5.689.123a2.866,2.866,0,0,1,1.276.3,3.47,3.47,0,0,1,1.726,1.833,3.357,3.357,0,0,1,.247,1.276v16.434h1.982v6.676h-5.294a3.22,3.22,0,0,1-1.275-.263,3.374,3.374,0,0,1-1.059-.714,3.444,3.444,0,0,1-.714-1.059,3.218,3.218,0,0,1-.264-1.276V623.051l-2.424-.064a7.922,7.922,0,0,0-2.02.217,2.667,2.667,0,0,0-1.276.714,2.926,2.926,0,0,0-.668,1.305,3.467,3.467,0,0,0-.2,1.339l.034,12.795a4.338,4.338,0,0,1-.234,1.416,3.242,3.242,0,0,1-1.726,1.926,3.233,3.233,0,0,1-1.4.293H373.861a14.983,14.983,0,0,1-5.953-1.054,11.022,11.022,0,0,1-3.933-2.768,10.408,10.408,0,0,1-2.173-3.9,15.306,15.306,0,0,1-.672-4.49,19.607,19.607,0,0,1,.174-2.6,19.946,19.946,0,0,1,.48-2.487,20.815,20.815,0,0,1,.714-2.249h0a1.858,1.858,0,0,1,2.59-.987Zm2.976,27.724a3.549,3.549,0,0,1,2.177-3.312,3.5,3.5,0,0,1,1.4-.276,3.58,3.58,0,0,1,3.606,3.6,3.552,3.552,0,0,1-2.19,3.3,3.629,3.629,0,0,1-1.416.281,3.527,3.527,0,0,1-3.563-3.589Zm8.33,0a3.549,3.549,0,0,1,2.177-3.312,3.5,3.5,0,0,1,1.4-.276,3.58,3.58,0,0,1,3.64,3.589,3.5,3.5,0,0,1-.281,1.4,3.574,3.574,0,0,1-.761,1.135,3.537,3.537,0,0,1-1.152.761,3.589,3.589,0,0,1-1.412.281,3.627,3.627,0,0,1-3.6-3.576Z" transform="translate(-361.13 -489.693)" fill="#303233"/>
      <path id="Path_3656" data-name="Path 3656" d="M460.42,628.642v-6.676H466.8a13.284,13.284,0,0,1-1.1-3.155,15.912,15.912,0,0,1-.361-3.4,15.588,15.588,0,0,1,.8-4.911,12.876,12.876,0,0,1,2.347-4.252,11.627,11.627,0,0,1,3.852-2.977,11.863,11.863,0,0,1,5.315-1.135h8.173a4.093,4.093,0,0,1,1.65.34,4.278,4.278,0,0,1,2.254,2.317,4.338,4.338,0,0,1,.323,1.663v15.512h2.976v6.676Zm12.1-10.32a5.844,5.844,0,0,0,1.833,2.6,5.047,5.047,0,0,0,3.3,1.042h5.749V608.781h-5.749a5.2,5.2,0,0,0-2.517.578,5.275,5.275,0,0,0-1.756,1.522,6.674,6.674,0,0,0-1.042,2.126,8.476,8.476,0,0,0-.34,2.39,8.618,8.618,0,0,0,.123,1.48,7.151,7.151,0,0,0,.4,1.45Zm2.951-23.34a3.549,3.549,0,0,1,2.177-3.312,3.5,3.5,0,0,1,1.4-.281A3.58,3.58,0,0,1,482.65,595a3.5,3.5,0,0,1-.281,1.4,3.677,3.677,0,0,1-.761,1.135,3.64,3.64,0,0,1-2.551,1.042,3.6,3.6,0,0,1-3.589-3.584Z" transform="translate(-418.201 -475.346)" fill="#303233"/>
      <path id="Path_3657" data-name="Path 3657" d="M538.327,637.837V622.325A3.325,3.325,0,0,1,541.653,619h0a3.325,3.325,0,0,1,3.325,3.325v15.511h4.677v6.676H534.517v-6.676Zm-4.758,15.18a3.623,3.623,0,0,1,.281-1.416,3.551,3.551,0,0,1,3.3-2.19,3.585,3.585,0,0,1,1.412.281,3.47,3.47,0,0,1,1.152.761,3.54,3.54,0,0,1,.761,1.148,3.624,3.624,0,0,1,.281,1.416,3.513,3.513,0,0,1-.281,1.4,3.606,3.606,0,0,1-.761,1.131,3.473,3.473,0,0,1-1.152.761,3.587,3.587,0,0,1-4.724-1.892A3.514,3.514,0,0,1,533.569,653.017Zm8.33,0a3.626,3.626,0,0,1,.281-1.416,3.475,3.475,0,0,1,.761-1.148,3.66,3.66,0,0,1,3.963-.761,3.469,3.469,0,0,1,1.152.761,3.537,3.537,0,0,1,.761,1.148,3.621,3.621,0,0,1,.281,1.416,3.508,3.508,0,0,1-.281,1.4,3.607,3.607,0,0,1-.761,1.131,3.474,3.474,0,0,1-1.152.761,3.576,3.576,0,0,1-4.988-3.291Z" transform="translate(-460.246 -491.216)" fill="#303233"/>
      <path id="Path_3658" data-name="Path 3658" d="M570.466,622.317H595.2v-3.236a24.54,24.54,0,0,0-.106-2.641,2.551,2.551,0,0,0-.5-1.382,1.82,1.82,0,0,0-1.182-.561,16.825,16.825,0,0,0-2.16-.106l-16.145-.064a5.319,5.319,0,0,1-3.091-.808,4.282,4.282,0,0,1-1.633-2.126,5.529,5.529,0,0,1-.37-2.05,5.692,5.692,0,0,1,.06-.808,9.284,9.284,0,0,1,.935-3.172,20.2,20.2,0,0,1,4.46-5.953,26.524,26.524,0,0,1,6.166-4.252,29.066,29.066,0,0,1,7.152-2.471A30.158,30.158,0,0,1,595.1,592h0a.961.961,0,0,1,.965.995l-.128,3.9a1.939,1.939,0,0,1-1.82,1.871c-1.195.072-2.7.191-3.555.349a23.491,23.491,0,0,0-5.281,1.663,20.162,20.162,0,0,0-4.6,2.857,13.464,13.464,0,0,0-3.325,4.057h11.791q2.488,0,4.4.077a19.468,19.468,0,0,1,3.325.391,6.9,6.9,0,0,1,2.381.961,4.805,4.805,0,0,1,1.552,1.79,9.161,9.161,0,0,1,.85,2.857,28.718,28.718,0,0,1,.264,4.214v4.333h5.719v6.676H570.466Z" transform="translate(-481.198 -475.697)" fill="#303233"/>
      <path id="Path_3659" data-name="Path 3659" d="M655,636.451h2v-7.586a10.442,10.442,0,0,1,.425-2.921,13.25,13.25,0,0,1,1.246-2.891,14.115,14.115,0,0,1,1.943-2.611,12.689,12.689,0,0,1,5.485-3.448,10.514,10.514,0,0,1,2.921-.4h.4l9.418.123a3.216,3.216,0,0,1,1.275.264,3.447,3.447,0,0,1,1.055.714,3.538,3.538,0,0,1,.719,1.042,3.129,3.129,0,0,1,.264,1.276V639.5a4.337,4.337,0,0,1-.234,1.416,3.287,3.287,0,0,1-1.7,1.926,3.143,3.143,0,0,1-1.382.293H655Zm8.687,0H675.5V623.334l-3.559-.047c-.816,0-1.42-.021-1.8-.03h-.855a4.787,4.787,0,0,0-2.067.48,6.769,6.769,0,0,0-1.8,1.276,6.008,6.008,0,0,0-1.276,1.79,4.878,4.878,0,0,0-.464,2.067Z" transform="translate(-530.044 -489.831)" fill="#303233"/>
    </g>
  </g>
</svg>
