<svg xmlns="http://www.w3.org/2000/svg" width="32.838" height="29.572" viewBox="0 0 32.838 29.572">
  <g id="upload-cloud-line" transform="translate(-1.6 -2.678)">
    <path id="Path_6633" data-name="Path 6633" d="M30.31,13v-.32a10.26,10.26,0,0,0-10.45-10,10.47,10.47,0,0,0-9.6,6.1A9.74,9.74,0,0,0,1.6,18.4,9.62,9.62,0,0,0,11.25,28H15V26H11.25A7.65,7.65,0,0,1,11,10.74h.67l.23-.63a8.43,8.43,0,0,1,8-5.4,8.26,8.26,0,0,1,8.45,8,7.751,7.751,0,0,1,0,.8l-.08.72.65.3A6,6,0,0,1,26.38,26H21v2h5.38a8,8,0,0,0,3.93-15Z" fill="#e0e0e0"/>
    <path id="Path_6634" data-name="Path 6634" d="M22.28,21.85A1,1,0,0,0,23,20.14l-5-5-5,5a1,1,0,0,0,1.41,1.41L17,19V31.25a1,1,0,0,0,2,0V19l2.57,2.57a1,1,0,0,0,.71.28Z" fill="#e0e0e0"/>
  </g>
</svg>
