<svg id="trolley" xmlns="http://www.w3.org/2000/svg" width="19.201" height="16" viewBox="0 0 19.201 16">
  <path id="Path_6247" data-name="Path 6247" d="M15.273,16h-7.2a2.325,2.325,0,0,1-2.238-1.656L3.407,6.1a.72.72,0,0,0-.7-.5H.8A.8.8,0,0,1,.8,4H2.706A2.324,2.324,0,0,1,4.943,5.656L5.4,7.2H17.634a1.577,1.577,0,0,1,1.266.636,1.512,1.512,0,0,1,.23,1.357l-1.65,5.238A2.322,2.322,0,0,1,15.273,16Zm2.362-7.2h.008Z" transform="translate(0 -4)" fill="#fff"/>
  <path id="Path_6248" data-name="Path 6248" d="M10.6,23.2a1.6,1.6,0,1,1,1.6-1.6A1.6,1.6,0,0,1,10.6,23.2Zm0-1.6h0Z" transform="translate(-1.8 -7.2)" fill="#fff"/>
  <path id="Path_6249" data-name="Path 6249" d="M17.6,23.2a1.6,1.6,0,1,1,1.6-1.6A1.6,1.6,0,0,1,17.6,23.2Zm0-1.6h0Z" transform="translate(-3.2 -7.2)" fill="#fff"/>
</svg>
